  0
SECTION
  2
HEADER
  9
$ACADVER
  1
AC1015
  9
$ACADMAINTVER
 70
     6
  9
$DWGCODEPAGE
  3
ANSI_1252
  9
$INSBASE
 10
0.0
 20
0.0
 30
0.0
  9
$EXTMIN
 10
6.178666685994045
 20
1.458505742740054
 30
0.0
  9
$EXTMAX
 10
25.19261833685336
 20
15.25990603459939
 30
0.25
  9
$LIMMIN
 10
0.0
 20
0.0
  9
$LIMMAX
 10
12.0
 20
9.0
  9
$ORTHOMODE
 70
     0
  9
$REGENMODE
 70
     1
  9
$FILLMODE
 70
     1
  9
$QTEXTMODE
 70
     0
  9
$MIRRTEXT
 70
     1
  9
$LTSCALE
 40
1.0
  9
$ATTMODE
 70
     1
  9
$TEXTSIZE
 40
0.2
  9
$TRACEWID
 40
0.05
  9
$TEXTSTYLE
  7
Standard
  9
$CLAYER
  8
0
  9
$CELTYPE
  6
ByLayer
  9
$CECOLOR
 62
   256
  9
$CELTSCALE
 40
1.0
  9
$DISPSILH
 70
     0
  9
$DIMSCALE
 40
1.0
  9
$DIMASZ
 40
0.18
  9
$DIMEXO
 40
0.0625
  9
$DIMDLI
 40
0.38
  9
$DIMRND
 40
0.0
  9
$DIMDLE
 40
0.0
  9
$DIMEXE
 40
0.18
  9
$DIMTP
 40
0.0
  9
$DIMTM
 40
0.0
  9
$DIMTXT
 40
0.18
  9
$DIMCEN
 40
0.09
  9
$DIMTSZ
 40
0.0
  9
$DIMTOL
 70
     0
  9
$DIMLIM
 70
     0
  9
$DIMTIH
 70
     1
  9
$DIMTOH
 70
     1
  9
$DIMSE1
 70
     0
  9
$DIMSE2
 70
     0
  9
$DIMTAD
 70
     0
  9
$DIMZIN
 70
     0
  9
$DIMBLK
  1

  9
$DIMASO
 70
     1
  9
$DIMSHO
 70
     1
  9
$DIMPOST
  1

  9
$DIMAPOST
  1

  9
$DIMALT
 70
     0
  9
$DIMALTD
 70
     2
  9
$DIMALTF
 40
25.4
  9
$DIMLFAC
 40
1.0
  9
$DIMTOFL
 70
     0
  9
$DIMTVP
 40
0.0
  9
$DIMTIX
 70
     0
  9
$DIMSOXD
 70
     0
  9
$DIMSAH
 70
     0
  9
$DIMBLK1
  1

  9
$DIMBLK2
  1

  9
$DIMSTYLE
  2
Standard
  9
$DIMCLRD
 70
     0
  9
$DIMCLRE
 70
     0
  9
$DIMCLRT
 70
     0
  9
$DIMTFAC
 40
1.0
  9
$DIMGAP
 40
0.09
  9
$DIMJUST
 70
     0
  9
$DIMSD1
 70
     0
  9
$DIMSD2
 70
     0
  9
$DIMTOLJ
 70
     1
  9
$DIMTZIN
 70
     0
  9
$DIMALTZ
 70
     0
  9
$DIMALTTZ
 70
     0
  9
$DIMUPT
 70
     0
  9
$DIMDEC
 70
     4
  9
$DIMTDEC
 70
     4
  9
$DIMALTU
 70
     2
  9
$DIMALTTD
 70
     2
  9
$DIMTXSTY
  7
Standard
  9
$DIMAUNIT
 70
     0
  9
$DIMADEC
 70
     0
  9
$DIMALTRND
 40
0.0
  9
$DIMAZIN
 70
     0
  9
$DIMDSEP
 70
    46
  9
$DIMATFIT
 70
     3
  9
$DIMFRAC
 70
     0
  9
$DIMLDRBLK
  1

  9
$DIMLUNIT
 70
     2
  9
$DIMLWD
 70
    -2
  9
$DIMLWE
 70
    -2
  9
$DIMTMOVE
 70
     0
  9
$LUNITS
 70
     2
  9
$LUPREC
 70
     4
  9
$SKETCHINC
 40
0.1
  9
$FILLETRAD
 40
0.5
  9
$AUNITS
 70
     0
  9
$AUPREC
 70
     0
  9
$MENU
  1
.
  9
$ELEVATION
 40
0.0
  9
$PELEVATION
 40
0.0
  9
$THICKNESS
 40
0.0
  9
$LIMCHECK
 70
     0
  9
$CHAMFERA
 40
0.5
  9
$CHAMFERB
 40
0.5
  9
$CHAMFERC
 40
1.0
  9
$CHAMFERD
 40
0.0
  9
$SKPOLY
 70
     0
  9
$TDCREATE
 40
2451388.392157523
  9
$TDUCREATE
 40
2451388.683824190
  9
$TDUPDATE
 40
2451388.458535544
  9
$TDUUPDATE
 40
2451388.750202210
  9
$TDINDWG
 40
0.0265612153
  9
$TDUSRTIMER
 40
0.0265577431
  9
$USRTIMER
 70
     1
  9
$ANGBASE
 50
0.0
  9
$ANGDIR
 70
     0
  9
$PDMODE
 70
     0
  9
$PDSIZE
 40
0.0
  9
$PLINEWID
 40
0.0
  9
$SPLFRAME
 70
     0
  9
$SPLINETYPE
 70
     6
  9
$SPLINESEGS
 70
     8
  9
$HANDSEED
  5
71A
  9
$SURFTAB1
 70
     6
  9
$SURFTAB2
 70
     6
  9
$SURFTYPE
 70
     6
  9
$SURFU
 70
     6
  9
$SURFV
 70
     6
  9
$UCSBASE
  2

  9
$UCSNAME
  2

  9
$UCSORG
 10
0.0
 20
0.0
 30
0.0
  9
$UCSXDIR
 10
1.0
 20
0.0
 30
0.0
  9
$UCSYDIR
 10
0.0
 20
1.0
 30
0.0
  9
$UCSORTHOREF
  2

  9
$UCSORTHOVIEW
 70
     0
  9
$UCSORGTOP
 10
0.0
 20
0.0
 30
0.0
  9
$UCSORGBOTTOM
 10
0.0
 20
0.0
 30
0.0
  9
$UCSORGLEFT
 10
0.0
 20
0.0
 30
0.0
  9
$UCSORGRIGHT
 10
0.0
 20
0.0
 30
0.0
  9
$UCSORGFRONT
 10
0.0
 20
0.0
 30
0.0
  9
$UCSORGBACK
 10
0.0
 20
0.0
 30
0.0
  9
$PUCSBASE
  2

  9
$PUCSNAME
  2

  9
$PUCSORG
 10
0.0
 20
0.0
 30
0.0
  9
$PUCSXDIR
 10
1.0
 20
0.0
 30
0.0
  9
$PUCSYDIR
 10
0.0
 20
1.0
 30
0.0
  9
$PUCSORTHOREF
  2

  9
$PUCSORTHOVIEW
 70
     0
  9
$PUCSORGTOP
 10
0.0
 20
0.0
 30
0.0
  9
$PUCSORGBOTTOM
 10
0.0
 20
0.0
 30
0.0
  9
$PUCSORGLEFT
 10
0.0
 20
0.0
 30
0.0
  9
$PUCSORGRIGHT
 10
0.0
 20
0.0
 30
0.0
  9
$PUCSORGFRONT
 10
0.0
 20
0.0
 30
0.0
  9
$PUCSORGBACK
 10
0.0
 20
0.0
 30
0.0
  9
$USERI1
 70
     0
  9
$USERI2
 70
     0
  9
$USERI3
 70
     0
  9
$USERI4
 70
     0
  9
$USERI5
 70
     0
  9
$USERR1
 40
0.0
  9
$USERR2
 40
0.0
  9
$USERR3
 40
0.0
  9
$USERR4
 40
0.0
  9
$USERR5
 40
0.0
  9
$WORLDVIEW
 70
     1
  9
$SHADEDGE
 70
     3
  9
$SHADEDIF
 70
    70
  9
$TILEMODE
 70
     1
  9
$MAXACTVP
 70
    64
  9
$PINSBASE
 10
0.0
 20
0.0
 30
0.0
  9
$PLIMCHECK
 70
     0
  9
$PEXTMIN
 10
1.043749998873613
 20
0.7704166953019272
 30
0.0
  9
$PEXTMAX
 10
9.393749989862515
 20
6.933750257717342
 30
0.0
  9
$PLIMMIN
 10
-0.2812495194082185
 20
-0.3229166766789954
  9
$PLIMMAX
 10
10.71875024029589
 20
8.177083083025113
  9
$UNITMODE
 70
     0
  9
$VISRETAIN
 70
     1
  9
$PLINEGEN
 70
     0
  9
$PSLTSCALE
 70
     1
  9
$TREEDEPTH
 70
  3020
  9
$CMLSTYLE
  2
Standard
  9
$CMLJUST
 70
     0
  9
$CMLSCALE
 40
1.0
  9
$PROXYGRAPHICS
 70
     1
  9
$MEASUREMENT
 70
     0
  9
$CELWEIGHT
370
    -1
  9
$ENDCAPS
280
     0
  9
$JOINSTYLE
280
     0
  9
$LWDISPLAY
290
     0
  9
$INSUNITS
 70
     1
  9
$HYPERLINKBASE
  1

  9
$STYLESHEET
  1

  9
$XEDIT
290
     1
  9
$CEPSNTYPE
380
     0
  9
$PSTYLEMODE
290
     1
  9
$FINGERPRINTGUID
  2
{FDEAD576-A652-11D2-9A35-0060089B3A3F}
  9
$VERSIONGUID
  2
{761FBF1B-4515-11D3-B366-0080C7390671}
  9
$EXTNAMES
290
     1
  9
$PSVPSCALE
 40
0.0
  9
$OLESTARTUP
290
     0
  0
ENDSEC
  0
SECTION
  2
CLASSES
  0
CLASS
  1
ACDBDICTIONARYWDFLT
  2
AcDbDictionaryWithDefault
  3
AutoCAD 2000
 90
        0
280
     0
281
     0
  0
CLASS
  1
ACDBPLACEHOLDER
  2
AcDbPlaceHolder
  3
AutoCAD 2000
 90
        0
280
     0
281
     0
  0
CLASS
  1
LAYOUT
  2
AcDbLayout
  3
AutoCAD 2000
 90
        0
280
     0
281
     0
  0
CLASS
  1
RASTERVARIABLES
  2
AcDbRasterVariables
  3
ISM
 90
        0
280
     0
281
     0
  0
CLASS
  1
IMAGEDEF
  2
AcDbRasterImageDef
  3
ISM
 90
        0
280
     0
281
     0
  0
CLASS
  1
IMAGEDEF_REACTOR
  2
AcDbRasterImageDefReactor
  3
ISM
 90
    32769
280
     0
281
     0
  0
CLASS
  1
IMAGE
  2
AcDbRasterImage
  3
ISM
 90
    32895
280
     0
281
     1
  0
CLASS
  1
DICTIONARYVAR
  2
AcDbDictionaryVar
  3
AutoCAD 2000
 90
        0
280
     0
281
     0
  0
CLASS
  1
ACMDIMBREAKPERSREACTOR
  2
AcmDimBreakPersReactor
  3
AutoCadMServices
 90
      255
280
     1
281
     0
  0
CLASS
  1
SORTENTSTABLE
  2
AcDbSortentsTable
  3
AutoCAD 2000
 90
        0
280
     0
281
     0
  0
ENDSEC
  0
SECTION
  2
TABLES
  0
TABLE
  2
VPORT
  5
8
330
0
100
AcDbSymbolTable
 70
     5
  0
VPORT
  5
719
330
8
100
AcDbSymbolTableRecord
100
AcDbViewportTableRecord
  2
*Active
 70
     0
 10
0.0
 20
0.0
 11
1.0
 21
1.0
 12
0.0816188648780108
 22
1.506938002761747
 13
0.0
 23
0.0
 14
0.5
 24
0.5
 15
0.5
 25
0.5
 16
-11.76479880676667
 26
-4.761817777052075
 36
20.97248653352504
 17
11.7304025722883
 27
7.720458979668213
 37
3.237340503106245
 40
10.03948902990861
 41
1.828516377649325
 42
50.0
 43
0.0
 44
0.0
 50
0.0
 51
317.6898257142523
 71
     0
 72
   100
 73
     1
 74
     3
 75
     0
 76
     0
 77
     0
 78
     0
281
     0
 65
     1
110
0.0
120
0.0
130
0.0
111
1.0
121
0.0
131
0.0
112
0.0
122
1.0
132
0.0
 79
     0
146
0.0
  0
ENDTAB
  0
TABLE
  2
LTYPE
  5
5
330
0
100
AcDbSymbolTable
 70
     3
  0
LTYPE
  5
14
330
5
100
AcDbSymbolTableRecord
100
AcDbLinetypeTableRecord
  2
ByBlock
 70
     0
  3

 72
    65
 73
     0
 40
0.0
  0
LTYPE
  5
15
330
5
100
AcDbSymbolTableRecord
100
AcDbLinetypeTableRecord
  2
ByLayer
 70
     0
  3

 72
    65
 73
     0
 40
0.0
  0
LTYPE
  5
16
330
5
100
AcDbSymbolTableRecord
100
AcDbLinetypeTableRecord
  2
Continuous
 70
     0
  3
Solid line
 72
    65
 73
     0
 40
0.0
  0
LTYPE
  5
339
330
5
100
AcDbSymbolTableRecord
100
AcDbLinetypeTableRecord
  2
CENTER
 70
     0
  3
____ _ ____ _ ____ _ ____ _ ____ _ ____ _ ____ 
 72
    65
 73
     4
 40
2.0
 49
1.25
 74
     0
 49
-0.25
 74
     0
 49
0.25
 74
     0
 49
-0.25
 74
     0
  0
LTYPE
  5
33A
330
5
100
AcDbSymbolTableRecord
100
AcDbLinetypeTableRecord
  2
PHANTOM
 70
     0
  3
Phantom ______  __  __  ______  __  __  ______
 72
    65
 73
     6
 40
2.5
 49
1.25
 74
     0
 49
-0.25
 74
     0
 49
0.25
 74
     0
 49
-0.25
 74
     0
 49
0.25
 74
     0
 49
-0.25
 74
     0
  0
ENDTAB
  0
TABLE
  2
LAYER
  5
2
330
0
100
AcDbSymbolTable
 70
     3
  0
LAYER
  5
10
330
2
100
AcDbSymbolTableRecord
100
AcDbLayerTableRecord
  2
0
 70
     0
 62
     7
  6
Continuous
370
    -3
390
F
  0
LAYER
  5
33B
330
2
100
AcDbSymbolTableRecord
100
AcDbLayerTableRecord
  2
DIM
 70
     0
 62
     2
  6
Continuous
370
    -3
390
F
  0
LAYER
  5
33C
330
2
100
AcDbSymbolTableRecord
100
AcDbLayerTableRecord
  2
DEFPOINTS
 70
     0
 62
    -7
  6
Continuous
290
     0
370
    -3
390
F
  0
ENDTAB
  0
TABLE
  2
STYLE
  5
3
330
0
100
AcDbSymbolTable
 70
     2
  0
STYLE
  5
11
330
3
100
AcDbSymbolTableRecord
100
AcDbTextStyleTableRecord
  2
Standard
 70
     0
 40
0.0
 41
1.0
 50
0.0
 71
     0
 42
0.2
  3
txt
  4

  0
STYLE
  5
33D
330
3
100
AcDbSymbolTableRecord
100
AcDbTextStyleTableRecord
  2
ROMANS
 70
     0
 40
0.0
 41
1.0
 50
0.0
 71
     0
 42
0.2
  3
romans.shx
  4

  0
ENDTAB
  0
TABLE
  2
VIEW
  5
6
330
0
100
AcDbSymbolTable
 70
     1
  0
VIEW
  5
21A
330
6
100
AcDbSymbolTableRecord
100
AcDbViewTableRecord
  2
3dview
 70
     0
 40
10.03948902990861
 10
0.0816188648780108
 20
1.506938002761747
 41
18.35737011441864
 11
-11.76479880676667
 21
-4.761817777052075
 31
20.97248653352504
 12
11.7304025722883
 22
7.720458979668213
 32
3.237340503106245
 42
50.0
 43
0.0
 44
0.0
 50
317.6898257142523
 71
     0
281
     0
 72
     1
110
0.0
120
0.0
130
0.0
111
1.0
121
0.0
131
0.0
112
0.0
122
1.0
132
0.0
 79
     0
146
0.0
  0
ENDTAB
  0
TABLE
  2
UCS
  5
7
330
0
100
AcDbSymbolTable
 70
     0
  0
ENDTAB
  0
TABLE
  2
APPID
  5
9
330
0
100
AcDbSymbolTable
 70
     1
  0
APPID
  5
12
330
9
100
AcDbSymbolTableRecord
100
AcDbRegAppTableRecord
  2
ACAD
 70
     0
  0
ENDTAB
  0
TABLE
  2
DIMSTYLE
  5
A
330
0
100
AcDbSymbolTable
 70
     2
100
AcDbDimStyleTable
 71
     0
  0
DIMSTYLE
105
27
330
A
100
AcDbSymbolTableRecord
100
AcDbDimStyleTableRecord
  2
Standard
 70
     0
340
11
  0
DIMSTYLE
105
33E
102
{ACAD_REACTORS
330
340
330
37A
330
343
330
345
330
34E
330
346
330
347
330
353
330
359
330
35A
330
35B
330
375
330
341
330
342
330
384
330
385
330
376
330
355
330
34C
330
39A
330
39C
330
39D
330
39E
330
3A3
330
3A5
330
3AA
330
3AC
330
3B0
330
3B1
330
3B2
330
3CC
330
3CD
330
3D1
330
3DB
330
3DC
330
399
330
398
330
397
102
}
330
A
100
AcDbSymbolTableRecord
100
AcDbDimStyleTableRecord
  2
HALF
 70
     0
  4
in.
 42
0.06
 44
0.13
 78
     4
140
0.14
141
-0.06
143
0.03937008
144
50.8
147
0.06
170
     1
284
     4
289
     0
340
33D
  0
ENDTAB
  0
TABLE
  2
BLOCK_RECORD
  5
1
330
0
100
AcDbSymbolTable
 70
    41
  0
BLOCK_RECORD
  5
1F
102
{ACAD_XDICTIONARY
360
715
102
}
330
1
100
AcDbSymbolTableRecord
100
AcDbBlockTableRecord
  2
*Model_Space
340
22
  0
BLOCK_RECORD
  5
1B
330
1
100
AcDbSymbolTableRecord
100
AcDbBlockTableRecord
  2
*Paper_Space
340
1E
  0
BLOCK_RECORD
  5
23
330
1
100
AcDbSymbolTableRecord
100
AcDbBlockTableRecord
  2
*Paper_Space0
340
26
  0
BLOCK_RECORD
  5
227
330
1
100
AcDbSymbolTableRecord
100
AcDbBlockTableRecord
  2
G-DEPTH
340
0
102
{BLKREFS
331
37F
331
380
331
3D6
331
3D7
102
}
  0
BLOCK_RECORD
  5
22E
330
1
100
AcDbSymbolTableRecord
100
AcDbBlockTableRecord
  2
*D2
340
0
  0
BLOCK_RECORD
  5
23D
330
1
100
AcDbSymbolTableRecord
100
AcDbBlockTableRecord
  2
*D3
340
0
  0
BLOCK_RECORD
  5
24A
330
1
100
AcDbSymbolTableRecord
100
AcDbBlockTableRecord
  2
*D4
340
0
  0
BLOCK_RECORD
  5
258
330
1
100
AcDbSymbolTableRecord
100
AcDbBlockTableRecord
  2
*D5
340
0
  0
BLOCK_RECORD
  5
266
330
1
100
AcDbSymbolTableRecord
100
AcDbBlockTableRecord
  2
*D6
340
0
  0
BLOCK_RECORD
  5
274
330
1
100
AcDbSymbolTableRecord
100
AcDbBlockTableRecord
  2
*D7
340
0
  0
BLOCK_RECORD
  5
282
330
1
100
AcDbSymbolTableRecord
100
AcDbBlockTableRecord
  2
*D8
340
0
  0
BLOCK_RECORD
  5
290
330
1
100
AcDbSymbolTableRecord
100
AcDbBlockTableRecord
  2
*D9
340
0
  0
BLOCK_RECORD
  5
29E
330
1
100
AcDbSymbolTableRecord
100
AcDbBlockTableRecord
  2
*D10
340
0
  0
BLOCK_RECORD
  5
2AC
330
1
100
AcDbSymbolTableRecord
100
AcDbBlockTableRecord
  2
*D11
340
0
  0
BLOCK_RECORD
  5
2BA
330
1
100
AcDbSymbolTableRecord
100
AcDbBlockTableRecord
  2
*D12
340
0
  0
BLOCK_RECORD
  5
2C8
330
1
100
AcDbSymbolTableRecord
100
AcDbBlockTableRecord
  2
*D13
340
0
  0
BLOCK_RECORD
  5
2D5
330
1
100
AcDbSymbolTableRecord
100
AcDbBlockTableRecord
  2
*D14
340
0
  0
BLOCK_RECORD
  5
2E4
330
1
100
AcDbSymbolTableRecord
100
AcDbBlockTableRecord
  2
*D15
340
0
  0
BLOCK_RECORD
  5
2F3
330
1
100
AcDbSymbolTableRecord
100
AcDbBlockTableRecord
  2
*D16
340
0
  0
BLOCK_RECORD
  5
301
330
1
100
AcDbSymbolTableRecord
100
AcDbBlockTableRecord
  2
*D17
340
0
  0
BLOCK_RECORD
  5
30F
330
1
100
AcDbSymbolTableRecord
100
AcDbBlockTableRecord
  2
*D18
340
0
  0
BLOCK_RECORD
  5
31D
330
1
100
AcDbSymbolTableRecord
100
AcDbBlockTableRecord
  2
*D19
340
0
  0
BLOCK_RECORD
  5
32B
330
1
100
AcDbSymbolTableRecord
100
AcDbBlockTableRecord
  2
*D20
340
0
  0
BLOCK_RECORD
  5
3EA
330
1
100
AcDbSymbolTableRecord
100
AcDbBlockTableRecord
  2
*D22
340
0
  0
BLOCK_RECORD
  5
3F9
330
1
100
AcDbSymbolTableRecord
100
AcDbBlockTableRecord
  2
*D23
340
0
  0
BLOCK_RECORD
  5
408
330
1
100
AcDbSymbolTableRecord
100
AcDbBlockTableRecord
  2
*D24
340
0
  0
BLOCK_RECORD
  5
417
330
1
100
AcDbSymbolTableRecord
100
AcDbBlockTableRecord
  2
*D25
340
0
  0
BLOCK_RECORD
  5
425
330
1
100
AcDbSymbolTableRecord
100
AcDbBlockTableRecord
  2
*D26
340
0
  0
BLOCK_RECORD
  5
433
330
1
100
AcDbSymbolTableRecord
100
AcDbBlockTableRecord
  2
*D27
340
0
  0
BLOCK_RECORD
  5
441
330
1
100
AcDbSymbolTableRecord
100
AcDbBlockTableRecord
  2
*D28
340
0
  0
BLOCK_RECORD
  5
44F
330
1
100
AcDbSymbolTableRecord
100
AcDbBlockTableRecord
  2
*D29
340
0
  0
BLOCK_RECORD
  5
45D
330
1
100
AcDbSymbolTableRecord
100
AcDbBlockTableRecord
  2
*D30
340
0
  0
BLOCK_RECORD
  5
46B
330
1
100
AcDbSymbolTableRecord
100
AcDbBlockTableRecord
  2
*D31
340
0
  0
BLOCK_RECORD
  5
479
330
1
100
AcDbSymbolTableRecord
100
AcDbBlockTableRecord
  2
*D32
340
0
  0
BLOCK_RECORD
  5
487
330
1
100
AcDbSymbolTableRecord
100
AcDbBlockTableRecord
  2
*D33
340
0
  0
BLOCK_RECORD
  5
495
330
1
100
AcDbSymbolTableRecord
100
AcDbBlockTableRecord
  2
*D34
340
0
  0
BLOCK_RECORD
  5
4A2
330
1
100
AcDbSymbolTableRecord
100
AcDbBlockTableRecord
  2
*D35
340
0
  0
BLOCK_RECORD
  5
4B0
330
1
100
AcDbSymbolTableRecord
100
AcDbBlockTableRecord
  2
*D36
340
0
  0
BLOCK_RECORD
  5
4BD
330
1
100
AcDbSymbolTableRecord
100
AcDbBlockTableRecord
  2
*D37
340
0
  0
BLOCK_RECORD
  5
4CB
330
1
100
AcDbSymbolTableRecord
100
AcDbBlockTableRecord
  2
*D38
340
0
  0
BLOCK_RECORD
  5
4FD
330
1
100
AcDbSymbolTableRecord
100
AcDbBlockTableRecord
  2
*D39
340
0
  0
BLOCK_RECORD
  5
54D
330
1
100
AcDbSymbolTableRecord
100
AcDbBlockTableRecord
  2
*D40
340
0
  0
ENDTAB
  0
ENDSEC
  0
SECTION
  2
BLOCKS
  0
BLOCK
  5
20
330
1F
100
AcDbEntity
  8
0
100
AcDbBlockBegin
  2
*Model_Space
 70
     0
 10
0.0
 20
0.0
 30
0.0
  3
*Model_Space
  1

  0
ENDBLK
  5
21
330
1F
100
AcDbEntity
  8
0
100
AcDbBlockEnd
  0
BLOCK
  5
1C
330
1B
100
AcDbEntity
 67
     1
  8
0
100
AcDbBlockBegin
  2
*Paper_Space
 70
     0
 10
0.0
 20
0.0
 30
0.0
  3
*Paper_Space
  1

  0
ENDBLK
  5
1D
330
1B
100
AcDbEntity
 67
     1
  8
0
100
AcDbBlockEnd
  0
BLOCK
  5
24
330
23
100
AcDbEntity
  8
0
100
AcDbBlockBegin
  2
*Paper_Space0
 70
     0
 10
0.0
 20
0.0
 30
0.0
  3
*Paper_Space0
  1

  0
VIEWPORT
  5
224
330
23
100
AcDbEntity
  8
0
100
AcDbViewport
 10
5.218750360443835
 20
3.927083203173058
 30
0.0
 40
11.63799974576694
 41
12.50956800866579
 69
     1
 12
5.218750360443835
 22
3.927083203173058
 13
0.0
 23
0.0
 14
0.5
 24
0.5
 15
0.5
 25
0.5
 16
0.0
 26
0.0
 36
1.0
 17
0.0
 27
0.0
 37
0.0
 42
50.0
 43
0.0
 44
0.0
 45
12.50956800866579
 50
0.0
 51
0.0
 72
   100
 90
    32800
  1

281
     0
 71
     1
 74
     0
110
0.0
120
0.0
130
0.0
111
1.0
121
0.0
131
0.0
112
0.0
122
1.0
132
0.0
 79
     0
146
0.0
  0
VIEWPORT
  5
226
330
23
100
AcDbEntity
  8
0
100
AcDbViewport
 10
5.218749994368064
 20
3.852083476509634
 30
0.0
 40
8.349999990988901
 41
6.163333562415415
 69
     2
 12
2.655120887084107
 22
2.103403453775629
 13
0.0
 23
0.0
 14
0.5
 24
0.5
 15
0.5
 25
0.5
 16
0.0
 26
0.0
 36
1.0
 17
11.7304025722883
 27
7.720458979668213
 37
3.237340503106245
 42
50.0
 43
0.0
 44
0.0
 45
7.934912878753697
 50
0.0
 51
0.0
 72
   100
 90
    32864
  1

281
     0
 71
     1
 74
     0
110
0.0
120
0.0
130
0.0
111
1.0
121
0.0
131
0.0
112
0.0
122
1.0
132
0.0
 79
     1
146
0.0
  0
ENDBLK
  5
25
330
23
100
AcDbEntity
  8
0
100
AcDbBlockEnd
  0
BLOCK
  5
22C
330
227
100
AcDbEntity
  8
0
100
AcDbBlockBegin
  2
G-DEPTH
 70
     0
 10
0.0
 20
0.0
 30
0.0
  3
G-DEPTH
  1

  0
LINE
  5
228
330
227
100
AcDbEntity
  8
DIM
100
AcDbLine
 10
0.0
 20
0.0
 30
0.0
 11
0.0
 21
0.1300000000000003
 31
0.0
  0
LINE
  5
229
330
227
100
AcDbEntity
  8
DIM
100
AcDbLine
 10
0.0
 20
0.0
 30
0.0
 11
-0.045033320996791
 21
0.0779999999999999
 31
0.0
  0
LINE
  5
22A
330
227
100
AcDbEntity
  8
DIM
100
AcDbLine
 10
0.0
 20
0.0
 30
0.0
 11
0.045033320996791
 21
0.0779999999999999
 31
0.0
  0
LINE
  5
22B
330
227
100
AcDbEntity
  8
DIM
100
AcDbLine
 10
-0.0650000000000013
 20
0.1299999999999999
 30
0.0
 11
0.0650000000000004
 21
0.1299999999999999
 31
0.0
  0
ENDBLK
  5
22D
330
227
100
AcDbEntity
  8
0
100
AcDbBlockEnd
  0
BLOCK
  5
23B
330
22E
100
AcDbEntity
  8
0
100
AcDbBlockBegin
  2
*D2
 70
     1
 10
0.0
 20
0.0
 30
0.0
  3
*D2
  1

  0
LINE
  5
22F
330
22E
100
AcDbEntity
  8
DIM
 62
     0
370
    -2
100
AcDbLine
 10
8.549473270754699
 20
-7.474763366788062
 30
0.0
 11
7.820646861569431
 21
-5.190858022891688
 31
0.0
  0
LINE
  5
230
330
22E
100
AcDbEntity
  8
DIM
 62
     0
370
    -2
100
AcDbLine
 10
7.820646861569431
 20
-5.190858022891688
 30
0.0
 11
8.00064686156943
 21
-5.190858022891688
 31
0.0
  0
SOLID
  5
231
330
22E
100
AcDbEntity
  8
DIM
 62
     0
100
AcDbTrace
 10
8.578053335415553
 20
-7.46564306503969
 30
0.0
 11
8.520893206093843
 21
-7.483883668536433
 31
0.0
 12
8.604195081244927
 22
-7.646243754753191
 32
0.0
 13
8.604195081244927
 23
-7.646243754753191
 33
0.0
  0
MTEXT
  5
232
330
22E
100
AcDbEntity
  8
DIM
 62
     0
100
AcDbMText
 10
9.887980194902763
 20
-5.190858022891688
 30
0.0
 40
0.14
 41
0.0
 71
     5
 72
     1
  1
\A1;\U+2205127.00\S+1.27^ -.76; {\o\l\H0.336000;[}\U+22055.00in.\S+0.05in.^ -0.03in.;{\o\l\H0.336000;]}
  7
ROMANS
 73
     1
 44
1.0
  0
LINE
  5
233
330
22E
100
AcDbEntity
  8
DIM
 62
     0
370
    -2
100
AcDbLine
 10
8.924207654093752
 20
-8.837079782288812
 30
0.0
 11
9.044207654093753
 21
-8.837079782288812
 31
0.0
  0
LINE
  5
234
330
22E
100
AcDbEntity
  8
DIM
 62
     0
370
    -2
100
AcDbLine
 10
8.984207654093752
 20
-8.897079782288814
 30
0.0
 11
8.984207654093751
 21
-8.777079782288813
 31
0.0
  0
LINE
  5
235
330
22E
100
AcDbEntity
  8
DIM
 62
     0
370
    -2
100
AcDbLine
 10
8.864207654093753
 20
-8.837079782288812
 30
0.0
 11
-54.57579234590617
 21
-8.837079782288816
 31
0.0
  0
LINE
  5
236
330
22E
100
AcDbEntity
  8
DIM
 62
     0
370
    -2
100
AcDbLine
 10
9.104207654093752
 20
-8.837079782288814
 30
0.0
 11
72.54420765409365
 21
-8.837079782288814
 31
0.0
  0
LINE
  5
237
330
22E
100
AcDbEntity
  8
DIM
 62
     0
370
    -2
100
AcDbLine
 10
8.984207654093751
 20
-8.957079782288813
 30
0.0
 11
8.984207654093752
 21
-72.39707978228874
 31
0.0
  0
LINE
  5
238
330
22E
100
AcDbEntity
  8
DIM
 62
     0
370
    -2
100
AcDbLine
 10
8.984207654093752
 20
-8.717079782288813
 30
0.0
 11
8.984207654093749
 21
54.7229202177111
 31
0.0
  0
POINT
  5
239
330
22E
100
AcDbEntity
  8
DEFPOINTS
 62
     0
100
AcDbPoint
 10
8.604195081244927
 20
-7.646243754753191
 30
0.0
  0
POINT
  5
23A
330
22E
100
AcDbEntity
  8
DEFPOINTS
 62
     0
100
AcDbPoint
 10
9.364220226942572
 20
-10.02791580982443
 30
0.0
  0
ENDBLK
  5
23C
330
22E
100
AcDbEntity
  8
0
100
AcDbBlockEnd
  0
BLOCK
  5
248
330
23D
100
AcDbEntity
  8
0
100
AcDbBlockBegin
  2
*D3
 70
     1
 10
0.0
 20
0.0
 30
0.0
  3
*D3
  1

  0
LINE
  5
23E
330
23D
100
AcDbEntity
  8
DIM
 62
     0
370
    -2
100
AcDbLine
 10
9.044207654093757
 20
-8.83707978228881
 30
0.0
 11
11.20240204930626
 21
-8.83707978228881
 31
0.0
  0
LINE
  5
23F
330
23D
100
AcDbEntity
  8
DIM
 62
     0
370
    -2
100
AcDbLine
 10
9.426830183487938
 20
-10.02707978228881
 30
0.0
 11
11.20240204930626
 21
-10.02707978228881
 31
0.0
  0
LINE
  5
240
330
23D
100
AcDbEntity
  8
DIM
 62
     0
370
    -2
100
AcDbLine
 10
11.07240204930626
 20
-9.01707978228881
 30
0.0
 11
11.07240204930626
 21
-9.265413115622145
 31
0.0
  0
LINE
  5
241
330
23D
100
AcDbEntity
  8
DIM
 62
     0
370
    -2
100
AcDbLine
 10
11.07240204930626
 20
-9.84707978228881
 30
0.0
 11
11.07240204930626
 21
-9.598746448955477
 31
0.0
  0
SOLID
  5
242
330
23D
100
AcDbEntity
  8
DIM
 62
     0
100
AcDbTrace
 10
11.04240204930626
 20
-9.01707978228881
 30
0.0
 11
11.10240204930626
 21
-9.01707978228881
 31
0.0
 12
11.07240204930626
 22
-8.83707978228881
 32
0.0
 13
11.07240204930626
 23
-8.83707978228881
 33
0.0
  0
SOLID
  5
243
330
23D
100
AcDbEntity
  8
DIM
 62
     0
100
AcDbTrace
 10
11.04240204930626
 20
-9.84707978228881
 30
0.0
 11
11.10240204930626
 21
-9.84707978228881
 31
0.0
 12
11.07240204930626
 22
-10.02707978228881
 32
0.0
 13
11.07240204930626
 23
-10.02707978228881
 33
0.0
  0
MTEXT
  5
244
330
23D
100
AcDbEntity
  8
DIM
 62
     0
100
AcDbMText
 10
11.07240204930626
 20
-9.432079782288809
 30
0.0
 40
0.14
 41
0.0
 71
     5
 72
     1
  1
\A1;60.45 [2.38in.]
  7
ROMANS
 73
     1
 44
1.0
  0
POINT
  5
245
330
23D
100
AcDbEntity
  8
DEFPOINTS
 62
     0
100
AcDbPoint
 10
8.984207654093756
 20
-8.83707978228881
 30
0.0
  0
POINT
  5
246
330
23D
100
AcDbEntity
  8
DEFPOINTS
 62
     0
100
AcDbPoint
 10
9.366830183487937
 20
-10.02707978228881
 30
0.0
  0
POINT
  5
247
330
23D
100
AcDbEntity
  8
DEFPOINTS
 62
     0
100
AcDbPoint
 10
11.07240204930626
 20
-10.02707978228881
 30
0.0
  0
ENDBLK
  5
249
330
23D
100
AcDbEntity
  8
0
100
AcDbBlockEnd
  0
BLOCK
  5
256
330
24A
100
AcDbEntity
  8
0
100
AcDbBlockBegin
  2
*D4
 70
     1
 10
0.0
 20
0.0
 30
0.0
  3
*D4
  1

  0
LINE
  5
24B
330
24A
100
AcDbEntity
  8
DIM
 62
     0
370
    -2
100
AcDbLine
 10
8.954207654093753
 20
-8.785118258061743
 30
0.0
 11
8.031229236691034
 21
-7.186472744830718
 31
0.0
  0
LINE
  5
24C
330
24A
100
AcDbEntity
  8
DIM
 62
     0
370
    -2
100
AcDbLine
 10
9.793466619900149
 20
-7.858757427546127
 30
0.0
 11
9.061799467194518
 21
-6.591472744830717
 31
0.0
  0
LINE
  5
24D
330
24A
100
AcDbEntity
  8
DIM
 62
     0
370
    -2
100
AcDbLine
 10
7.940344664009835
 20
-7.389056047322695
 30
0.0
 11
7.784460091328636
 21
-7.479056047322695
 31
0.0
  0
LINE
  5
24E
330
24A
100
AcDbEntity
  8
DIM
 62
     0
370
    -2
100
AcDbLine
 10
9.282684039875716
 20
-6.614056047322694
 30
0.0
 11
9.438568612556917
 21
-6.524056047322694
 31
0.0
  0
LINE
  5
24F
330
24A
100
AcDbEntity
  8
DIM
 62
     0
370
    -2
100
AcDbLine
 10
9.438568612556917
 20
-6.524056047322694
 30
0.0
 11
9.618568612556916
 21
-6.524056047322694
 31
0.0
  0
SOLID
  5
250
330
24A
100
AcDbEntity
  8
DIM
 62
     0
100
AcDbTrace
 10
7.925344664009835
 20
-7.363075285209163
 30
0.0
 11
7.955344664009834
 21
-7.415036809436227
 31
0.0
 12
8.096229236691034
 22
-7.299056047322695
 32
0.0
 13
8.096229236691034
 23
-7.299056047322695
 33
0.0
  0
SOLID
  5
251
330
24A
100
AcDbEntity
  8
DIM
 62
     0
100
AcDbTrace
 10
9.267684039875717
 20
-6.588075285209162
 30
0.0
 11
9.297684039875715
 21
-6.640036809436226
 31
0.0
 12
9.126799467194517
 22
-6.704056047322694
 32
0.0
 13
9.126799467194517
 23
-6.704056047322694
 33
0.0
  0
MTEXT
  5
252
330
24A
100
AcDbEntity
  8
DIM
 62
     0
100
AcDbMText
 10
10.46856861255691
 20
-6.524056047322694
 30
0.0
 40
0.14
 41
0.0
 71
     5
 72
     1
  1
\A1;60.45 [2.38in.]
  7
ROMANS
 73
     1
 44
1.0
  0
POINT
  5
253
330
24A
100
AcDbEntity
  8
DEFPOINTS
 62
     0
100
AcDbPoint
 10
8.984207654093752
 20
-8.83707978228881
 30
0.0
  0
POINT
  5
254
330
24A
100
AcDbEntity
  8
DEFPOINTS
 62
     0
100
AcDbPoint
 10
9.823466619900148
 20
-7.910718951773192
 30
0.0
  0
POINT
  5
255
330
24A
100
AcDbEntity
  8
DEFPOINTS
 62
     0
100
AcDbPoint
 10
9.126799467194517
 20
-6.704056047322694
 30
0.0
  0
ENDBLK
  5
257
330
24A
100
AcDbEntity
  8
0
100
AcDbBlockEnd
  0
BLOCK
  5
264
330
258
100
AcDbEntity
  8
0
100
AcDbBlockBegin
  2
*D5
 70
     1
 10
0.0
 20
0.0
 30
0.0
  3
*D5
  1

  0
LINE
  5
259
330
258
100
AcDbEntity
  8
DIM
 62
     0
370
    -2
100
AcDbLine
 10
8.954207654093755
 20
-8.889041306515876
 30
0.0
 11
8.102693260719338
 21
-10.36390749921655
 31
0.0
  0
LINE
  5
25A
330
258
100
AcDbEntity
  8
DIM
 62
     0
370
    -2
100
AcDbLine
 10
7.732326158893184
 20
-8.625402137031494
 30
0.0
 11
7.072123030215858
 21
-9.768907499216556
 31
0.0
  0
LINE
  5
25B
330
258
100
AcDbEntity
  8
DIM
 62
     0
370
    -2
100
AcDbLine
 10
8.323577833400538
 20
-10.34132419672457
 30
0.0
 11
8.479462406081736
 21
-10.43132419672458
 31
0.0
  0
LINE
  5
25C
330
258
100
AcDbEntity
  8
DIM
 62
     0
370
    -2
100
AcDbLine
 10
6.98123845753466
 20
-9.566324196724579
 30
0.0
 11
5.635597753214469
 21
-8.7894181738528
 31
0.0
  0
LINE
  5
25D
330
258
100
AcDbEntity
  8
DIM
 62
     0
370
    -2
100
AcDbLine
 10
5.635597753214469
 20
-8.7894181738528
 30
0.0
 11
5.455597753214469
 21
-8.7894181738528
 31
0.0
  0
SOLID
  5
25E
330
258
100
AcDbEntity
  8
DIM
 62
     0
100
AcDbTrace
 10
8.338577833400538
 20
-10.31534343461104
 30
0.0
 11
8.308577833400537
 21
-10.36730495883811
 31
0.0
 12
8.167693260719339
 22
-10.25132419672458
 32
0.0
 13
8.167693260719339
 23
-10.25132419672458
 33
0.0
  0
SOLID
  5
25F
330
258
100
AcDbEntity
  8
DIM
 62
     0
100
AcDbTrace
 10
6.996238457534659
 20
-9.540343434611045
 30
0.0
 11
6.966238457534659
 21
-9.592304958838113
 31
0.0
 12
7.137123030215859
 22
-9.656324196724579
 32
0.0
 13
7.137123030215859
 23
-9.656324196724579
 33
0.0
  0
MTEXT
  5
260
330
258
100
AcDbEntity
  8
DIM
 62
     0
100
AcDbMText
 10
4.605597753214469
 20
-8.7894181738528
 30
0.0
 40
0.14
 41
0.0
 71
     5
 72
     1
  1
\A1;60.45 [2.38in.]
  7
ROMANS
 73
     1
 44
1.0
  0
POINT
  5
261
330
258
100
AcDbEntity
  8
DEFPOINTS
 62
     0
100
AcDbPoint
 10
8.984207654093754
 20
-8.83707978228881
 30
0.0
  0
POINT
  5
262
330
258
100
AcDbEntity
  8
DEFPOINTS
 62
     0
100
AcDbPoint
 10
7.762326158893184
 20
-8.573440612804429
 30
0.0
  0
POINT
  5
263
330
258
100
AcDbEntity
  8
DEFPOINTS
 62
     0
100
AcDbPoint
 10
7.137123030215859
 20
-9.656324196724579
 30
0.0
  0
ENDBLK
  5
265
330
258
100
AcDbEntity
  8
0
100
AcDbBlockEnd
  0
BLOCK
  5
272
330
266
100
AcDbEntity
  8
0
100
AcDbBlockBegin
  2
*D6
 70
     1
 10
0.0
 20
0.0
 30
0.0
  3
*D6
  1

  0
LINE
  5
267
330
266
100
AcDbEntity
  8
DIM
 62
     0
370
    -2
100
AcDbLine
 10
5.127675864774173
 20
-6.168695674899291
 30
0.0
 11
6.143240688066748
 21
-6.755032299006778
 31
0.0
  0
LINE
  5
268
330
266
100
AcDbEntity
  8
DIM
 62
     0
370
    -2
100
AcDbLine
 10
4.74505333537999
 20
-6.831417335930527
 30
0.0
 11
5.760618158672565
 21
-7.417753960038014
 31
0.0
  0
LINE
  5
269
330
266
100
AcDbEntity
  8
DIM
 62
     0
370
    -2
100
AcDbLine
 10
6.12065738557477
 20
-6.534147726325579
 30
0.0
 11
6.210657385574771
 21
-6.37826315364438
 31
0.0
  0
LINE
  5
26A
330
266
100
AcDbEntity
  8
DIM
 62
     0
370
    -2
100
AcDbLine
 10
5.558034856180587
 20
-7.508638532719213
 30
0.0
 11
5.297971736435411
 21
-7.959081069292722
 31
0.0
  0
LINE
  5
26B
330
266
100
AcDbEntity
  8
DIM
 62
     0
370
    -2
100
AcDbLine
 10
5.297971736435411
 20
-7.959081069292722
 30
0.0
 11
5.117971736435411
 21
-7.959081069292722
 31
0.0
  0
SOLID
  5
26C
330
266
100
AcDbEntity
  8
DIM
 62
     0
100
AcDbTrace
 10
6.094676623461238
 20
-6.519147726325579
 30
0.0
 11
6.146638147688303
 21
-6.549147726325578
 31
0.0
 12
6.03065738557477
 22
-6.690032299006777
 32
0.0
 13
6.03065738557477
 23
-6.690032299006777
 33
0.0
  0
SOLID
  5
26D
330
266
100
AcDbEntity
  8
DIM
 62
     0
100
AcDbTrace
 10
5.532054094067055
 20
-7.493638532719213
 30
0.0
 11
5.584015618294119
 21
-7.523638532719212
 31
0.0
 12
5.648034856180586
 22
-7.352753960038014
 32
0.0
 13
5.648034856180586
 23
-7.352753960038014
 33
0.0
  0
MTEXT
  5
26E
330
266
100
AcDbEntity
  8
DIM
 62
     0
100
AcDbMText
 10
4.174638403102078
 20
-7.959081069292722
 30
0.0
 40
0.14
 41
0.0
 71
     5
 72
     1
  1
\A1;(38.87 [1.53in.])
  7
ROMANS
 73
     1
 44
1.0
  0
POINT
  5
26F
330
266
100
AcDbEntity
  8
DEFPOINTS
 62
     0
100
AcDbPoint
 10
5.075714340547107
 20
-6.138695674899292
 30
0.0
  0
POINT
  5
270
330
266
100
AcDbEntity
  8
DEFPOINTS
 62
     0
100
AcDbPoint
 10
4.693091811152925
 20
-6.801417335930528
 30
0.0
  0
POINT
  5
271
330
266
100
AcDbEntity
  8
DEFPOINTS
 62
     0
100
AcDbPoint
 10
5.648034856180586
 20
-7.352753960038014
 30
0.0
  0
ENDBLK
  5
273
330
266
100
AcDbEntity
  8
0
100
AcDbBlockEnd
  0
BLOCK
  5
280
330
274
100
AcDbEntity
  8
0
100
AcDbBlockBegin
  2
*D7
 70
     1
 10
0.0
 20
0.0
 30
0.0
  3
*D7
  1

  0
LINE
  5
275
330
274
100
AcDbEntity
  8
DIM
 62
     0
370
    -2
100
AcDbLine
 10
5.539403075850012
 20
-5.335563226457301
 30
0.0
 11
6.562800517297175
 21
-3.56298686153482
 31
0.0
  0
LINE
  5
276
330
274
100
AcDbEntity
  8
DIM
 62
     0
370
    -2
100
AcDbLine
 10
4.210757435275157
 20
-6.011844981187848
 30
0.0
 11
5.859154876722319
 21
-3.15673686153482
 31
0.0
  0
LINE
  5
277
330
274
100
AcDbEntity
  8
DIM
 62
     0
370
    -2
100
AcDbLine
 10
5.638270304041121
 20
-3.179320164026798
 30
0.0
 11
5.482385731359922
 21
-3.089320164026797
 31
0.0
  0
LINE
  5
278
330
274
100
AcDbEntity
  8
DIM
 62
     0
370
    -2
100
AcDbLine
 10
6.653685089978374
 20
-3.765570164026797
 30
0.0
 11
6.809569662659573
 21
-3.855570164026797
 31
0.0
  0
LINE
  5
279
330
274
100
AcDbEntity
  8
DIM
 62
     0
370
    -2
100
AcDbLine
 10
6.809569662659573
 20
-3.855570164026797
 30
0.0
 11
6.989569662659572
 21
-3.855570164026797
 31
0.0
  0
SOLID
  5
27A
330
274
100
AcDbEntity
  8
DIM
 62
     0
100
AcDbTrace
 10
5.653270304041121
 20
-3.153339401913264
 30
0.0
 11
5.62327030404112
 21
-3.20530092614033
 31
0.0
 12
5.79415487672232
 22
-3.269320164026797
 32
0.0
 13
5.79415487672232
 23
-3.269320164026797
 33
0.0
  0
SOLID
  5
27B
330
274
100
AcDbEntity
  8
DIM
 62
     0
100
AcDbTrace
 10
6.668685089978374
 20
-3.739589401913264
 30
0.0
 11
6.638685089978373
 21
-3.79155092614033
 31
0.0
 12
6.497800517297175
 22
-3.675570164026797
 32
0.0
 13
6.497800517297175
 23
-3.675570164026797
 33
0.0
  0
MTEXT
  5
27C
330
274
100
AcDbEntity
  8
DIM
 62
     0
100
AcDbMText
 10
7.976236329326239
 20
-3.855570164026797
 30
0.0
 40
0.14
 41
0.0
 71
     5
 72
     1
  1
\A1;41.275 [1.625in.]
  7
ROMANS
 73
     1
 44
1.0
  0
POINT
  5
27D
330
274
100
AcDbEntity
  8
DEFPOINTS
 62
     0
100
AcDbPoint
 10
5.509403075850012
 20
-5.387524750684367
 30
0.0
  0
POINT
  5
27E
330
274
100
AcDbEntity
  8
DEFPOINTS
 62
     0
100
AcDbPoint
 10
4.180757435275157
 20
-6.063806505414914
 30
0.0
  0
POINT
  5
27F
330
274
100
AcDbEntity
  8
DEFPOINTS
 62
     0
100
AcDbPoint
 10
5.79415487672232
 20
-3.269320164026797
 30
0.0
  0
ENDBLK
  5
281
330
274
100
AcDbEntity
  8
0
100
AcDbBlockEnd
  0
BLOCK
  5
28E
330
282
100
AcDbEntity
  8
0
100
AcDbBlockBegin
  2
*D8
 70
     1
 10
0.0
 20
0.0
 30
0.0
  3
*D8
  1

  0
LINE
  5
283
330
282
100
AcDbEntity
  8
DIM
 62
     0
370
    -2
100
AcDbLine
 10
5.539403075850012
 20
-5.335563226457301
 30
0.0
 11
6.305341360732222
 21
-4.00891920157915
 31
0.0
  0
LINE
  5
284
330
282
100
AcDbEntity
  8
DIM
 62
     0
370
    -2
100
AcDbLine
 10
3.777744733382935
 20
-5.761844981187847
 30
0.0
 11
5.168683018265145
 21
-3.352669201579148
 31
0.0
  0
LINE
  5
285
330
282
100
AcDbEntity
  8
DIM
 62
     0
370
    -2
100
AcDbLine
 10
4.947798445583946
 20
-3.375252504071125
 30
0.0
 11
4.791913872902746
 21
-3.285252504071125
 31
0.0
  0
LINE
  5
286
330
282
100
AcDbEntity
  8
DIM
 62
     0
370
    -2
100
AcDbLine
 10
6.39622593341342
 20
-4.211502504071126
 30
0.0
 11
6.55211050609462
 21
-4.301502504071127
 31
0.0
  0
LINE
  5
287
330
282
100
AcDbEntity
  8
DIM
 62
     0
370
    -2
100
AcDbLine
 10
6.55211050609462
 20
-4.301502504071127
 30
0.0
 11
6.73211050609462
 21
-4.301502504071127
 31
0.0
  0
SOLID
  5
288
330
282
100
AcDbEntity
  8
DIM
 62
     0
100
AcDbTrace
 10
4.962798445583946
 20
-3.349271741957592
 30
0.0
 11
4.932798445583946
 21
-3.401233266184659
 31
0.0
 12
5.103683018265145
 22
-3.465252504071125
 32
0.0
 13
5.103683018265145
 23
-3.465252504071125
 33
0.0
  0
SOLID
  5
289
330
282
100
AcDbEntity
  8
DIM
 62
     0
100
AcDbTrace
 10
6.41122593341342
 20
-4.185521741957593
 30
0.0
 11
6.38122593341342
 21
-4.23748326618466
 31
0.0
 12
6.240341360732221
 22
-4.121502504071126
 32
0.0
 13
6.240341360732221
 23
-4.121502504071126
 33
0.0
  0
MTEXT
  5
28A
330
282
100
AcDbEntity
  8
DIM
 62
     0
100
AcDbMText
 10
7.715443839427953
 20
-4.301502504071127
 30
0.0
 40
0.14
 41
0.0
 71
     5
 72
     1
  1
\A1;66.675 [2.625in.]
  7
ROMANS
 73
     1
 44
1.0
  0
POINT
  5
28B
330
282
100
AcDbEntity
  8
DEFPOINTS
 62
     0
100
AcDbPoint
 10
5.509403075850012
 20
-5.387524750684367
 30
0.0
  0
POINT
  5
28C
330
282
100
AcDbEntity
  8
DEFPOINTS
 62
     0
100
AcDbPoint
 10
3.747744733382935
 20
-5.813806505414913
 30
0.0
  0
POINT
  5
28D
330
282
100
AcDbEntity
  8
DEFPOINTS
 62
     0
100
AcDbPoint
 10
5.103683018265145
 20
-3.465252504071125
 30
0.0
  0
ENDBLK
  5
28F
330
282
100
AcDbEntity
  8
0
100
AcDbBlockEnd
  0
BLOCK
  5
29C
330
290
100
AcDbEntity
  8
0
100
AcDbBlockBegin
  2
*D9
 70
     1
 10
0.0
 20
0.0
 30
0.0
  3
*D9
  1

  0
LINE
  5
291
330
290
100
AcDbEntity
  8
DIM
 62
     0
370
    -2
100
AcDbLine
 10
5.539403075850012
 20
-5.335563226457301
 30
0.0
 11
6.081852531769891
 21
-4.396013208265976
 31
0.0
  0
LINE
  5
292
330
290
100
AcDbEntity
  8
DIM
 62
     0
370
    -2
100
AcDbLine
 10
3.34473203149072
 20
-5.511844981187847
 30
0.0
 11
4.512181487410598
 21
-3.489763208265977
 31
0.0
  0
LINE
  5
293
330
290
100
AcDbEntity
  8
DIM
 62
     0
370
    -2
100
AcDbLine
 10
4.291296914729399
 20
-3.512346510757954
 30
0.0
 11
4.1354123420482
 21
-3.422346510757954
 31
0.0
  0
LINE
  5
294
330
290
100
AcDbEntity
  8
DIM
 62
     0
370
    -2
100
AcDbLine
 10
6.17273710445109
 20
-4.598596510757953
 30
0.0
 11
6.328621677132288
 21
-4.688596510757953
 31
0.0
  0
LINE
  5
295
330
290
100
AcDbEntity
  8
DIM
 62
     0
370
    -2
100
AcDbLine
 10
6.328621677132288
 20
-4.688596510757953
 30
0.0
 11
6.508621677132288
 21
-4.688596510757953
 31
0.0
  0
SOLID
  5
296
330
290
100
AcDbEntity
  8
DIM
 62
     0
100
AcDbTrace
 10
4.306296914729399
 20
-3.486365748644421
 30
0.0
 11
4.2762969147294
 21
-3.538327272871487
 31
0.0
 12
4.447181487410598
 22
-3.602346510757954
 32
0.0
 13
4.447181487410598
 23
-3.602346510757954
 33
0.0
  0
SOLID
  5
297
330
290
100
AcDbEntity
  8
DIM
 62
     0
100
AcDbTrace
 10
6.187737104451089
 20
-4.57261574864442
 30
0.0
 11
6.15773710445109
 21
-4.624577272871486
 31
0.0
 12
6.016852531769891
 22
-4.508596510757953
 32
0.0
 13
6.016852531769891
 23
-4.508596510757953
 33
0.0
  0
MTEXT
  5
298
330
290
100
AcDbEntity
  8
DIM
 62
     0
100
AcDbMText
 10
7.495288343798955
 20
-4.688596510757953
 30
0.0
 40
0.14
 41
0.0
 71
     5
 72
     1
  1
\A1;92.075 [3.625in.]
  7
ROMANS
 73
     1
 44
1.0
  0
POINT
  5
299
330
290
100
AcDbEntity
  8
DEFPOINTS
 62
     0
100
AcDbPoint
 10
5.509403075850012
 20
-5.387524750684367
 30
0.0
  0
POINT
  5
29A
330
290
100
AcDbEntity
  8
DEFPOINTS
 62
     0
100
AcDbPoint
 10
3.31473203149072
 20
-5.563806505414914
 30
0.0
  0
POINT
  5
29B
330
290
100
AcDbEntity
  8
DEFPOINTS
 62
     0
100
AcDbPoint
 10
4.447181487410598
 20
-3.602346510757954
 30
0.0
  0
ENDBLK
  5
29D
330
290
100
AcDbEntity
  8
0
100
AcDbBlockEnd
  0
BLOCK
  5
2AA
330
29E
100
AcDbEntity
  8
0
100
AcDbBlockBegin
  2
*D10
 70
     1
 10
0.0
 20
0.0
 30
0.0
  3
*D10
  1

  0
LINE
  5
29F
330
29E
100
AcDbEntity
  8
DIM
 62
     0
370
    -2
100
AcDbLine
 10
10.29420765409375
 20
-12.78122582172138
 30
0.0
 11
14.23599749043008
 21
-12.78122582172138
 31
0.0
  0
LINE
  5
2A0
330
29E
100
AcDbEntity
  8
DIM
 62
     0
370
    -2
100
AcDbLine
 10
9.044207654093767
 20
-13.59372582172138
 30
0.0
 11
14.23599749043008
 21
-13.59372582172138
 31
0.0
  0
LINE
  5
2A1
330
29E
100
AcDbEntity
  8
DIM
 62
     0
370
    -2
100
AcDbLine
 10
14.10599749043008
 20
-13.77372582172138
 30
0.0
 11
14.10599749043008
 21
-13.95372582172138
 31
0.0
  0
LINE
  5
2A2
330
29E
100
AcDbEntity
  8
DIM
 62
     0
370
    -2
100
AcDbLine
 10
14.10599749043008
 20
-12.60122582172138
 30
0.0
 11
14.10599749043008
 21
-12.17964719710517
 31
0.0
  0
LINE
  5
2A3
330
29E
100
AcDbEntity
  8
DIM
 62
     0
370
    -2
100
AcDbLine
 10
14.10599749043008
 20
-12.17964719710517
 30
0.0
 11
14.28599749043008
 21
-12.17964719710517
 31
0.0
  0
SOLID
  5
2A4
330
29E
100
AcDbEntity
  8
DIM
 62
     0
100
AcDbTrace
 10
14.07599749043008
 20
-13.77372582172138
 30
0.0
 11
14.13599749043008
 21
-13.77372582172138
 31
0.0
 12
14.10599749043008
 22
-13.59372582172138
 32
0.0
 13
14.10599749043008
 23
-13.59372582172138
 33
0.0
  0
SOLID
  5
2A5
330
29E
100
AcDbEntity
  8
DIM
 62
     0
100
AcDbTrace
 10
14.07599749043008
 20
-12.60122582172138
 30
0.0
 11
14.13599749043008
 21
-12.60122582172138
 31
0.0
 12
14.10599749043008
 22
-12.78122582172138
 32
0.0
 13
14.10599749043008
 23
-12.78122582172138
 33
0.0
  0
MTEXT
  5
2A6
330
29E
100
AcDbEntity
  8
DIM
 62
     0
100
AcDbMText
 10
15.27266415709675
 20
-12.17964719710517
 30
0.0
 40
0.14
 41
0.0
 71
     5
 72
     1
  1
\A1;41.275 [1.625in.]
  7
ROMANS
 73
     1
 44
1.0
  0
POINT
  5
2A7
330
29E
100
AcDbEntity
  8
DEFPOINTS
 62
     0
100
AcDbPoint
 10
10.23420765409375
 20
-12.78122582172138
 30
0.0
  0
POINT
  5
2A8
330
29E
100
AcDbEntity
  8
DEFPOINTS
 62
     0
100
AcDbPoint
 10
8.984207654093767
 20
-13.59372582172138
 30
0.0
  0
POINT
  5
2A9
330
29E
100
AcDbEntity
  8
DEFPOINTS
 62
     0
100
AcDbPoint
 10
14.10599749043008
 20
-13.59372582172138
 30
0.0
  0
ENDBLK
  5
2AB
330
29E
100
AcDbEntity
  8
0
100
AcDbBlockEnd
  0
BLOCK
  5
2B8
330
2AC
100
AcDbEntity
  8
0
100
AcDbBlockBegin
  2
*D11
 70
     1
 10
0.0
 20
0.0
 30
0.0
  3
*D11
  1

  0
LINE
  5
2AD
330
2AC
100
AcDbEntity
  8
DIM
 62
     0
370
    -2
100
AcDbLine
 10
10.29420765409375
 20
-12.78122582172138
 30
0.0
 11
13.4807196656402
 21
-12.78122582172138
 31
0.0
  0
LINE
  5
2AE
330
2AC
100
AcDbEntity
  8
DIM
 62
     0
370
    -2
100
AcDbLine
 10
9.044207654093767
 20
-14.09372582172138
 30
0.0
 11
13.4807196656402
 21
-14.09372582172138
 31
0.0
  0
LINE
  5
2AF
330
2AC
100
AcDbEntity
  8
DIM
 62
     0
370
    -2
100
AcDbLine
 10
13.3507196656402
 20
-12.60122582172138
 30
0.0
 11
13.3507196656402
 21
-12.42122582172138
 31
0.0
  0
LINE
  5
2B0
330
2AC
100
AcDbEntity
  8
DIM
 62
     0
370
    -2
100
AcDbLine
 10
13.3507196656402
 20
-14.27372582172138
 30
0.0
 11
13.3507196656402
 21
-15.50356982213698
 31
0.0
  0
LINE
  5
2B1
330
2AC
100
AcDbEntity
  8
DIM
 62
     0
370
    -2
100
AcDbLine
 10
13.3507196656402
 20
-15.50356982213698
 30
0.0
 11
13.1707196656402
 21
-15.50356982213698
 31
0.0
  0
SOLID
  5
2B2
330
2AC
100
AcDbEntity
  8
DIM
 62
     0
100
AcDbTrace
 10
13.3207196656402
 20
-12.60122582172138
 30
0.0
 11
13.3807196656402
 21
-12.60122582172138
 31
0.0
 12
13.3507196656402
 22
-12.78122582172138
 32
0.0
 13
13.3507196656402
 23
-12.78122582172138
 33
0.0
  0
SOLID
  5
2B3
330
2AC
100
AcDbEntity
  8
DIM
 62
     0
100
AcDbTrace
 10
13.3207196656402
 20
-14.27372582172138
 30
0.0
 11
13.3807196656402
 21
-14.27372582172138
 31
0.0
 12
13.3507196656402
 22
-14.09372582172138
 32
0.0
 13
13.3507196656402
 23
-14.09372582172138
 33
0.0
  0
MTEXT
  5
2B4
330
2AC
100
AcDbEntity
  8
DIM
 62
     0
100
AcDbMText
 10
12.18738633230687
 20
-15.50356982213698
 30
0.0
 40
0.14
 41
0.0
 71
     5
 72
     1
  1
\A1;66.675 [2.625in.]
  7
ROMANS
 73
     1
 44
1.0
  0
POINT
  5
2B5
330
2AC
100
AcDbEntity
  8
DEFPOINTS
 62
     0
100
AcDbPoint
 10
10.23420765409375
 20
-12.78122582172138
 30
0.0
  0
POINT
  5
2B6
330
2AC
100
AcDbEntity
  8
DEFPOINTS
 62
     0
100
AcDbPoint
 10
8.984207654093767
 20
-14.09372582172138
 30
0.0
  0
POINT
  5
2B7
330
2AC
100
AcDbEntity
  8
DEFPOINTS
 62
     0
100
AcDbPoint
 10
13.3507196656402
 20
-14.09372582172138
 30
0.0
  0
ENDBLK
  5
2B9
330
2AC
100
AcDbEntity
  8
0
100
AcDbBlockEnd
  0
BLOCK
  5
2C6
330
2BA
100
AcDbEntity
  8
0
100
AcDbBlockBegin
  2
*D12
 70
     1
 10
0.0
 20
0.0
 30
0.0
  3
*D12
  1

  0
LINE
  5
2BB
330
2BA
100
AcDbEntity
  8
DIM
 62
     0
370
    -2
100
AcDbLine
 10
10.29420765409375
 20
-12.78122582172138
 30
0.0
 11
12.75427681935282
 21
-12.78122582172138
 31
0.0
  0
LINE
  5
2BC
330
2BA
100
AcDbEntity
  8
DIM
 62
     0
370
    -2
100
AcDbLine
 10
9.044207654093767
 20
-14.59372582172138
 30
0.0
 11
12.75427681935282
 21
-14.59372582172138
 31
0.0
  0
LINE
  5
2BD
330
2BA
100
AcDbEntity
  8
DIM
 62
     0
370
    -2
100
AcDbLine
 10
12.62427681935282
 20
-12.60122582172138
 30
0.0
 11
12.62427681935282
 21
-12.42122582172138
 31
0.0
  0
LINE
  5
2BE
330
2BA
100
AcDbEntity
  8
DIM
 62
     0
370
    -2
100
AcDbLine
 10
12.62427681935282
 20
-14.77372582172138
 30
0.0
 11
12.62427681935282
 21
-15.14314966782979
 31
0.0
  0
LINE
  5
2BF
330
2BA
100
AcDbEntity
  8
DIM
 62
     0
370
    -2
100
AcDbLine
 10
12.62427681935282
 20
-15.14314966782979
 30
0.0
 11
12.44427681935282
 21
-15.14314966782979
 31
0.0
  0
SOLID
  5
2C0
330
2BA
100
AcDbEntity
  8
DIM
 62
     0
100
AcDbTrace
 10
12.59427681935282
 20
-12.60122582172138
 30
0.0
 11
12.65427681935282
 21
-12.60122582172138
 31
0.0
 12
12.62427681935282
 22
-12.78122582172138
 32
0.0
 13
12.62427681935282
 23
-12.78122582172138
 33
0.0
  0
SOLID
  5
2C1
330
2BA
100
AcDbEntity
  8
DIM
 62
     0
100
AcDbTrace
 10
12.59427681935282
 20
-14.77372582172138
 30
0.0
 11
12.65427681935282
 21
-14.77372582172138
 31
0.0
 12
12.62427681935282
 22
-14.59372582172138
 32
0.0
 13
12.62427681935282
 23
-14.59372582172138
 33
0.0
  0
MTEXT
  5
2C2
330
2BA
100
AcDbEntity
  8
DIM
 62
     0
100
AcDbMText
 10
11.45761015268615
 20
-15.14314966782978
 30
0.0
 40
0.14
 41
0.0
 71
     5
 72
     1
  1
\A1;92.075 [3.625in.]
  7
ROMANS
 73
     1
 44
1.0
  0
POINT
  5
2C3
330
2BA
100
AcDbEntity
  8
DEFPOINTS
 62
     0
100
AcDbPoint
 10
10.23420765409375
 20
-12.78122582172138
 30
0.0
  0
POINT
  5
2C4
330
2BA
100
AcDbEntity
  8
DEFPOINTS
 62
     0
100
AcDbPoint
 10
8.984207654093767
 20
-14.59372582172138
 30
0.0
  0
POINT
  5
2C5
330
2BA
100
AcDbEntity
  8
DEFPOINTS
 62
     0
100
AcDbPoint
 10
12.62427681935282
 20
-14.59372582172138
 30
0.0
  0
ENDBLK
  5
2C7
330
2BA
100
AcDbEntity
  8
0
100
AcDbBlockEnd
  0
BLOCK
  5
2D3
330
2C8
100
AcDbEntity
  8
0
100
AcDbBlockBegin
  2
*D13
 70
     1
 10
0.0
 20
0.0
 30
0.0
  3
*D13
  1

  0
LINE
  5
2C9
330
2C8
100
AcDbEntity
  8
DIM
 62
     0
370
    -2
100
AcDbLine
 10
13.38876098166622
 20
-7.489158753201865
 30
0.0
 11
13.38876098166622
 21
-7.120098641531821
 31
0.0
  0
LINE
  5
2CA
330
2C8
100
AcDbEntity
  8
DIM
 62
     0
370
    -2
100
AcDbLine
 10
15.88876098166622
 20
-7.489158753201865
 30
0.0
 11
15.88876098166622
 21
-7.120098641531821
 31
0.0
  0
LINE
  5
2CB
330
2C8
100
AcDbEntity
  8
DIM
 62
     0
370
    -2
100
AcDbLine
 10
13.56876098166622
 20
-7.25009864153182
 30
0.0
 11
13.75588911880708
 21
-7.25009864153182
 31
0.0
  0
LINE
  5
2CC
330
2C8
100
AcDbEntity
  8
DIM
 62
     0
370
    -2
100
AcDbLine
 10
15.70876098166622
 20
-7.25009864153182
 30
0.0
 11
15.57588911880708
 21
-7.25009864153182
 31
0.0
  0
SOLID
  5
2CD
330
2C8
100
AcDbEntity
  8
DIM
 62
     0
100
AcDbTrace
 10
13.56876098166622
 20
-7.22009864153182
 30
0.0
 11
13.56876098166622
 21
-7.280098641531821
 31
0.0
 12
13.38876098166622
 22
-7.25009864153182
 32
0.0
 13
13.38876098166622
 23
-7.25009864153182
 33
0.0
  0
SOLID
  5
2CE
330
2C8
100
AcDbEntity
  8
DIM
 62
     0
100
AcDbTrace
 10
15.70876098166622
 20
-7.22009864153182
 30
0.0
 11
15.70876098166622
 21
-7.280098641531821
 31
0.0
 12
15.88876098166622
 22
-7.25009864153182
 32
0.0
 13
15.88876098166622
 23
-7.25009864153182
 33
0.0
  0
MTEXT
  5
2CF
330
2C8
100
AcDbEntity
  8
DIM
 62
     0
100
AcDbMText
 10
14.66588911880708
 20
-7.25009864153182
 30
0.0
 40
0.14
 41
0.0
 71
     5
 72
     1
  1
\A1;127.00 [5.00in.]
  7
ROMANS
 73
     1
 44
1.0
  0
POINT
  5
2D0
330
2C8
100
AcDbEntity
  8
DEFPOINTS
 62
     0
100
AcDbPoint
 10
13.38876098166622
 20
-7.549158753201865
 30
0.0
  0
POINT
  5
2D1
330
2C8
100
AcDbEntity
  8
DEFPOINTS
 62
     0
100
AcDbPoint
 10
15.88876098166622
 20
-7.549158753201865
 30
0.0
  0
POINT
  5
2D2
330
2C8
100
AcDbEntity
  8
DEFPOINTS
 62
     0
100
AcDbPoint
 10
15.88876098166622
 20
-7.25009864153182
 30
0.0
  0
ENDBLK
  5
2D4
330
2C8
100
AcDbEntity
  8
0
100
AcDbBlockEnd
  0
BLOCK
  5
2E2
330
2D5
100
AcDbEntity
  8
0
100
AcDbBlockBegin
  2
*D14
 70
     1
 10
0.0
 20
0.0
 30
0.0
  3
*D14
  1

  0
LINE
  5
2D6
330
2D5
100
AcDbEntity
  8
DIM
 62
     0
370
    -2
100
AcDbLine
 10
8.360430995329705
 20
-9.526864299352773
 30
0.0
 11
7.562189943238413
 21
-10.40957497933943
 31
0.0
  0
LINE
  5
2D7
330
2D5
100
AcDbEntity
  8
DIM
 62
     0
370
    -2
100
AcDbLine
 10
7.562189943238413
 20
-10.40957497933943
 30
0.0
 11
7.382189943238413
 21
-10.40957497933943
 31
0.0
  0
SOLID
  5
2D8
330
2D5
100
AcDbEntity
  8
DIM
 62
     0
100
AcDbTrace
 10
8.33817988187603
 20
-9.506742471650706
 30
0.0
 11
8.382682108783381
 21
-9.546986127054838
 31
0.0
 12
8.481161961542101
 22
-9.393357618630716
 32
0.0
 13
8.481161961542101
 23
-9.393357618630716
 33
0.0
  0
MTEXT
  5
2D9
330
2D5
100
AcDbEntity
  8
DIM
 62
     0
100
AcDbMText
 10
5.365523276571749
 20
-10.40957497933943
 30
0.0
 40
0.14
 41
0.0
 71
     5
 72
     1
  1
\A1;\U+220576.20±.05 [\U+22053.00in.±0.00in.] THRU
  7
ROMANS
 73
     1
 44
1.0
  0
LINE
  5
2DA
330
2D5
100
AcDbEntity
  8
DIM
 62
     0
370
    -2
100
AcDbLine
 10
8.924207654093747
 20
-8.837079782288814
 30
0.0
 11
9.044207654093749
 21
-8.837079782288814
 31
0.0
  0
LINE
  5
2DB
330
2D5
100
AcDbEntity
  8
DIM
 62
     0
370
    -2
100
AcDbLine
 10
8.984207654093747
 20
-8.897079782288814
 30
0.0
 11
8.984207654093747
 21
-8.777079782288815
 31
0.0
  0
LINE
  5
2DC
330
2D5
100
AcDbEntity
  8
DIM
 62
     0
370
    -2
100
AcDbLine
 10
8.86420765409375
 20
-8.837079782288814
 30
0.0
 11
-29.17579234590604
 21
-8.837079782288812
 31
0.0
  0
LINE
  5
2DD
330
2D5
100
AcDbEntity
  8
DIM
 62
     0
370
    -2
100
AcDbLine
 10
9.104207654093748
 20
-8.837079782288816
 30
0.0
 11
47.14420765409354
 21
-8.837079782288814
 31
0.0
  0
LINE
  5
2DE
330
2D5
100
AcDbEntity
  8
DIM
 62
     0
370
    -2
100
AcDbLine
 10
8.984207654093747
 20
-8.957079782288815
 30
0.0
 11
8.984207654093744
 21
-46.99707978228861
 31
0.0
  0
LINE
  5
2DF
330
2D5
100
AcDbEntity
  8
DIM
 62
     0
370
    -2
100
AcDbLine
 10
8.984207654093747
 20
-8.717079782288815
 30
0.0
 11
8.984207654093745
 21
29.32292021771098
 31
0.0
  0
POINT
  5
2E0
330
2D5
100
AcDbEntity
  8
DEFPOINTS
 62
     0
100
AcDbPoint
 10
8.481161961542101
 20
-9.393357618630716
 30
0.0
  0
POINT
  5
2E1
330
2D5
100
AcDbEntity
  8
DEFPOINTS
 62
     0
100
AcDbPoint
 10
9.487253346645394
 20
-8.280801945946912
 30
0.0
  0
ENDBLK
  5
2E3
330
2D5
100
AcDbEntity
  8
0
100
AcDbBlockEnd
  0
BLOCK
  5
2F1
330
2E4
100
AcDbEntity
  8
0
100
AcDbBlockBegin
  2
*D15
 70
     1
 10
0.0
 20
0.0
 30
0.0
  3
*D15
  1

  0
LINE
  5
2E5
330
2E4
100
AcDbEntity
  8
DIM
 62
     0
370
    -2
100
AcDbLine
 10
8.693521213121393
 20
-9.980714948342569
 30
0.0
 11
8.465323200867974
 21
-10.87850457610643
 31
0.0
  0
LINE
  5
2E6
330
2E4
100
AcDbEntity
  8
DIM
 62
     0
370
    -2
100
AcDbLine
 10
8.465323200867974
 20
-10.87850457610643
 30
0.0
 11
8.285323200867976
 21
-10.87850457610643
 31
0.0
  0
SOLID
  5
2E7
330
2E4
100
AcDbEntity
  8
DIM
 62
     0
100
AcDbTrace
 10
8.664445742797994
 20
-9.97332461509751
 30
0.0
 11
8.722596683444795
 21
-9.98810528158763
 31
0.0
 12
8.737863212591754
 22
-9.806262126402165
 32
0.0
 13
8.737863212591754
 23
-9.806262126402165
 33
0.0
  0
MTEXT
  5
2E8
330
2E4
100
AcDbEntity
  8
DIM
 62
     0
100
AcDbMText
 10
7.238656534201311
 20
-10.87850457610643
 30
0.0
 40
0.14
 41
0.0
 71
     5
 72
     1
  1
\A1;\U+2205101.60 [\U+22054.00in.]
  7
ROMANS
 73
     1
 44
1.0
  0
LINE
  5
2E9
330
2E4
100
AcDbEntity
  8
DIM
 62
     0
370
    -2
100
AcDbLine
 10
8.92420765409375
 20
-8.83707978228881
 30
0.0
 11
9.044207654093751
 21
-8.83707978228881
 31
0.0
  0
LINE
  5
2EA
330
2E4
100
AcDbEntity
  8
DIM
 62
     0
370
    -2
100
AcDbLine
 10
8.984207654093751
 20
-8.897079782288811
 30
0.0
 11
8.984207654093752
 21
-8.777079782288812
 31
0.0
  0
LINE
  5
2EB
330
2E4
100
AcDbEntity
  8
DIM
 62
     0
370
    -2
100
AcDbLine
 10
8.864207654093753
 20
-8.83707978228881
 30
0.0
 11
-41.87579234590597
 21
-8.837079782288807
 31
0.0
  0
LINE
  5
2EC
330
2E4
100
AcDbEntity
  8
DIM
 62
     0
370
    -2
100
AcDbLine
 10
9.10420765409375
 20
-8.83707978228881
 30
0.0
 11
59.84420765409348
 21
-8.83707978228881
 31
0.0
  0
LINE
  5
2ED
330
2E4
100
AcDbEntity
  8
DIM
 62
     0
370
    -2
100
AcDbLine
 10
8.984207654093752
 20
-8.957079782288809
 30
0.0
 11
8.984207654093745
 21
-59.69707978228854
 31
0.0
  0
LINE
  5
2EE
330
2E4
100
AcDbEntity
  8
DIM
 62
     0
370
    -2
100
AcDbLine
 10
8.984207654093751
 20
-8.717079782288811
 30
0.0
 11
8.984207654093752
 21
42.02292021771092
 31
0.0
  0
POINT
  5
2EF
330
2E4
100
AcDbEntity
  8
DEFPOINTS
 62
     0
100
AcDbPoint
 10
8.737863212591754
 20
-9.806262126402165
 30
0.0
  0
POINT
  5
2F0
330
2E4
100
AcDbEntity
  8
DEFPOINTS
 62
     0
100
AcDbPoint
 10
9.230552095595749
 20
-7.867897438175456
 30
0.0
  0
ENDBLK
  5
2F2
330
2E4
100
AcDbEntity
  8
0
100
AcDbBlockEnd
  0
BLOCK
  5
2FF
330
2F3
100
AcDbEntity
  8
0
100
AcDbBlockBegin
  2
*D16
 70
     1
 10
0.0
 20
0.0
 30
0.0
  3
*D16
  1

  0
LINE
  5
2F4
330
2F3
100
AcDbEntity
  8
DIM
 62
     0
370
    -2
100
AcDbLine
 10
14.88289019519226
 20
-5.362191797018654
 30
0.0
 11
13.50833778848553
 21
-2.981397190936515
 31
0.0
  0
LINE
  5
2F5
330
2F3
100
AcDbEntity
  8
DIM
 62
     0
370
    -2
100
AcDbLine
 10
13.5542445546174
 20
-4.685910042288109
 30
0.0
 11
12.80469214791067
 21
-3.387647190936516
 31
0.0
  0
LINE
  5
2F6
330
2F3
100
AcDbEntity
  8
DIM
 62
     0
370
    -2
100
AcDbLine
 10
13.72922236116673
 20
-3.003980493428493
 30
0.0
 11
13.88510693384793
 21
-2.913980493428493
 31
0.0
  0
LINE
  5
2F7
330
2F3
100
AcDbEntity
  8
DIM
 62
     0
370
    -2
100
AcDbLine
 10
12.71380757522947
 20
-3.590230493428493
 30
0.0
 11
12.55169365676884
 21
-3.683827007891124
 31
0.0
  0
LINE
  5
2F8
330
2F3
100
AcDbEntity
  8
DIM
 62
     0
370
    -2
100
AcDbLine
 10
12.55169365676884
 20
-3.683827007891124
 30
0.0
 11
12.37169365676884
 21
-3.683827007891124
 31
0.0
  0
SOLID
  5
2F9
330
2F3
100
AcDbEntity
  8
DIM
 62
     0
100
AcDbTrace
 10
13.71422236116673
 20
-2.977999731314959
 30
0.0
 11
13.74422236116672
 21
-3.029961255542025
 31
0.0
 12
13.57333778848553
 22
-3.093980493428492
 32
0.0
 13
13.57333778848553
 23
-3.093980493428492
 33
0.0
  0
SOLID
  5
2FA
330
2F3
100
AcDbEntity
  8
DIM
 62
     0
100
AcDbTrace
 10
12.69880757522947
 20
-3.564249731314959
 30
0.0
 11
12.72880757522947
 21
-3.616211255542025
 31
0.0
 12
12.86969214791067
 22
-3.500230493428493
 32
0.0
 13
12.86969214791067
 23
-3.500230493428493
 33
0.0
  0
MTEXT
  5
2FB
330
2F3
100
AcDbEntity
  8
DIM
 62
     0
100
AcDbMText
 10
11.38502699010217
 20
-3.683827007891125
 30
0.0
 40
0.14
 41
0.0
 71
     5
 72
     1
  1
\A1;41.275 [1.625in.]
  7
ROMANS
 73
     1
 44
1.0
  0
POINT
  5
2FC
330
2F3
100
AcDbEntity
  8
DEFPOINTS
 62
     0
100
AcDbPoint
 10
14.91289019519226
 20
-5.414153321245722
 30
0.0
  0
POINT
  5
2FD
330
2F3
100
AcDbEntity
  8
DEFPOINTS
 62
     0
100
AcDbPoint
 10
13.5842445546174
 20
-4.737871566515177
 30
0.0
  0
POINT
  5
2FE
330
2F3
100
AcDbEntity
  8
DEFPOINTS
 62
     0
100
AcDbPoint
 10
12.86969214791067
 20
-3.500230493428493
 30
0.0
  0
ENDBLK
  5
300
330
2F3
100
AcDbEntity
  8
0
100
AcDbBlockEnd
  0
BLOCK
  5
30D
330
301
100
AcDbEntity
  8
0
100
AcDbBlockBegin
  2
*D17
 70
     1
 10
0.0
 20
0.0
 30
0.0
  3
*D17
  1

  0
LINE
  5
302
330
301
100
AcDbEntity
  8
DIM
 62
     0
370
    -2
100
AcDbLine
 10
15.31590289708448
 20
-5.112191797018653
 30
0.0
 11
14.15323926468954
 21
-3.098399313598044
 31
0.0
  0
LINE
  5
303
330
301
100
AcDbEntity
  8
DIM
 62
     0
370
    -2
100
AcDbLine
 10
13.5542445546174
 20
-4.685910042288109
 30
0.0
 11
13.01658092222247
 21
-3.754649313598044
 31
0.0
  0
LINE
  5
304
330
301
100
AcDbEntity
  8
DIM
 62
     0
370
    -2
100
AcDbLine
 10
14.37412383737074
 20
-3.120982616090019
 30
0.0
 11
14.53000841005194
 21
-3.030982616090019
 31
0.0
  0
LINE
  5
305
330
301
100
AcDbEntity
  8
DIM
 62
     0
370
    -2
100
AcDbLine
 10
12.92569634954127
 20
-3.95723261609002
 30
0.0
 11
12.75576052634588
 21
-4.055345109356836
 31
0.0
  0
LINE
  5
306
330
301
100
AcDbEntity
  8
DIM
 62
     0
370
    -2
100
AcDbLine
 10
12.75576052634588
 20
-4.055345109356836
 30
0.0
 11
12.57576052634588
 21
-4.055345109356836
 31
0.0
  0
SOLID
  5
307
330
301
100
AcDbEntity
  8
DIM
 62
     0
100
AcDbTrace
 10
14.35912383737074
 20
-3.095001853976487
 30
0.0
 11
14.38912383737074
 21
-3.146963378203551
 31
0.0
 12
14.21823926468954
 22
-3.210982616090019
 32
0.0
 13
14.21823926468954
 23
-3.210982616090019
 33
0.0
  0
SOLID
  5
308
330
301
100
AcDbEntity
  8
DIM
 62
     0
100
AcDbTrace
 10
12.91069634954127
 20
-3.931251853976488
 30
0.0
 11
12.94069634954126
 21
-3.983213378203552
 31
0.0
 12
13.08158092222246
 22
-3.86723261609002
 32
0.0
 13
13.08158092222246
 23
-3.86723261609002
 33
0.0
  0
MTEXT
  5
309
330
301
100
AcDbEntity
  8
DIM
 62
     0
100
AcDbMText
 10
11.59242719301255
 20
-4.055345109356838
 30
0.0
 40
0.14
 41
0.0
 71
     5
 72
     1
  1
\A1;66.675 [2.625in.]
  7
ROMANS
 73
     1
 44
1.0
  0
POINT
  5
30A
330
301
100
AcDbEntity
  8
DEFPOINTS
 62
     0
100
AcDbPoint
 10
15.34590289708448
 20
-5.16415332124572
 30
0.0
  0
POINT
  5
30B
330
301
100
AcDbEntity
  8
DEFPOINTS
 62
     0
100
AcDbPoint
 10
13.5842445546174
 20
-4.737871566515177
 30
0.0
  0
POINT
  5
30C
330
301
100
AcDbEntity
  8
DEFPOINTS
 62
     0
100
AcDbPoint
 10
13.08158092222246
 20
-3.86723261609002
 30
0.0
  0
ENDBLK
  5
30E
330
301
100
AcDbEntity
  8
0
100
AcDbBlockEnd
  0
BLOCK
  5
31B
330
30F
100
AcDbEntity
  8
0
100
AcDbBlockBegin
  2
*D18
 70
     1
 10
0.0
 20
0.0
 30
0.0
  3
*D18
  1

  0
LINE
  5
310
330
30F
100
AcDbEntity
  8
DIM
 62
     0
370
    -2
100
AcDbLine
 10
15.7489155989767
 20
-4.862191797018649
 30
0.0
 11
14.79174535741657
 21
-3.204324307143535
 31
0.0
  0
LINE
  5
311
330
30F
100
AcDbEntity
  8
DIM
 62
     0
370
    -2
100
AcDbLine
 10
13.5542445546174
 20
-4.685910042288109
 30
0.0
 11
13.22207431305727
 21
-4.110574307143537
 31
0.0
  0
LINE
  5
312
330
30F
100
AcDbEntity
  8
DIM
 62
     0
370
    -2
100
AcDbLine
 10
15.01262993009777
 20
-3.226907609635512
 30
0.0
 11
15.16851450277897
 21
-3.136907609635512
 31
0.0
  0
LINE
  5
313
330
30F
100
AcDbEntity
  8
DIM
 62
     0
370
    -2
100
AcDbLine
 10
13.13118974037607
 20
-4.313157609635514
 30
0.0
 11
12.94921060824165
 21
-4.418223310560219
 31
0.0
  0
LINE
  5
314
330
30F
100
AcDbEntity
  8
DIM
 62
     0
370
    -2
100
AcDbLine
 10
12.94921060824165
 20
-4.418223310560219
 30
0.0
 11
12.76921060824165
 21
-4.418223310560219
 31
0.0
  0
SOLID
  5
315
330
30F
100
AcDbEntity
  8
DIM
 62
     0
100
AcDbTrace
 10
14.99762993009777
 20
-3.20092684752198
 30
0.0
 11
15.02762993009777
 21
-3.252888371749044
 31
0.0
 12
14.85674535741657
 22
-3.316907609635512
 32
0.0
 13
14.85674535741657
 23
-3.316907609635512
 33
0.0
  0
SOLID
  5
316
330
30F
100
AcDbEntity
  8
DIM
 62
     0
100
AcDbTrace
 10
13.11618974037608
 20
-4.287176847521982
 30
0.0
 11
13.14618974037607
 21
-4.339138371749046
 31
0.0
 12
13.28707431305727
 22
-4.223157609635515
 32
0.0
 13
13.28707431305727
 23
-4.223157609635515
 33
0.0
  0
MTEXT
  5
317
330
30F
100
AcDbEntity
  8
DIM
 62
     0
100
AcDbMText
 10
11.78254394157498
 20
-4.41822331056022
 30
0.0
 40
0.14
 41
0.0
 71
     5
 72
     1
  1
\A1;92.075 [3.625in.]
  7
ROMANS
 73
     1
 44
1.0
  0
POINT
  5
318
330
30F
100
AcDbEntity
  8
DEFPOINTS
 62
     0
100
AcDbPoint
 10
15.7789155989767
 20
-4.914153321245716
 30
0.0
  0
POINT
  5
319
330
30F
100
AcDbEntity
  8
DEFPOINTS
 62
     0
100
AcDbPoint
 10
13.5842445546174
 20
-4.737871566515177
 30
0.0
  0
POINT
  5
31A
330
30F
100
AcDbEntity
  8
DEFPOINTS
 62
     0
100
AcDbPoint
 10
13.28707431305727
 20
-4.223157609635515
 30
0.0
  0
ENDBLK
  5
31C
330
30F
100
AcDbEntity
  8
0
100
AcDbBlockEnd
  0
BLOCK
  5
329
330
31D
100
AcDbEntity
  8
0
100
AcDbBlockBegin
  2
*D19
 70
     1
 10
0.0
 20
0.0
 30
0.0
  3
*D19
  1

  0
LINE
  5
31E
330
31D
100
AcDbEntity
  8
DIM
 62
     0
370
    -2
100
AcDbLine
 10
8.984207654093754
 20
-8.777079782288806
 30
0.0
 11
8.984207654093756
 21
-5.462093907593375
 31
0.0
  0
ARC
  5
31F
330
31D
100
AcDbEntity
  8
DIM
 62
     0
370
    -2
100
AcDbCircle
 10
8.984207654093754
 20
-8.837079782288807
 30
0.0
 40
3.24498587469543
100
AcDbArc
 50
33.17861568192346
 51
55.90226050703087
  0
ARC
  5
320
330
31D
100
AcDbEntity
  8
DIM
 62
     0
370
    -2
100
AcDbCircle
 10
8.984207654093754
 20
-8.837079782288807
 30
0.0
 40
3.24498587469543
100
AcDbArc
 50
63.93479834435442
 51
86.82138431807658
  0
SOLID
  5
321
330
31D
100
AcDbEntity
  8
DIM
 62
     0
100
AcDbTrace
 10
11.72571374598741
 20
-7.045543589968242
 30
0.0
 11
11.67460426386185
 21
-7.076973207160586
 31
0.0
 12
11.79444785650166
 22
-7.214586844941087
 32
0.0
 13
11.79444785650166
 23
-7.214586844941087
 33
0.0
  0
SOLID
  5
322
330
31D
100
AcDbEntity
  8
DIM
 62
     0
100
AcDbTrace
 10
9.163306356638765
 20
-5.627074684409994
 30
0.0
 11
9.164970462495777
 21
-5.567097765918822
 31
0.0
 12
8.984207654093756
 22
-5.592093907593373
 32
0.0
 13
8.984207654093756
 23
-5.592093907593373
 33
0.0
  0
MTEXT
  5
323
330
31D
100
AcDbEntity
  8
DIM
 62
     0
100
AcDbMText
 10
10.60670059144147
 20
-6.026839579880894
 30
0.0
 40
0.14
 41
0.0
 71
     5
 72
     1
  1
\A1;60°
  7
ROMANS
 73
     1
 44
1.0
  0
POINT
  5
324
330
31D
100
AcDbEntity
  8
DEFPOINTS
 62
     0
100
AcDbPoint
 10
11.07004436795581
 20
-6.351276384978794
 30
0.0
  0
POINT
  5
325
330
31D
100
AcDbEntity
  8
DEFPOINTS
 62
     0
100
AcDbPoint
 10
8.984207654093754
 20
-8.837079782288807
 30
0.0
  0
POINT
  5
326
330
31D
100
AcDbEntity
  8
DEFPOINTS
 62
     0
100
AcDbPoint
 10
8.984207654093754
 20
-10.1470797822888
 30
0.0
  0
POINT
  5
327
330
31D
100
AcDbEntity
  8
DEFPOINTS
 62
     0
100
AcDbPoint
 10
8.984207654093756
 20
-15.47936217399069
 30
0.0
  0
POINT
  5
328
330
31D
100
AcDbEntity
  8
DEFPOINTS
 62
     0
100
AcDbPoint
 10
17.02773959565169
 20
-4.193144450594961
 30
0.0
  0
ENDBLK
  5
32A
330
31D
100
AcDbEntity
  8
0
100
AcDbBlockEnd
  0
BLOCK
  5
337
330
32B
100
AcDbEntity
  8
0
100
AcDbBlockBegin
  2
*D20
 70
     1
 10
0.0
 20
0.0
 30
0.0
  3
*D20
  1

  0
LINE
  5
32C
330
32B
100
AcDbEntity
  8
DIM
 62
     0
370
    -2
100
AcDbLine
 10
8.984207654093756
 20
-8.777079782288812
 30
0.0
 11
8.984207654093754
 21
-5.463259207819634
 31
0.0
  0
ARC
  5
32D
330
32B
100
AcDbEntity
  8
DIM
 62
     0
370
    -2
100
AcDbCircle
 10
8.984207654093752
 20
-8.83707978228881
 30
0.0
 40
3.243820574469176
100
AcDbArc
 50
93.17975785125645
 51
116.0638129819165
  0
ARC
  5
32E
330
32B
100
AcDbEntity
  8
DIM
 62
     0
370
    -2
100
AcDbCircle
 10
8.984207654093752
 20
-8.83707978228881
 30
0.0
 40
3.243820574469176
100
AcDbArc
 50
124.0992459330719
 51
146.8202421487434
  0
SOLID
  5
32F
330
32B
100
AcDbEntity
  8
DIM
 62
     0
100
AcDbTrace
 10
8.803444596556477
 20
-5.568264867864865
 30
0.0
 11
8.805109300221809
 21
-5.628241769766402
 31
0.0
 12
8.984207654093754
 22
-5.593259207819635
 32
0.0
 13
8.984207654093754
 23
-5.593259207819635
 33
0.0
  0
SOLID
  5
330
330
32B
100
AcDbEntity
  8
DIM
 62
     0
100
AcDbTrace
 10
6.294821595556157
 20
-7.077557051798519
 30
0.0
 11
6.243712426701804
 21
-7.046126925183799
 31
0.0
 12
6.174976631284819
 22
-7.215169495054214
 32
0.0
 13
6.174976631284819
 23
-7.215169495054214
 33
0.0
  0
MTEXT
  5
331
330
32B
100
AcDbEntity
  8
DIM
 62
     0
100
AcDbMText
 10
7.362297366859172
 20
-6.027848759479869
 30
0.0
 40
0.14
 41
0.0
 71
     5
 72
     1
  1
\A1;60°
  7
ROMANS
 73
     1
 44
1.0
  0
POINT
  5
332
330
32B
100
AcDbEntity
  8
DEFPOINTS
 62
     0
100
AcDbPoint
 10
7.874755676291055
 20
-5.788885525306618
 30
0.0
  0
POINT
  5
333
330
32B
100
AcDbEntity
  8
DEFPOINTS
 62
     0
100
AcDbPoint
 10
8.984207654093754
 20
-8.837079782288808
 30
0.0
  0
POINT
  5
334
330
32B
100
AcDbEntity
  8
DEFPOINTS
 62
     0
100
AcDbPoint
 10
8.984207654093756
 20
-10.1470797822888
 30
0.0
  0
POINT
  5
335
330
32B
100
AcDbEntity
  8
DEFPOINTS
 62
     0
100
AcDbPoint
 10
8.984207654093756
 20
-15.47936217399069
 30
0.0
  0
POINT
  5
336
330
32B
100
AcDbEntity
  8
DEFPOINTS
 62
     0
100
AcDbPoint
 10
2.264166986232147
 20
-4.957262493733664
 30
0.0
  0
ENDBLK
  5
338
330
32B
100
AcDbEntity
  8
0
100
AcDbBlockEnd
  0
BLOCK
  5
3F7
330
3EA
100
AcDbEntity
  8
0
100
AcDbBlockBegin
  2
*D22
 70
     1
 10
0.0
 20
0.0
 30
0.0
  3
*D22
  1

  0
LINE
  5
4D9
330
3EA
100
AcDbEntity
  8
DIM
 62
     0
370
    -2
100
AcDbLine
 10
8.643123618657099
 20
28.66283409068112
 30
0.0
 11
7.914297209471834
 21
30.9467394345775
 31
0.0
  0
LINE
  5
4DA
330
3EA
100
AcDbEntity
  8
DIM
 62
     0
370
    -2
100
AcDbLine
 10
7.914297209471834
 20
30.9467394345775
 30
0.0
 11
8.094297209471834
 21
30.94673943457751
 31
0.0
  0
SOLID
  5
4DB
330
3EA
100
AcDbEntity
  8
DIM
 62
     0
100
AcDbTrace
 10
8.67170368331795
 20
28.67195439242949
 30
0.0
 11
8.614543553996238
 21
28.65371378893275
 31
0.0
 12
8.697845429147326
 22
28.49135370271599
 32
0.0
 13
8.697845429147326
 23
28.49135370271599
 33
0.0
  0
MTEXT
  5
4DC
330
3EA
100
AcDbEntity
  8
DIM
 62
     0
100
AcDbMText
 10
9.981630542805163
 20
30.9467394345775
 30
0.0
 40
0.14
 41
0.0
 71
     5
 72
     1
  1
\A1;\U+2205127.00\S+1.27^ -.76; {\o\l\H0.336000;[}\U+22055.00in.\S+0.05in.^ -0.03in.;{\o\l\H0.336000;]}
  7
ROMANS
 73
     1
 44
1.0
  0
LINE
  5
4DD
330
3EA
100
AcDbEntity
  8
DIM
 62
     0
370
    -2
100
AcDbLine
 10
9.017858001996147
 20
27.30051767518037
 30
0.0
 11
9.137858001996146
 21
27.30051767518037
 31
0.0
  0
LINE
  5
4DE
330
3EA
100
AcDbEntity
  8
DIM
 62
     0
370
    -2
100
AcDbLine
 10
9.077858001996148
 20
27.24051767518037
 30
0.0
 11
9.077858001996148
 21
27.36051767518036
 31
0.0
  0
LINE
  5
4DF
330
3EA
100
AcDbEntity
  8
DIM
 62
     0
370
    -2
100
AcDbLine
 10
8.957858001996148
 20
27.30051767518037
 30
0.0
 11
-54.48214199800377
 21
27.30051767518037
 31
0.0
  0
LINE
  5
4E0
330
3EA
100
AcDbEntity
  8
DIM
 62
     0
370
    -2
100
AcDbLine
 10
9.197858001996145
 20
27.30051767518036
 30
0.0
 11
72.63785800199605
 21
27.30051767518037
 31
0.0
  0
LINE
  5
4E1
330
3EA
100
AcDbEntity
  8
DIM
 62
     0
370
    -2
100
AcDbLine
 10
9.077858001996144
 20
27.18051767518037
 30
0.0
 11
9.077858001996148
 21
-36.25948232481953
 31
0.0
  0
LINE
  5
4E2
330
3EA
100
AcDbEntity
  8
DIM
 62
     0
370
    -2
100
AcDbLine
 10
9.077858001996144
 20
27.42051767518037
 30
0.0
 11
9.077858001996144
 21
90.86051767518027
 31
0.0
  0
POINT
  5
4E3
330
3EA
100
AcDbEntity
  8
DEFPOINTS
 62
     0
100
AcDbPoint
 10
8.697845429147326
 20
28.49135370271599
 30
0.0
  0
POINT
  5
4E4
330
3EA
100
AcDbEntity
  8
DEFPOINTS
 62
     0
100
AcDbPoint
 10
9.457870574844969
 20
26.10968164764475
 30
0.0
  0
ENDBLK
  5
3F8
330
3EA
100
AcDbEntity
  8
0
100
AcDbBlockEnd
  0
BLOCK
  5
406
330
3F9
100
AcDbEntity
  8
0
100
AcDbBlockBegin
  2
*D23
 70
     1
 10
0.0
 20
0.0
 30
0.0
  3
*D23
  1

  0
LINE
  5
4E5
330
3F9
100
AcDbEntity
  8
DIM
 62
     0
370
    -2
100
AcDbLine
 10
8.4540813432321
 20
26.61073315811641
 30
0.0
 11
7.655840291140812
 21
25.72802247812975
 31
0.0
  0
LINE
  5
4E6
330
3F9
100
AcDbEntity
  8
DIM
 62
     0
370
    -2
100
AcDbLine
 10
7.655840291140812
 20
25.72802247812975
 30
0.0
 11
7.475840291140814
 21
25.72802247812975
 31
0.0
  0
SOLID
  5
4E7
330
3F9
100
AcDbEntity
  8
DIM
 62
     0
100
AcDbTrace
 10
8.431830229778427
 20
26.63085498581848
 30
0.0
 11
8.476332456685778
 21
26.59061133041435
 31
0.0
 12
8.574812309444498
 22
26.74423983883847
 32
0.0
 13
8.574812309444498
 23
26.74423983883847
 33
0.0
  0
MTEXT
  5
4E8
330
3F9
100
AcDbEntity
  8
DIM
 62
     0
100
AcDbMText
 10
5.459173624474146
 20
25.72802247812975
 30
0.0
 40
0.14
 41
0.0
 71
     5
 72
     1
  1
\A1;\U+220576.20±.05 [\U+22053.00in.±0.00in.] THRU
  7
ROMANS
 73
     1
 44
1.0
  0
LINE
  5
4E9
330
3F9
100
AcDbEntity
  8
DIM
 62
     0
370
    -2
100
AcDbLine
 10
9.017858001996142
 20
27.30051767518037
 30
0.0
 11
9.137858001996145
 21
27.30051767518038
 31
0.0
  0
LINE
  5
4EA
330
3F9
100
AcDbEntity
  8
DIM
 62
     0
370
    -2
100
AcDbLine
 10
9.077858001996146
 20
27.24051767518037
 30
0.0
 11
9.077858001996144
 21
27.36051767518037
 31
0.0
  0
LINE
  5
4EB
330
3F9
100
AcDbEntity
  8
DIM
 62
     0
370
    -2
100
AcDbLine
 10
8.957858001996147
 20
27.30051767518038
 30
0.0
 11
-29.08214199800358
 21
27.30051767518038
 31
0.0
  0
LINE
  5
4EC
330
3F9
100
AcDbEntity
  8
DIM
 62
     0
370
    -2
100
AcDbLine
 10
9.197858001996145
 20
27.30051767518038
 30
0.0
 11
47.23785800199587
 21
27.30051767518038
 31
0.0
  0
LINE
  5
4ED
330
3F9
100
AcDbEntity
  8
DIM
 62
     0
370
    -2
100
AcDbLine
 10
9.077858001996142
 20
27.18051767518037
 30
0.0
 11
9.077858001996146
 21
-10.85948232481934
 31
0.0
  0
LINE
  5
4EE
330
3F9
100
AcDbEntity
  8
DIM
 62
     0
370
    -2
100
AcDbLine
 10
9.077858001996148
 20
27.42051767518038
 30
0.0
 11
9.077858001996148
 21
65.46051767518012
 31
0.0
  0
POINT
  5
4EF
330
3F9
100
AcDbEntity
  8
DEFPOINTS
 62
     0
100
AcDbPoint
 10
8.574812309444498
 20
26.74423983883847
 30
0.0
  0
POINT
  5
4F0
330
3F9
100
AcDbEntity
  8
DEFPOINTS
 62
     0
100
AcDbPoint
 10
9.580903694547789
 20
27.85679551152227
 30
0.0
  0
ENDBLK
  5
407
330
3F9
100
AcDbEntity
  8
0
100
AcDbBlockEnd
  0
BLOCK
  5
415
330
408
100
AcDbEntity
  8
0
100
AcDbBlockBegin
  2
*D24
 70
     1
 10
0.0
 20
0.0
 30
0.0
  3
*D24
  1

  0
LINE
  5
4F1
330
408
100
AcDbEntity
  8
DIM
 62
     0
370
    -2
100
AcDbLine
 10
8.787171561023793
 20
26.15688250912661
 30
0.0
 11
8.558973548770378
 21
25.25909288136276
 31
0.0
  0
LINE
  5
4F2
330
408
100
AcDbEntity
  8
DIM
 62
     0
370
    -2
100
AcDbLine
 10
8.558973548770378
 20
25.25909288136276
 30
0.0
 11
8.37897354877038
 21
25.25909288136276
 31
0.0
  0
SOLID
  5
4F3
330
408
100
AcDbEntity
  8
DIM
 62
     0
100
AcDbTrace
 10
8.758096090700393
 20
26.16427284237167
 30
0.0
 11
8.816247031347195
 21
26.14949217588155
 31
0.0
 12
8.831513560494153
 22
26.33133533106702
 32
0.0
 13
8.831513560494153
 23
26.33133533106702
 33
0.0
  0
MTEXT
  5
4F4
330
408
100
AcDbEntity
  8
DIM
 62
     0
100
AcDbMText
 10
7.33230688210371
 20
25.25909288136275
 30
0.0
 40
0.14
 41
0.0
 71
     5
 72
     1
  1
\A1;\U+2205101.60 [\U+22054.00in.]
  7
ROMANS
 73
     1
 44
1.0
  0
LINE
  5
4F5
330
408
100
AcDbEntity
  8
DIM
 62
     0
370
    -2
100
AcDbLine
 10
9.017858001996147
 20
27.30051767518038
 30
0.0
 11
9.137858001996146
 21
27.30051767518038
 31
0.0
  0
LINE
  5
4F6
330
408
100
AcDbEntity
  8
DIM
 62
     0
370
    -2
100
AcDbLine
 10
9.077858001996144
 20
27.24051767518037
 30
0.0
 11
9.077858001996144
 21
27.36051767518037
 31
0.0
  0
LINE
  5
4F7
330
408
100
AcDbEntity
  8
DIM
 62
     0
370
    -2
100
AcDbLine
 10
8.957858001996147
 20
27.30051767518038
 30
0.0
 11
-41.78214199800341
 21
27.30051767518037
 31
0.0
  0
LINE
  5
4F8
330
408
100
AcDbEntity
  8
DIM
 62
     0
370
    -2
100
AcDbLine
 10
9.197858001996145
 20
27.30051767518037
 30
0.0
 11
59.9378580019957
 21
27.30051767518038
 31
0.0
  0
LINE
  5
4F9
330
408
100
AcDbEntity
  8
DIM
 62
     0
370
    -2
100
AcDbLine
 10
9.077858001996144
 20
27.18051767518037
 30
0.0
 11
9.077858001996149
 21
-23.55948232481917
 31
0.0
  0
LINE
  5
4FA
330
408
100
AcDbEntity
  8
DIM
 62
     0
370
    -2
100
AcDbLine
 10
9.077858001996146
 20
27.42051767518038
 30
0.0
 11
9.077858001996141
 21
78.16051767517993
 31
0.0
  0
POINT
  5
4FB
330
408
100
AcDbEntity
  8
DEFPOINTS
 62
     0
100
AcDbPoint
 10
8.831513560494153
 20
26.33133533106702
 30
0.0
  0
POINT
  5
4FC
330
408
100
AcDbEntity
  8
DEFPOINTS
 62
     0
100
AcDbPoint
 10
9.324202443498142
 20
28.26970001929373
 30
0.0
  0
ENDBLK
  5
416
330
408
100
AcDbEntity
  8
0
100
AcDbBlockEnd
  0
BLOCK
  5
423
330
417
100
AcDbEntity
  8
0
100
AcDbBlockBegin
  2
*D25
 70
     1
 10
0.0
 20
0.0
 30
0.0
  3
*D25
  1

  0
LINE
  5
6B3
330
417
100
AcDbEntity
  8
DIM
 62
     0
370
    -2
100
AcDbLine
 10
12.86870735385565
 20
9.284845221512012
 30
0.0
 11
12.01719296048124
 21
7.809979028811335
 31
0.0
  0
LINE
  5
6B4
330
417
100
AcDbEntity
  8
DIM
 62
     0
370
    -2
100
AcDbLine
 10
11.64682585865508
 20
9.548484390996396
 30
0.0
 11
10.98662272997776
 21
8.404979028811336
 31
0.0
  0
LINE
  5
6B5
330
417
100
AcDbEntity
  8
DIM
 62
     0
370
    -2
100
AcDbLine
 10
12.23807753316244
 20
7.832562331303314
 30
0.0
 11
12.39396210584364
 21
7.742562331303314
 31
0.0
  0
LINE
  5
6B6
330
417
100
AcDbEntity
  8
DIM
 62
     0
370
    -2
100
AcDbLine
 10
10.89573815729656
 20
8.607562331303315
 30
0.0
 11
9.550097452976372
 21
9.384468354175094
 31
0.0
  0
LINE
  5
6B7
330
417
100
AcDbEntity
  8
DIM
 62
     0
370
    -2
100
AcDbLine
 10
9.550097452976372
 20
9.384468354175094
 30
0.0
 11
9.370097452976372
 21
9.384468354175094
 31
0.0
  0
SOLID
  5
6B8
330
417
100
AcDbEntity
  8
DIM
 62
     0
100
AcDbTrace
 10
12.25307753316244
 20
7.858543093416846
 30
0.0
 11
12.22307753316244
 21
7.806581569189781
 31
0.0
 12
12.08219296048124
 22
7.922562331303314
 32
0.0
 13
12.08219296048124
 23
7.922562331303314
 33
0.0
  0
SOLID
  5
6B9
330
417
100
AcDbEntity
  8
DIM
 62
     0
100
AcDbTrace
 10
10.91073815729656
 20
8.633543093416847
 30
0.0
 11
10.88073815729656
 21
8.581581569189781
 31
0.0
 12
11.05162272997776
 22
8.517562331303315
 32
0.0
 13
11.05162272997776
 23
8.517562331303315
 33
0.0
  0
MTEXT
  5
6BA
330
417
100
AcDbEntity
  8
DIM
 62
     0
100
AcDbMText
 10
8.520097452976372
 20
9.384468354175092
 30
0.0
 40
0.14
 41
0.0
 71
     5
 72
     1
  1
\A1;60.45 [2.38in.]
  7
ROMANS
 73
     1
 44
1.0
  0
POINT
  5
6BB
330
417
100
AcDbEntity
  8
DEFPOINTS
 62
     0
100
AcDbPoint
 10
12.89870735385566
 20
9.33680674573908
 30
0.0
  0
POINT
  5
6BC
330
417
100
AcDbEntity
  8
DEFPOINTS
 62
     0
100
AcDbPoint
 10
11.67682585865508
 20
9.600445915223463
 30
0.0
  0
POINT
  5
6BD
330
417
100
AcDbEntity
  8
DEFPOINTS
 62
     0
100
AcDbPoint
 10
11.05162272997776
 20
8.517562331303315
 30
0.0
  0
ENDBLK
  5
424
330
417
100
AcDbEntity
  8
0
100
AcDbBlockEnd
  0
BLOCK
  5
431
330
425
100
AcDbEntity
  8
0
100
AcDbBlockBegin
  2
*D26
 70
     1
 10
0.0
 20
0.0
 30
0.0
  3
*D26
  1

  0
LINE
  5
6DF
330
425
100
AcDbEntity
  8
DIM
 62
     0
370
    -2
100
AcDbLine
 10
9.453902775611913
 20
12.83832330157059
 30
0.0
 11
10.47730021705907
 21
14.61089966649306
 31
0.0
  0
LINE
  5
6E0
330
425
100
AcDbEntity
  8
DIM
 62
     0
370
    -2
100
AcDbLine
 10
8.12525713503706
 20
12.16204154684004
 30
0.0
 11
9.773654576484219
 21
15.01714966649306
 31
0.0
  0
LINE
  5
6E1
330
425
100
AcDbEntity
  8
DIM
 62
     0
370
    -2
100
AcDbLine
 10
9.55277000380302
 20
14.99456636400108
 30
0.0
 11
9.396885431121821
 21
15.08456636400109
 31
0.0
  0
LINE
  5
6E2
330
425
100
AcDbEntity
  8
DIM
 62
     0
370
    -2
100
AcDbLine
 10
10.56818478974027
 20
14.40831636400108
 30
0.0
 11
10.72406936242147
 21
14.31831636400109
 31
0.0
  0
LINE
  5
6E3
330
425
100
AcDbEntity
  8
DIM
 62
     0
370
    -2
100
AcDbLine
 10
10.72406936242147
 20
14.31831636400109
 30
0.0
 11
10.90406936242147
 21
14.31831636400109
 31
0.0
  0
SOLID
  5
6E4
330
425
100
AcDbEntity
  8
DIM
 62
     0
100
AcDbTrace
 10
9.567770003803021
 20
15.02054712611462
 30
0.0
 11
9.53777000380302
 21
14.96858560188755
 31
0.0
 12
9.708654576484219
 22
14.90456636400109
 32
0.0
 13
9.708654576484219
 23
14.90456636400109
 33
0.0
  0
SOLID
  5
6E5
330
425
100
AcDbEntity
  8
DIM
 62
     0
100
AcDbTrace
 10
10.58318478974027
 20
14.43429712611462
 30
0.0
 11
10.55318478974027
 21
14.38233560188755
 31
0.0
 12
10.41230021705907
 22
14.49831636400109
 32
0.0
 13
10.41230021705907
 23
14.49831636400109
 33
0.0
  0
MTEXT
  5
6E6
330
425
100
AcDbEntity
  8
DIM
 62
     0
100
AcDbMText
 10
11.89073602908814
 20
14.31831636400108
 30
0.0
 40
0.14
 41
0.0
 71
     5
 72
     1
  1
\A1;41.275 [1.625in.]
  7
ROMANS
 73
     1
 44
1.0
  0
POINT
  5
6E7
330
425
100
AcDbEntity
  8
DEFPOINTS
 62
     0
100
AcDbPoint
 10
9.423902775611914
 20
12.78636177734352
 30
0.0
  0
POINT
  5
6E8
330
425
100
AcDbEntity
  8
DEFPOINTS
 62
     0
100
AcDbPoint
 10
8.09525713503706
 20
12.11008002261297
 30
0.0
  0
POINT
  5
6E9
330
425
100
AcDbEntity
  8
DEFPOINTS
 62
     0
100
AcDbPoint
 10
9.708654576484219
 20
14.90456636400109
 30
0.0
  0
ENDBLK
  5
432
330
425
100
AcDbEntity
  8
0
100
AcDbBlockEnd
  0
BLOCK
  5
43F
330
433
100
AcDbEntity
  8
0
100
AcDbBlockBegin
  2
*D27
 70
     1
 10
0.0
 20
0.0
 30
0.0
  3
*D27
  1

  0
LINE
  5
6BE
330
433
100
AcDbEntity
  8
DIM
 62
     0
370
    -2
100
AcDbLine
 10
9.453902775611913
 20
12.83832330157059
 30
0.0
 11
10.21984106049412
 21
14.16496732644874
 31
0.0
  0
LINE
  5
6BF
330
433
100
AcDbEntity
  8
DIM
 62
     0
370
    -2
100
AcDbLine
 10
7.692244433144837
 20
12.41204154684004
 30
0.0
 11
9.083182718027046
 21
14.82121732644874
 31
0.0
  0
LINE
  5
6C0
330
433
100
AcDbEntity
  8
DIM
 62
     0
370
    -2
100
AcDbLine
 10
8.862298145345848
 20
14.79863402395676
 30
0.0
 11
8.706413572664649
 21
14.88863402395676
 31
0.0
  0
LINE
  5
6C1
330
433
100
AcDbEntity
  8
DIM
 62
     0
370
    -2
100
AcDbLine
 10
10.31072563317532
 20
13.96238402395676
 30
0.0
 11
10.46661020585652
 21
13.87238402395676
 31
0.0
  0
LINE
  5
6C2
330
433
100
AcDbEntity
  8
DIM
 62
     0
370
    -2
100
AcDbLine
 10
10.46661020585652
 20
13.87238402395676
 30
0.0
 11
10.64661020585652
 21
13.87238402395676
 31
0.0
  0
SOLID
  5
6C3
330
433
100
AcDbEntity
  8
DIM
 62
     0
100
AcDbTrace
 10
8.877298145345848
 20
14.8246147860703
 30
0.0
 11
8.847298145345847
 21
14.77265326184323
 31
0.0
 12
9.018182718027047
 22
14.70863402395676
 32
0.0
 13
9.018182718027047
 23
14.70863402395676
 33
0.0
  0
SOLID
  5
6C4
330
433
100
AcDbEntity
  8
DIM
 62
     0
100
AcDbTrace
 10
10.32572563317532
 20
13.98836478607029
 30
0.0
 11
10.29572563317532
 21
13.93640326184323
 31
0.0
 12
10.15484106049412
 22
14.05238402395676
 32
0.0
 13
10.15484106049412
 23
14.05238402395676
 33
0.0
  0
MTEXT
  5
6C5
330
433
100
AcDbEntity
  8
DIM
 62
     0
100
AcDbMText
 10
11.62994353918985
 20
13.87238402395676
 30
0.0
 40
0.14
 41
0.0
 71
     5
 72
     1
  1
\A1;66.675 [2.625in.]
  7
ROMANS
 73
     1
 44
1.0
  0
POINT
  5
6C6
330
433
100
AcDbEntity
  8
DEFPOINTS
 62
     0
100
AcDbPoint
 10
9.423902775611914
 20
12.78636177734352
 30
0.0
  0
POINT
  5
6C7
330
433
100
AcDbEntity
  8
DEFPOINTS
 62
     0
100
AcDbPoint
 10
7.662244433144837
 20
12.36008002261297
 30
0.0
  0
POINT
  5
6C8
330
433
100
AcDbEntity
  8
DEFPOINTS
 62
     0
100
AcDbPoint
 10
9.018182718027047
 20
14.70863402395676
 30
0.0
  0
ENDBLK
  5
440
330
433
100
AcDbEntity
  8
0
100
AcDbBlockEnd
  0
BLOCK
  5
44D
330
441
100
AcDbEntity
  8
0
100
AcDbBlockBegin
  2
*D28
 70
     1
 10
0.0
 20
0.0
 30
0.0
  3
*D28
  1

  0
LINE
  5
6A8
330
441
100
AcDbEntity
  8
DIM
 62
     0
370
    -2
100
AcDbLine
 10
12.89870735385565
 20
9.396806745739084
 30
0.0
 11
12.89870735385565
 21
12.71062732020826
 31
0.0
  0
ARC
  5
6A9
330
441
100
AcDbEntity
  8
DIM
 62
     0
370
    -2
100
AcDbCircle
 10
12.89870735385565
 20
9.336806745739085
 30
0.0
 40
3.243820574469177
100
AcDbArc
 50
93.17975785125648
 51
116.0638129819166
  0
ARC
  5
6AA
330
441
100
AcDbEntity
  8
DIM
 62
     0
370
    -2
100
AcDbCircle
 10
12.89870735385565
 20
9.336806745739085
 30
0.0
 40
3.243820574469177
100
AcDbArc
 50
124.099245933072
 51
146.8202421487434
  0
SOLID
  5
6AB
330
441
100
AcDbEntity
  8
DIM
 62
     0
100
AcDbTrace
 10
12.71794429631837
 20
12.60562166016303
 30
0.0
 11
12.71960899998371
 21
12.5456447582615
 31
0.0
 12
12.89870735385565
 22
12.58062732020826
 32
0.0
 13
12.89870735385565
 23
12.58062732020826
 33
0.0
  0
SOLID
  5
6AC
330
441
100
AcDbEntity
  8
DIM
 62
     0
100
AcDbTrace
 10
10.20932129531805
 20
11.09632947622937
 30
0.0
 11
10.1582121264637
 21
11.12775960284409
 31
0.0
 12
10.08947633104671
 22
10.95871703297367
 32
0.0
 13
10.08947633104671
 23
10.95871703297367
 33
0.0
  0
MTEXT
  5
6AD
330
441
100
AcDbEntity
  8
DIM
 62
     0
100
AcDbMText
 10
11.27679706662106
 20
12.14603776854802
 30
0.0
 40
0.14
 41
0.0
 71
     5
 72
     1
  1
\A1;60°
  7
ROMANS
 73
     1
 44
1.0
  0
POINT
  5
6AE
330
441
100
AcDbEntity
  8
DEFPOINTS
 62
     0
100
AcDbPoint
 10
11.78925537605295
 20
12.38500100272127
 30
0.0
  0
POINT
  5
6AF
330
441
100
AcDbEntity
  8
DEFPOINTS
 62
     0
100
AcDbPoint
 10
12.89870735385565
 20
9.336806745739085
 30
0.0
  0
POINT
  5
6B0
330
441
100
AcDbEntity
  8
DEFPOINTS
 62
     0
100
AcDbPoint
 10
12.89870735385566
 20
8.026806745739087
 30
0.0
  0
POINT
  5
6B1
330
441
100
AcDbEntity
  8
DEFPOINTS
 62
     0
100
AcDbPoint
 10
12.89870735385566
 20
2.694524354037199
 30
0.0
  0
POINT
  5
6B2
330
441
100
AcDbEntity
  8
DEFPOINTS
 62
     0
100
AcDbPoint
 10
6.178666685994051
 20
13.21662403429422
 30
0.0
  0
ENDBLK
  5
44E
330
441
100
AcDbEntity
  8
0
100
AcDbBlockEnd
  0
BLOCK
  5
45B
330
44F
100
AcDbEntity
  8
0
100
AcDbBlockBegin
  2
*D29
 70
     1
 10
0.0
 20
0.0
 30
0.0
  3
*D29
  1

  0
LINE
  5
6D4
330
44F
100
AcDbEntity
  8
DIM
 62
     0
370
    -2
100
AcDbLine
 10
9.042175564536076
 20
12.0051908531286
 30
0.0
 11
10.05774038782865
 21
11.41885422902111
 31
0.0
  0
LINE
  5
6D5
330
44F
100
AcDbEntity
  8
DIM
 62
     0
370
    -2
100
AcDbLine
 10
8.659553035141893
 20
11.34246919209736
 30
0.0
 11
9.675117858434466
 21
10.75613256798987
 31
0.0
  0
LINE
  5
6D6
330
44F
100
AcDbEntity
  8
DIM
 62
     0
370
    -2
100
AcDbLine
 10
10.03515708533667
 20
11.63973880170231
 30
0.0
 11
10.12515708533667
 21
11.79562337438351
 31
0.0
  0
LINE
  5
6D7
330
44F
100
AcDbEntity
  8
DIM
 62
     0
370
    -2
100
AcDbLine
 10
9.472534555942491
 20
10.66524799530868
 30
0.0
 11
9.212471436197311
 21
10.21480545873516
 31
0.0
  0
LINE
  5
6D8
330
44F
100
AcDbEntity
  8
DIM
 62
     0
370
    -2
100
AcDbLine
 10
9.212471436197311
 20
10.21480545873516
 30
0.0
 11
9.032471436197312
 21
10.21480545873516
 31
0.0
  0
SOLID
  5
6D9
330
44F
100
AcDbEntity
  8
DIM
 62
     0
100
AcDbTrace
 10
10.00917632322314
 20
11.65473880170231
 30
0.0
 11
10.0611378474502
 21
11.62473880170231
 31
0.0
 12
9.945157085336674
 22
11.48385422902111
 32
0.0
 13
9.945157085336674
 23
11.48385422902111
 33
0.0
  0
SOLID
  5
6DA
330
44F
100
AcDbEntity
  8
DIM
 62
     0
100
AcDbTrace
 10
9.446553793828957
 20
10.68024799530868
 30
0.0
 11
9.498515318056023
 21
10.65024799530868
 31
0.0
 12
9.562534555942491
 22
10.82113256798987
 32
0.0
 13
9.562534555942491
 23
10.82113256798987
 33
0.0
  0
MTEXT
  5
6DB
330
44F
100
AcDbEntity
  8
DIM
 62
     0
100
AcDbMText
 10
8.08913810286398
 20
10.21480545873516
 30
0.0
 40
0.14
 41
0.0
 71
     5
 72
     1
  1
\A1;(38.87 [1.53in.])
  7
ROMANS
 73
     1
 44
1.0
  0
POINT
  5
6DC
330
44F
100
AcDbEntity
  8
DEFPOINTS
 62
     0
100
AcDbPoint
 10
8.990214040309011
 20
12.0351908531286
 30
0.0
  0
POINT
  5
6DD
330
44F
100
AcDbEntity
  8
DEFPOINTS
 62
     0
100
AcDbPoint
 10
8.607591510914827
 20
11.37246919209736
 30
0.0
  0
POINT
  5
6DE
330
44F
100
AcDbEntity
  8
DEFPOINTS
 62
     0
100
AcDbPoint
 10
9.562534555942491
 20
10.82113256798987
 30
0.0
  0
ENDBLK
  5
45C
330
44F
100
AcDbEntity
  8
0
100
AcDbBlockEnd
  0
BLOCK
  5
469
330
45D
100
AcDbEntity
  8
0
100
AcDbBlockBegin
  2
*D30
 70
     1
 10
0.0
 20
0.0
 30
0.0
  3
*D30
  1

  0
LINE
  5
6C9
330
45D
100
AcDbEntity
  8
DIM
 62
     0
370
    -2
100
AcDbLine
 10
9.453902775611913
 20
12.83832330157059
 30
0.0
 11
9.996352231531792
 21
13.77787331976191
 31
0.0
  0
LINE
  5
6CA
330
45D
100
AcDbEntity
  8
DIM
 62
     0
370
    -2
100
AcDbLine
 10
7.259231731252623
 20
12.66204154684004
 30
0.0
 11
8.4266811871725
 21
14.68412331976191
 31
0.0
  0
LINE
  5
6CB
330
45D
100
AcDbEntity
  8
DIM
 62
     0
370
    -2
100
AcDbLine
 10
8.205796614491301
 20
14.66154001726993
 30
0.0
 11
8.049912041810102
 21
14.75154001726993
 31
0.0
  0
LINE
  5
6CC
330
45D
100
AcDbEntity
  8
DIM
 62
     0
370
    -2
100
AcDbLine
 10
10.08723680421299
 20
13.57529001726993
 30
0.0
 11
10.24312137689419
 21
13.48529001726993
 31
0.0
  0
LINE
  5
6CD
330
45D
100
AcDbEntity
  8
DIM
 62
     0
370
    -2
100
AcDbLine
 10
10.24312137689419
 20
13.48529001726993
 30
0.0
 11
10.42312137689419
 21
13.48529001726993
 31
0.0
  0
SOLID
  5
6CE
330
45D
100
AcDbEntity
  8
DIM
 62
     0
100
AcDbTrace
 10
8.220796614491302
 20
14.68752077938347
 30
0.0
 11
8.190796614491301
 21
14.6355592551564
 31
0.0
 12
8.3616811871725
 22
14.57154001726993
 32
0.0
 13
8.3616811871725
 23
14.57154001726993
 33
0.0
  0
SOLID
  5
6CF
330
45D
100
AcDbEntity
  8
DIM
 62
     0
100
AcDbTrace
 10
10.10223680421299
 20
13.60127077938347
 30
0.0
 11
10.07223680421299
 21
13.5493092551564
 31
0.0
 12
9.931352231531793
 22
13.66529001726993
 32
0.0
 13
9.931352231531793
 23
13.66529001726993
 33
0.0
  0
MTEXT
  5
6D0
330
45D
100
AcDbEntity
  8
DIM
 62
     0
100
AcDbMText
 10
11.40978804356086
 20
13.48529001726993
 30
0.0
 40
0.14
 41
0.0
 71
     5
 72
     1
  1
\A1;92.075 [3.625in.]
  7
ROMANS
 73
     1
 44
1.0
  0
POINT
  5
6D1
330
45D
100
AcDbEntity
  8
DEFPOINTS
 62
     0
100
AcDbPoint
 10
9.423902775611914
 20
12.78636177734352
 30
0.0
  0
POINT
  5
6D2
330
45D
100
AcDbEntity
  8
DEFPOINTS
 62
     0
100
AcDbPoint
 10
7.229231731252623
 20
12.61008002261297
 30
0.0
  0
POINT
  5
6D3
330
45D
100
AcDbEntity
  8
DEFPOINTS
 62
     0
100
AcDbPoint
 10
8.3616811871725
 20
14.57154001726993
 30
0.0
  0
ENDBLK
  5
46A
330
45D
100
AcDbEntity
  8
0
100
AcDbBlockEnd
  0
BLOCK
  5
477
330
46B
100
AcDbEntity
  8
0
100
AcDbBlockBegin
  2
*D31
 70
     1
 10
0.0
 20
0.0
 30
0.0
  3
*D31
  1

  0
LINE
  5
67D
330
46B
100
AcDbEntity
  8
DIM
 62
     0
370
    -2
100
AcDbLine
 10
14.20870735385566
 20
5.392660706306507
 30
0.0
 11
18.15049719019199
 21
5.392660706306506
 31
0.0
  0
LINE
  5
67E
330
46B
100
AcDbEntity
  8
DIM
 62
     0
370
    -2
100
AcDbLine
 10
12.95870735385567
 20
4.580160706306507
 30
0.0
 11
18.15049719019199
 21
4.580160706306505
 31
0.0
  0
LINE
  5
67F
330
46B
100
AcDbEntity
  8
DIM
 62
     0
370
    -2
100
AcDbLine
 10
18.02049719019199
 20
4.400160706306506
 30
0.0
 11
18.02049719019199
 21
4.220160706306505
 31
0.0
  0
LINE
  5
680
330
46B
100
AcDbEntity
  8
DIM
 62
     0
370
    -2
100
AcDbLine
 10
18.02049719019199
 20
5.572660706306506
 30
0.0
 11
18.02049719019199
 21
5.99423933092272
 31
0.0
  0
LINE
  5
681
330
46B
100
AcDbEntity
  8
DIM
 62
     0
370
    -2
100
AcDbLine
 10
18.02049719019199
 20
5.99423933092272
 30
0.0
 11
18.20049719019199
 21
5.99423933092272
 31
0.0
  0
SOLID
  5
682
330
46B
100
AcDbEntity
  8
DIM
 62
     0
100
AcDbTrace
 10
17.99049719019199
 20
4.400160706306507
 30
0.0
 11
18.05049719019199
 21
4.400160706306506
 31
0.0
 12
18.02049719019199
 22
4.580160706306505
 32
0.0
 13
18.02049719019199
 23
4.580160706306505
 33
0.0
  0
SOLID
  5
683
330
46B
100
AcDbEntity
  8
DIM
 62
     0
100
AcDbTrace
 10
17.99049719019199
 20
5.572660706306507
 30
0.0
 11
18.05049719019199
 21
5.572660706306506
 31
0.0
 12
18.02049719019199
 22
5.392660706306506
 32
0.0
 13
18.02049719019199
 23
5.392660706306506
 33
0.0
  0
MTEXT
  5
684
330
46B
100
AcDbEntity
  8
DIM
 62
     0
100
AcDbMText
 10
19.18716385685866
 20
5.994239330922724
 30
0.0
 40
0.14
 41
0.0
 71
     5
 72
     1
  1
\A1;41.275 [1.625in.]
  7
ROMANS
 73
     1
 44
1.0
  0
POINT
  5
685
330
46B
100
AcDbEntity
  8
DEFPOINTS
 62
     0
100
AcDbPoint
 10
14.14870735385566
 20
5.392660706306507
 30
0.0
  0
POINT
  5
686
330
46B
100
AcDbEntity
  8
DEFPOINTS
 62
     0
100
AcDbPoint
 10
12.89870735385567
 20
4.580160706306507
 30
0.0
  0
POINT
  5
687
330
46B
100
AcDbEntity
  8
DEFPOINTS
 62
     0
100
AcDbPoint
 10
18.02049719019199
 20
4.580160706306505
 30
0.0
  0
ENDBLK
  5
478
330
46B
100
AcDbEntity
  8
0
100
AcDbBlockEnd
  0
BLOCK
  5
485
330
479
100
AcDbEntity
  8
0
100
AcDbBlockBegin
  2
*D32
 70
     1
 10
0.0
 20
0.0
 30
0.0
  3
*D32
  1

  0
LINE
  5
688
330
479
100
AcDbEntity
  8
DIM
 62
     0
370
    -2
100
AcDbLine
 10
14.20870735385566
 20
5.392660706306507
 30
0.0
 11
17.39521936540211
 21
5.392660706306507
 31
0.0
  0
LINE
  5
689
330
479
100
AcDbEntity
  8
DIM
 62
     0
370
    -2
100
AcDbLine
 10
12.95870735385567
 20
4.080160706306507
 30
0.0
 11
17.39521936540211
 21
4.080160706306506
 31
0.0
  0
LINE
  5
68A
330
479
100
AcDbEntity
  8
DIM
 62
     0
370
    -2
100
AcDbLine
 10
17.26521936540211
 20
5.572660706306507
 30
0.0
 11
17.26521936540211
 21
5.752660706306508
 31
0.0
  0
LINE
  5
68B
330
479
100
AcDbEntity
  8
DIM
 62
     0
370
    -2
100
AcDbLine
 10
17.26521936540211
 20
3.900160706306506
 30
0.0
 11
17.26521936540211
 21
2.670316705890908
 31
0.0
  0
LINE
  5
68C
330
479
100
AcDbEntity
  8
DIM
 62
     0
370
    -2
100
AcDbLine
 10
17.26521936540211
 20
2.670316705890908
 30
0.0
 11
17.08521936540211
 21
2.670316705890908
 31
0.0
  0
SOLID
  5
68D
330
479
100
AcDbEntity
  8
DIM
 62
     0
100
AcDbTrace
 10
17.23521936540211
 20
5.572660706306507
 30
0.0
 11
17.29521936540211
 21
5.572660706306507
 31
0.0
 12
17.26521936540211
 22
5.392660706306507
 32
0.0
 13
17.26521936540211
 23
5.392660706306507
 33
0.0
  0
SOLID
  5
68E
330
479
100
AcDbEntity
  8
DIM
 62
     0
100
AcDbTrace
 10
17.23521936540211
 20
3.900160706306506
 30
0.0
 11
17.29521936540211
 21
3.900160706306506
 31
0.0
 12
17.26521936540211
 22
4.080160706306506
 32
0.0
 13
17.26521936540211
 23
4.080160706306506
 33
0.0
  0
MTEXT
  5
68F
330
479
100
AcDbEntity
  8
DIM
 62
     0
100
AcDbMText
 10
16.10188603206877
 20
2.670316705890911
 30
0.0
 40
0.14
 41
0.0
 71
     5
 72
     1
  1
\A1;66.675 [2.625in.]
  7
ROMANS
 73
     1
 44
1.0
  0
POINT
  5
690
330
479
100
AcDbEntity
  8
DEFPOINTS
 62
     0
100
AcDbPoint
 10
14.14870735385566
 20
5.392660706306507
 30
0.0
  0
POINT
  5
691
330
479
100
AcDbEntity
  8
DEFPOINTS
 62
     0
100
AcDbPoint
 10
12.89870735385567
 20
4.080160706306507
 30
0.0
  0
POINT
  5
692
330
479
100
AcDbEntity
  8
DEFPOINTS
 62
     0
100
AcDbPoint
 10
17.26521936540211
 20
4.080160706306506
 30
0.0
  0
ENDBLK
  5
486
330
479
100
AcDbEntity
  8
0
100
AcDbBlockEnd
  0
BLOCK
  5
493
330
487
100
AcDbEntity
  8
0
100
AcDbBlockBegin
  2
*D33
 70
     1
 10
0.0
 20
0.0
 30
0.0
  3
*D33
  1

  0
LINE
  5
693
330
487
100
AcDbEntity
  8
DIM
 62
     0
370
    -2
100
AcDbLine
 10
14.20870735385566
 20
5.392660706306507
 30
0.0
 11
16.66877651911472
 21
5.392660706306507
 31
0.0
  0
LINE
  5
694
330
487
100
AcDbEntity
  8
DIM
 62
     0
370
    -2
100
AcDbLine
 10
12.95870735385567
 20
3.580160706306507
 30
0.0
 11
16.66877651911472
 21
3.580160706306506
 31
0.0
  0
LINE
  5
695
330
487
100
AcDbEntity
  8
DIM
 62
     0
370
    -2
100
AcDbLine
 10
16.53877651911472
 20
5.572660706306507
 30
0.0
 11
16.53877651911472
 21
5.752660706306508
 31
0.0
  0
LINE
  5
696
330
487
100
AcDbEntity
  8
DIM
 62
     0
370
    -2
100
AcDbLine
 10
16.53877651911472
 20
3.400160706306506
 30
0.0
 11
16.53877651911472
 21
3.030736860198101
 31
0.0
  0
LINE
  5
697
330
487
100
AcDbEntity
  8
DIM
 62
     0
370
    -2
100
AcDbLine
 10
16.53877651911472
 20
3.030736860198101
 30
0.0
 11
16.35877651911472
 21
3.030736860198101
 31
0.0
  0
SOLID
  5
698
330
487
100
AcDbEntity
  8
DIM
 62
     0
100
AcDbTrace
 10
16.50877651911472
 20
5.572660706306507
 30
0.0
 11
16.56877651911472
 21
5.572660706306507
 31
0.0
 12
16.53877651911472
 22
5.392660706306507
 32
0.0
 13
16.53877651911472
 23
5.392660706306507
 33
0.0
  0
SOLID
  5
699
330
487
100
AcDbEntity
  8
DIM
 62
     0
100
AcDbTrace
 10
16.50877651911472
 20
3.400160706306506
 30
0.0
 11
16.56877651911472
 21
3.400160706306506
 31
0.0
 12
16.53877651911472
 22
3.580160706306506
 32
0.0
 13
16.53877651911472
 23
3.580160706306506
 33
0.0
  0
MTEXT
  5
69A
330
487
100
AcDbEntity
  8
DIM
 62
     0
100
AcDbMText
 10
15.37210985244806
 20
3.030736860198103
 30
0.0
 40
0.14
 41
0.0
 71
     5
 72
     1
  1
\A1;92.075 [3.625in.]
  7
ROMANS
 73
     1
 44
1.0
  0
POINT
  5
69B
330
487
100
AcDbEntity
  8
DEFPOINTS
 62
     0
100
AcDbPoint
 10
14.14870735385566
 20
5.392660706306507
 30
0.0
  0
POINT
  5
69C
330
487
100
AcDbEntity
  8
DEFPOINTS
 62
     0
100
AcDbPoint
 10
12.89870735385567
 20
3.580160706306507
 30
0.0
  0
POINT
  5
69D
330
487
100
AcDbEntity
  8
DEFPOINTS
 62
     0
100
AcDbPoint
 10
16.53877651911472
 20
3.580160706306506
 30
0.0
  0
ENDBLK
  5
494
330
487
100
AcDbEntity
  8
0
100
AcDbBlockEnd
  0
BLOCK
  5
4A0
330
495
100
AcDbEntity
  8
0
100
AcDbBlockBegin
  2
*D34
 70
     1
 10
0.0
 20
0.0
 30
0.0
  3
*D34
  1

  0
LINE
  5
70B
330
495
100
AcDbEntity
  8
DIM
 62
     0
370
    -2
100
AcDbLine
 10
17.30326068142812
 20
10.68472777482602
 30
0.0
 11
17.30326068142812
 21
11.05378788649607
 31
0.0
  0
LINE
  5
70C
330
495
100
AcDbEntity
  8
DIM
 62
     0
370
    -2
100
AcDbLine
 10
19.80326068142812
 20
10.68472777482602
 30
0.0
 11
19.80326068142812
 21
11.05378788649607
 31
0.0
  0
LINE
  5
70D
330
495
100
AcDbEntity
  8
DIM
 62
     0
370
    -2
100
AcDbLine
 10
17.48326068142812
 20
10.92378788649607
 30
0.0
 11
17.67038881856899
 21
10.92378788649607
 31
0.0
  0
LINE
  5
70E
330
495
100
AcDbEntity
  8
DIM
 62
     0
370
    -2
100
AcDbLine
 10
19.62326068142812
 20
10.92378788649607
 30
0.0
 11
19.49038881856899
 21
10.92378788649607
 31
0.0
  0
SOLID
  5
70F
330
495
100
AcDbEntity
  8
DIM
 62
     0
100
AcDbTrace
 10
17.48326068142812
 20
10.95378788649607
 30
0.0
 11
17.48326068142812
 21
10.89378788649607
 31
0.0
 12
17.30326068142812
 22
10.92378788649607
 32
0.0
 13
17.30326068142812
 23
10.92378788649607
 33
0.0
  0
SOLID
  5
710
330
495
100
AcDbEntity
  8
DIM
 62
     0
100
AcDbTrace
 10
19.62326068142812
 20
10.95378788649607
 30
0.0
 11
19.62326068142812
 21
10.89378788649607
 31
0.0
 12
19.80326068142812
 22
10.92378788649607
 32
0.0
 13
19.80326068142812
 23
10.92378788649607
 33
0.0
  0
MTEXT
  5
711
330
495
100
AcDbEntity
  8
DIM
 62
     0
100
AcDbMText
 10
18.58038881856899
 20
10.92378788649607
 30
0.0
 40
0.14
 41
0.0
 71
     5
 72
     1
  1
\A1;127.00 [5.00in.]
  7
ROMANS
 73
     1
 44
1.0
  0
POINT
  5
712
330
495
100
AcDbEntity
  8
DEFPOINTS
 62
     0
100
AcDbPoint
 10
17.30326068142812
 20
10.62472777482602
 30
0.0
  0
POINT
  5
713
330
495
100
AcDbEntity
  8
DEFPOINTS
 62
     0
100
AcDbPoint
 10
19.80326068142812
 20
10.62472777482602
 30
0.0
  0
POINT
  5
714
330
495
100
AcDbEntity
  8
DEFPOINTS
 62
     0
100
AcDbPoint
 10
19.80326068142812
 20
10.92378788649607
 30
0.0
  0
ENDBLK
  5
4A1
330
495
100
AcDbEntity
  8
0
100
AcDbBlockEnd
  0
BLOCK
  5
4AE
330
4A2
100
AcDbEntity
  8
0
100
AcDbBlockBegin
  2
*D35
 70
     1
 10
0.0
 20
0.0
 30
0.0
  3
*D35
  1

  0
LINE
  5
6EA
330
4A2
100
AcDbEntity
  8
DIM
 62
     0
370
    -2
100
AcDbLine
 10
19.6634152987386
 20
13.31169473100924
 30
0.0
 11
18.70624505717847
 21
14.96956222088435
 31
0.0
  0
LINE
  5
6EB
330
4A2
100
AcDbEntity
  8
DIM
 62
     0
370
    -2
100
AcDbLine
 10
17.46874425437931
 20
13.48797648573978
 30
0.0
 11
17.13657401281918
 21
14.06331222088435
 31
0.0
  0
LINE
  5
6EC
330
4A2
100
AcDbEntity
  8
DIM
 62
     0
370
    -2
100
AcDbLine
 10
18.92712962985967
 20
14.94697891839237
 30
0.0
 11
19.08301420254087
 21
15.03697891839237
 31
0.0
  0
LINE
  5
6ED
330
4A2
100
AcDbEntity
  8
DIM
 62
     0
370
    -2
100
AcDbLine
 10
17.04568944013798
 20
13.86072891839237
 30
0.0
 11
16.86371030800355
 21
13.75566321746766
 31
0.0
  0
LINE
  5
6EE
330
4A2
100
AcDbEntity
  8
DIM
 62
     0
370
    -2
100
AcDbLine
 10
16.86371030800355
 20
13.75566321746766
 30
0.0
 11
16.68371030800354
 21
13.75566321746766
 31
0.0
  0
SOLID
  5
6EF
330
4A2
100
AcDbEntity
  8
DIM
 62
     0
100
AcDbTrace
 10
18.91212962985967
 20
14.97295968050591
 30
0.0
 11
18.94212962985967
 21
14.92099815627884
 31
0.0
 12
18.77124505717848
 22
14.85697891839237
 32
0.0
 13
18.77124505717848
 23
14.85697891839237
 33
0.0
  0
SOLID
  5
6F0
330
4A2
100
AcDbEntity
  8
DIM
 62
     0
100
AcDbTrace
 10
17.03068944013798
 20
13.8867096805059
 30
0.0
 11
17.06068944013798
 21
13.83474815627883
 31
0.0
 12
17.20157401281918
 22
13.95072891839237
 32
0.0
 13
17.20157401281918
 23
13.95072891839237
 33
0.0
  0
MTEXT
  5
6F1
330
4A2
100
AcDbEntity
  8
DIM
 62
     0
100
AcDbMText
 10
15.69704364133688
 20
13.75566321746766
 30
0.0
 40
0.14
 41
0.0
 71
     5
 72
     1
  1
\A1;92.075 [3.625in.]
  7
ROMANS
 73
     1
 44
1.0
  0
POINT
  5
6F2
330
4A2
100
AcDbEntity
  8
DEFPOINTS
 62
     0
100
AcDbPoint
 10
19.6934152987386
 20
13.25973320678217
 30
0.0
  0
POINT
  5
6F3
330
4A2
100
AcDbEntity
  8
DEFPOINTS
 62
     0
100
AcDbPoint
 10
17.49874425437931
 20
13.43601496151271
 30
0.0
  0
POINT
  5
6F4
330
4A2
100
AcDbEntity
  8
DEFPOINTS
 62
     0
100
AcDbPoint
 10
17.20157401281918
 20
13.95072891839237
 30
0.0
  0
ENDBLK
  5
4AF
330
4A2
100
AcDbEntity
  8
0
100
AcDbBlockEnd
  0
BLOCK
  5
4BB
330
4B0
100
AcDbEntity
  8
0
100
AcDbBlockBegin
  2
*D36
 70
     1
 10
0.0
 20
0.0
 30
0.0
  3
*D36
  1

  0
LINE
  5
69E
330
4B0
100
AcDbEntity
  8
DIM
 62
     0
370
    -2
100
AcDbLine
 10
12.95870735385566
 20
9.336806745739082
 30
0.0
 11
15.11690174906816
 21
9.336806745739082
 31
0.0
  0
LINE
  5
69F
330
4B0
100
AcDbEntity
  8
DIM
 62
     0
370
    -2
100
AcDbLine
 10
13.34132988324984
 20
8.14680674573908
 30
0.0
 11
15.11690174906816
 21
8.14680674573908
 31
0.0
  0
LINE
  5
6A0
330
4B0
100
AcDbEntity
  8
DIM
 62
     0
370
    -2
100
AcDbLine
 10
14.98690174906816
 20
9.156806745739082
 30
0.0
 11
14.98690174906816
 21
8.908473412405747
 31
0.0
  0
LINE
  5
6A1
330
4B0
100
AcDbEntity
  8
DIM
 62
     0
370
    -2
100
AcDbLine
 10
14.98690174906816
 20
8.32680674573908
 30
0.0
 11
14.98690174906816
 21
8.575140079072415
 31
0.0
  0
SOLID
  5
6A2
330
4B0
100
AcDbEntity
  8
DIM
 62
     0
100
AcDbTrace
 10
14.95690174906816
 20
9.156806745739082
 30
0.0
 11
15.01690174906816
 21
9.156806745739082
 31
0.0
 12
14.98690174906816
 22
9.336806745739082
 32
0.0
 13
14.98690174906816
 23
9.336806745739082
 33
0.0
  0
SOLID
  5
6A3
330
4B0
100
AcDbEntity
  8
DIM
 62
     0
100
AcDbTrace
 10
14.95690174906816
 20
8.32680674573908
 30
0.0
 11
15.01690174906816
 21
8.32680674573908
 31
0.0
 12
14.98690174906816
 22
8.14680674573908
 32
0.0
 13
14.98690174906816
 23
8.14680674573908
 33
0.0
  0
MTEXT
  5
6A4
330
4B0
100
AcDbEntity
  8
DIM
 62
     0
100
AcDbMText
 10
14.98690174906816
 20
8.741806745739083
 30
0.0
 40
0.14
 41
0.0
 71
     5
 72
     1
  1
\A1;60.45 [2.38in.]
  7
ROMANS
 73
     1
 44
1.0
  0
POINT
  5
6A5
330
4B0
100
AcDbEntity
  8
DEFPOINTS
 62
     0
100
AcDbPoint
 10
12.89870735385566
 20
9.336806745739082
 30
0.0
  0
POINT
  5
6A6
330
4B0
100
AcDbEntity
  8
DEFPOINTS
 62
     0
100
AcDbPoint
 10
13.28132988324984
 20
8.14680674573908
 30
0.0
  0
POINT
  5
6A7
330
4B0
100
AcDbEntity
  8
DEFPOINTS
 62
     0
100
AcDbPoint
 10
14.98690174906816
 20
8.14680674573908
 30
0.0
  0
ENDBLK
  5
4BC
330
4B0
100
AcDbEntity
  8
0
100
AcDbBlockEnd
  0
BLOCK
  5
4C9
330
4BD
100
AcDbEntity
  8
0
100
AcDbBlockBegin
  2
*D37
 70
     1
 10
0.0
 20
0.0
 30
0.0
  3
*D37
  1

  0
LINE
  5
6F5
330
4BD
100
AcDbEntity
  8
DIM
 62
     0
370
    -2
100
AcDbLine
 10
18.79738989495416
 20
12.81169473100923
 30
0.0
 11
17.42283748824743
 21
15.19248933709137
 31
0.0
  0
LINE
  5
6F6
330
4BD
100
AcDbEntity
  8
DIM
 62
     0
370
    -2
100
AcDbLine
 10
17.46874425437931
 20
13.48797648573978
 30
0.0
 11
16.71919184767257
 21
14.78623933709137
 31
0.0
  0
LINE
  5
6F7
330
4BD
100
AcDbEntity
  8
DIM
 62
     0
370
    -2
100
AcDbLine
 10
17.64372206092862
 20
15.16990603459939
 30
0.0
 11
17.79960663360982
 21
15.25990603459939
 31
0.0
  0
LINE
  5
6F8
330
4BD
100
AcDbEntity
  8
DIM
 62
     0
370
    -2
100
AcDbLine
 10
16.62830727499137
 20
14.58365603459939
 30
0.0
 11
16.46619335653074
 21
14.49005952013676
 31
0.0
  0
LINE
  5
6F9
330
4BD
100
AcDbEntity
  8
DIM
 62
     0
370
    -2
100
AcDbLine
 10
16.46619335653074
 20
14.49005952013676
 30
0.0
 11
16.28619335653074
 21
14.49005952013676
 31
0.0
  0
SOLID
  5
6FA
330
4BD
100
AcDbEntity
  8
DIM
 62
     0
100
AcDbTrace
 10
17.62872206092862
 20
15.19588679671292
 30
0.0
 11
17.65872206092862
 21
15.14392527248586
 31
0.0
 12
17.48783748824743
 22
15.07990603459939
 32
0.0
 13
17.48783748824743
 23
15.07990603459939
 33
0.0
  0
SOLID
  5
6FB
330
4BD
100
AcDbEntity
  8
DIM
 62
     0
100
AcDbTrace
 10
16.61330727499137
 20
14.60963679671293
 30
0.0
 11
16.64330727499137
 21
14.55767527248586
 31
0.0
 12
16.78419184767257
 22
14.67365603459939
 32
0.0
 13
16.78419184767257
 23
14.67365603459939
 33
0.0
  0
MTEXT
  5
6FC
330
4BD
100
AcDbEntity
  8
DIM
 62
     0
100
AcDbMText
 10
15.29952668986408
 20
14.49005952013676
 30
0.0
 40
0.14
 41
0.0
 71
     5
 72
     1
  1
\A1;41.275 [1.625in.]
  7
ROMANS
 73
     1
 44
1.0
  0
POINT
  5
6FD
330
4BD
100
AcDbEntity
  8
DEFPOINTS
 62
     0
100
AcDbPoint
 10
18.82738989495416
 20
12.75973320678216
 30
0.0
  0
POINT
  5
6FE
330
4BD
100
AcDbEntity
  8
DEFPOINTS
 62
     0
100
AcDbPoint
 10
17.49874425437931
 20
13.43601496151271
 30
0.0
  0
POINT
  5
6FF
330
4BD
100
AcDbEntity
  8
DEFPOINTS
 62
     0
100
AcDbPoint
 10
16.78419184767257
 20
14.67365603459939
 30
0.0
  0
ENDBLK
  5
4CA
330
4BD
100
AcDbEntity
  8
0
100
AcDbBlockEnd
  0
BLOCK
  5
4D7
330
4CB
100
AcDbEntity
  8
0
100
AcDbBlockBegin
  2
*D38
 70
     1
 10
0.0
 20
0.0
 30
0.0
  3
*D38
  1

  0
LINE
  5
700
330
4CB
100
AcDbEntity
  8
DIM
 62
     0
370
    -2
100
AcDbLine
 10
19.23040259684638
 20
13.06169473100924
 30
0.0
 11
18.06773896445145
 21
15.07548721442985
 31
0.0
  0
LINE
  5
701
330
4CB
100
AcDbEntity
  8
DIM
 62
     0
370
    -2
100
AcDbLine
 10
17.46874425437931
 20
13.48797648573978
 30
0.0
 11
16.93108062198437
 21
14.41923721442984
 31
0.0
  0
LINE
  5
702
330
4CB
100
AcDbEntity
  8
DIM
 62
     0
370
    -2
100
AcDbLine
 10
18.28862353713264
 20
15.05290391193787
 30
0.0
 11
18.44450810981384
 21
15.14290391193787
 31
0.0
  0
LINE
  5
703
330
4CB
100
AcDbEntity
  8
DIM
 62
     0
370
    -2
100
AcDbLine
 10
16.84019604930317
 20
14.21665391193787
 30
0.0
 11
16.67026022610778
 21
14.11854141867105
 31
0.0
  0
LINE
  5
704
330
4CB
100
AcDbEntity
  8
DIM
 62
     0
370
    -2
100
AcDbLine
 10
16.67026022610778
 20
14.11854141867105
 30
0.0
 11
16.49026022610778
 21
14.11854141867105
 31
0.0
  0
SOLID
  5
705
330
4CB
100
AcDbEntity
  8
DIM
 62
     0
100
AcDbTrace
 10
18.27362353713264
 20
15.0788846740514
 30
0.0
 11
18.30362353713264
 21
15.02692314982434
 31
0.0
 12
18.13273896445144
 22
14.96290391193787
 32
0.0
 13
18.13273896445144
 23
14.96290391193787
 33
0.0
  0
SOLID
  5
706
330
4CB
100
AcDbEntity
  8
DIM
 62
     0
100
AcDbTrace
 10
16.82519604930317
 20
14.2426346740514
 30
0.0
 11
16.85519604930317
 21
14.19067314982433
 31
0.0
 12
16.99608062198437
 22
14.30665391193787
 32
0.0
 13
16.99608062198437
 23
14.30665391193787
 33
0.0
  0
MTEXT
  5
707
330
4CB
100
AcDbEntity
  8
DIM
 62
     0
100
AcDbMText
 10
15.50692689277445
 20
14.11854141867105
 30
0.0
 40
0.14
 41
0.0
 71
     5
 72
     1
  1
\A1;66.675 [2.625in.]
  7
ROMANS
 73
     1
 44
1.0
  0
POINT
  5
708
330
4CB
100
AcDbEntity
  8
DEFPOINTS
 62
     0
100
AcDbPoint
 10
19.26040259684638
 20
13.00973320678217
 30
0.0
  0
POINT
  5
709
330
4CB
100
AcDbEntity
  8
DEFPOINTS
 62
     0
100
AcDbPoint
 10
17.49874425437931
 20
13.43601496151271
 30
0.0
  0
POINT
  5
70A
330
4CB
100
AcDbEntity
  8
DEFPOINTS
 62
     0
100
AcDbPoint
 10
16.99608062198437
 20
14.30665391193787
 30
0.0
  0
ENDBLK
  5
4D8
330
4CB
100
AcDbEntity
  8
0
100
AcDbBlockEnd
  0
BLOCK
  5
509
330
4FD
100
AcDbEntity
  8
0
100
AcDbBlockBegin
  2
*D39
 70
     1
 10
0.0
 20
0.0
 30
0.0
  3
*D39
  1

  0
LINE
  5
667
330
4FD
100
AcDbEntity
  8
DIM
 62
     0
370
    -2
100
AcDbLine
 10
12.86870735385565
 20
9.388768269966151
 30
0.0
 11
11.94572893645293
 21
10.98741378319717
 31
0.0
  0
LINE
  5
668
330
4FD
100
AcDbEntity
  8
DIM
 62
     0
370
    -2
100
AcDbLine
 10
13.70796631966205
 20
10.31512910048176
 30
0.0
 11
12.97629916695642
 21
11.58241378319717
 31
0.0
  0
LINE
  5
669
330
4FD
100
AcDbEntity
  8
DIM
 62
     0
370
    -2
100
AcDbLine
 10
11.85484436377173
 20
10.78483048070519
 30
0.0
 11
11.69895979109053
 21
10.69483048070519
 31
0.0
  0
LINE
  5
66A
330
4FD
100
AcDbEntity
  8
DIM
 62
     0
370
    -2
100
AcDbLine
 10
13.19718373963762
 20
11.55983048070519
 30
0.0
 11
13.35306831231881
 21
11.64983048070519
 31
0.0
  0
LINE
  5
66B
330
4FD
100
AcDbEntity
  8
DIM
 62
     0
370
    -2
100
AcDbLine
 10
13.35306831231881
 20
11.64983048070519
 30
0.0
 11
13.53306831231881
 21
11.64983048070519
 31
0.0
  0
SOLID
  5
66C
330
4FD
100
AcDbEntity
  8
DIM
 62
     0
100
AcDbTrace
 10
11.83984436377173
 20
10.81081124281872
 30
0.0
 11
11.86984436377173
 21
10.75884971859166
 31
0.0
 12
12.01072893645293
 22
10.87483048070519
 32
0.0
 13
12.01072893645293
 23
10.87483048070519
 33
0.0
  0
SOLID
  5
66D
330
4FD
100
AcDbEntity
  8
DIM
 62
     0
100
AcDbTrace
 10
13.18218373963762
 20
11.58581124281873
 30
0.0
 11
13.21218373963762
 21
11.53384971859166
 31
0.0
 12
13.04129916695642
 22
11.46983048070519
 32
0.0
 13
13.04129916695642
 23
11.46983048070519
 33
0.0
  0
MTEXT
  5
66E
330
4FD
100
AcDbEntity
  8
DIM
 62
     0
100
AcDbMText
 10
14.38306831231881
 20
11.64983048070519
 30
0.0
 40
0.14
 41
0.0
 71
     5
 72
     1
  1
\A1;60.45 [2.38in.]
  7
ROMANS
 73
     1
 44
1.0
  0
POINT
  5
66F
330
4FD
100
AcDbEntity
  8
DEFPOINTS
 62
     0
100
AcDbPoint
 10
12.89870735385565
 20
9.336806745739085
 30
0.0
  0
POINT
  5
670
330
4FD
100
AcDbEntity
  8
DEFPOINTS
 62
     0
100
AcDbPoint
 10
13.73796631966205
 20
10.26316757625469
 30
0.0
  0
POINT
  5
671
330
4FD
100
AcDbEntity
  8
DEFPOINTS
 62
     0
100
AcDbPoint
 10
13.04129916695642
 20
11.46983048070519
 30
0.0
  0
ENDBLK
  5
50A
330
4FD
100
AcDbEntity
  8
0
100
AcDbBlockEnd
  0
BLOCK
  5
559
330
54D
100
AcDbEntity
  8
0
100
AcDbBlockBegin
  2
*D40
 70
     1
 10
0.0
 20
0.0
 30
0.0
  3
*D40
  1

  0
LINE
  5
672
330
54D
100
AcDbEntity
  8
DIM
 62
     0
370
    -2
100
AcDbLine
 10
12.89870735385566
 20
9.396806745739084
 30
0.0
 11
12.89870735385566
 21
12.71179262043451
 31
0.0
  0
ARC
  5
673
330
54D
100
AcDbEntity
  8
DIM
 62
     0
370
    -2
100
AcDbCircle
 10
12.89870735385566
 20
9.336806745739085
 30
0.0
 40
3.244985874695428
100
AcDbArc
 50
33.17861568192347
 51
55.90226050703091
  0
ARC
  5
674
330
54D
100
AcDbEntity
  8
DIM
 62
     0
370
    -2
100
AcDbCircle
 10
12.89870735385566
 20
9.336806745739085
 30
0.0
 40
3.244985874695428
100
AcDbArc
 50
63.93479834435446
 51
86.82138431807658
  0
SOLID
  5
675
330
54D
100
AcDbEntity
  8
DIM
 62
     0
100
AcDbTrace
 10
15.64021344574931
 20
11.12834293805964
 30
0.0
 11
15.58910396362375
 21
11.0969133208673
 31
0.0
 12
15.70894755626356
 22
10.95929968308679
 32
0.0
 13
15.70894755626356
 23
10.95929968308679
 33
0.0
  0
SOLID
  5
676
330
54D
100
AcDbEntity
  8
DIM
 62
     0
100
AcDbTrace
 10
13.07780605640066
 20
12.54681184361789
 30
0.0
 11
13.07947016225767
 21
12.60678876210906
 31
0.0
 12
12.89870735385565
 22
12.58179262043451
 32
0.0
 13
12.89870735385565
 23
12.58179262043451
 33
0.0
  0
MTEXT
  5
677
330
54D
100
AcDbEntity
  8
DIM
 62
     0
100
AcDbMText
 10
14.52120029120337
 20
12.14704694814699
 30
0.0
 40
0.14
 41
0.0
 71
     5
 72
     1
  1
\A1;60°
  7
ROMANS
 73
     1
 44
1.0
  0
POINT
  5
678
330
54D
100
AcDbEntity
  8
DEFPOINTS
 62
     0
100
AcDbPoint
 10
14.98454406771771
 20
11.82261014304909
 30
0.0
  0
POINT
  5
679
330
54D
100
AcDbEntity
  8
DEFPOINTS
 62
     0
100
AcDbPoint
 10
12.89870735385565
 20
9.336806745739083
 30
0.0
  0
POINT
  5
67A
330
54D
100
AcDbEntity
  8
DEFPOINTS
 62
     0
100
AcDbPoint
 10
12.89870735385566
 20
8.026806745739087
 30
0.0
  0
POINT
  5
67B
330
54D
100
AcDbEntity
  8
DEFPOINTS
 62
     0
100
AcDbPoint
 10
12.89870735385566
 20
2.694524354037199
 30
0.0
  0
POINT
  5
67C
330
54D
100
AcDbEntity
  8
DEFPOINTS
 62
     0
100
AcDbPoint
 10
20.94223929541359
 20
13.98074207743293
 30
0.0
  0
ENDBLK
  5
55A
330
54D
100
AcDbEntity
  8
0
100
AcDbBlockEnd
  0
ENDSEC
  0
SECTION
  2
ENTITIES
  0
LWPOLYLINE
  5
4E
330
1F
100
AcDbEntity
  8
0
 62
    60
100
AcDbPolyline
 90
        8
 70
     1
 43
0.0
 39
0.25
 10
9.13604426341994
 20
13.43007515926311
 10
9.333048970085549
 20
13.43007515926311
 10
9.642627768167045
 20
12.3615530219737
 10
10.00849364308169
 20
13.43007515926311
 10
10.23364182591345
 20
13.43007515926311
 10
9.755201859582932
 20
12.10848199393729
 10
9.530053676751158
 20
12.10848199393729
 10
9.107900787253782
 20
13.43007515926311
  0
LWPOLYLINE
  5
50
330
1F
100
AcDbEntity
  8
0
 62
    60
100
AcDbPolyline
 90
       19
 70
     1
 43
0.0
 39
0.25
 10
10.61953291324952
 20
13.08085875388777
 10
10.43162075161862
 20
13.0540375581326
 10
10.29739777013219
 20
12.9467527410677
 10
10.20344172044195
 20
12.80594141228673
 10
10.16317478864577
 20
12.67854071542757
 10
10.16317478864577
 20
12.49749755896963
 10
10.20344172044195
 20
12.34327566635529
 10
10.31082008073092
 20
12.19575902161342
 10
10.44504306221735
 20
12.12200071626459
 10
10.58597719900314
 20
12.09517952050942
 10
10.76046705003531
 20
12.10859011838701
 10
10.90811234212046
 20
12.19575902161342
 10
10.99535723651135
 20
12.28963324080073
 10
11.05575757195519
 20
12.44385516745929
 10
11.06246872725456
 20
12.61148769199543
 10
11.04904647890624
 20
12.73218310693791
 10
10.99535723651135
 20
12.87969971763556
 10
10.88126772092302
 20
13.00039516662227
 10
10.75375589473596
 20
13.06744815601019
  0
LWPOLYLINE
  5
51
330
1F
100
AcDbEntity
  8
0
 62
    60
100
AcDbPolyline
 90
       16
 70
     1
 43
0.0
 39
0.25
 10
10.61953291324952
 20
12.94004745915102
 10
10.50544339766119
 20
12.89981563147405
 10
10.39806503737222
 20
12.81935201016432
 10
10.3645092608754
 20
12.73218310693791
 10
10.34437579497732
 20
12.59137177815694
 10
10.35779810557604
 20
12.4237392536208
 10
10.42490959631926
 20
12.32986503443348
 10
10.49873224236183
 20
12.26951732696224
 10
10.61282175795017
 20
12.22928553332949
 10
10.75375589473596
 20
12.27622264292314
 10
10.84771200667661
 20
12.37680214402715
 10
10.87455656562364
 20
12.48408696109204
 10
10.88797887622237
 20
12.62489828987301
 10
10.86784541032429
 20
12.75900430269308
 10
10.78731167123277
 20
12.87299443571888
 10
10.6933555592921
 20
12.91993154531254
  0
LWPOLYLINE
  5
52
330
1F
100
AcDbEntity
  8
0
 62
    60
100
AcDbPolyline
 90
       16
 70
     1
 43
0.0
 39
0.25
 10
12.12283026854722
 20
12.94004745915102
 10
12.00874075295888
 20
12.89981563147405
 10
11.90136239266991
 20
12.81935201016432
 10
11.86780661617309
 20
12.73218310693791
 10
11.84767315027501
 20
12.59137177815694
 10
11.86109546087373
 20
12.4237392536208
 10
11.92820695161695
 20
12.32986503443348
 10
12.00202959765952
 20
12.26951732696224
 10
12.11611911324786
 20
12.22928553332949
 10
12.25705325003365
 20
12.27622264292314
 10
12.3510093619743
 20
12.37680214402715
 10
12.37785392092134
 20
12.48408696109204
 10
12.39127623152006
 20
12.62489828987301
 10
12.37114276562198
 20
12.75900430269308
 10
12.29060902653046
 20
12.87299443571888
 10
12.19665291458979
 20
12.91993154531254
  0
LWPOLYLINE
  5
53
330
1F
100
AcDbEntity
  8
0
 62
    60
100
AcDbPolyline
 90
       19
 70
     1
 43
0.0
 39
0.25
 10
12.12283026854722
 20
13.08085875388777
 10
11.93491810691631
 20
13.0540375581326
 10
11.80069512542988
 20
12.9467527410677
 10
11.70673907573964
 20
12.80594141228673
 10
11.66647214394346
 20
12.67854071542757
 10
11.66647214394346
 20
12.49749755896963
 10
11.70673907573964
 20
12.34327566635529
 10
11.81411743602861
 20
12.19575902161342
 10
11.94834041751504
 20
12.12200071626459
 10
12.08927455430083
 20
12.09517952050942
 10
12.263764405333
 20
12.10859011838701
 10
12.41140969741815
 20
12.19575902161342
 10
12.49865459180904
 20
12.28963324080073
 10
12.55905492725288
 20
12.44385516745929
 10
12.56576608255225
 20
12.61148769199543
 10
12.55234383420393
 20
12.73218310693791
 10
12.49865459180904
 20
12.87969971763556
 10
12.38456507622071
 20
13.00039516662227
 10
12.25705325003365
 20
13.06744815601019
  0
LWPOLYLINE
  5
54
330
1F
100
AcDbEntity
  8
0
 62
    60
100
AcDbPolyline
 90
        4
 70
     1
 43
0.0
 39
0.25
 10
11.28393666538228
 20
13.4831768263922
 10
11.45842651641446
 20
13.4831768263922
 10
11.45842651641446
 20
12.12200071626459
 10
11.28393666538228
 20
12.12200071626459
  0
LWPOLYLINE
  5
55
330
1F
100
AcDbEntity
  8
0
 62
    60
100
AcDbPolyline
 90
        9
 70
     1
 43
0.0
 39
0.25
 10
9.121831248013521
 20
11.59686835047198
 10
9.89080076205537
 20
11.59686835047198
 10
10.25990608646518
 20
9.215140080306039
 10
10.6290114731254
 20
11.59686835047198
 10
11.38260158568134
 20
11.59686835047198
 10
11.38260158568134
 20
11.52003840517488
 10
10.6290114731254
 20
8.277814740872546
 10
9.829283218362142
 20
8.277814740872546
 10
9.121831248013521
 20
11.53540440104315
  0
LWPOLYLINE
  5
56
330
1F
100
AcDbEntity
  8
0
 62
    60
100
AcDbPolyline
 90
        4
 70
     1
 43
0.0
 39
0.25
 10
11.52101607455371
 20
10.69027500277502
 10
12.21308864341642
 20
10.69027500277502
 10
12.21308864341642
 20
8.293180736740811
 10
11.52101607455371
 20
8.293180736740811
  0
LWPOLYLINE
  5
57
330
1F
100
AcDbEntity
  8
0
 62
    60
100
AcDbPolyline
 90
       18
 70
     1
 43
0.0
 39
0.25
 10
11.81014859838735
 20
11.84426076820069
 10
11.93010783037681
 20
11.84118756221819
 10
12.04391535157222
 20
11.80430919256089
 10
12.15464695512021
 20
11.71518645737802
 10
12.23769567334379
 20
11.59840493644112
 10
12.26230264102075
 20
11.42630587804037
 10
12.23769567334379
 20
11.24191399570964
 10
12.10543289526545
 20
11.08825410511544
 10
11.96701834414265
 20
11.0267901556866
 10
11.8439832567562
 20
11.00220454187085
 10
11.69326522179493
 20
11.0267901556866
 10
11.58868532904097
 20
11.08825410511544
 10
11.49333312697891
 20
11.18966963018408
 10
11.45027084016859
 20
11.32796352491001
 10
11.44411906712414
 20
11.45703783573268
 10
11.46565024165451
 20
11.60455134840612
 10
11.57330598980547
 20
11.75513803301782
 10
11.69018936639791
 20
11.81967518842916
  0
LWPOLYLINE
  5
58
330
1F
100
AcDbEntity
  8
0
 62
    60
100
AcDbPolyline
 90
       10
 70
     1
 43
0.0
 39
0.25
 10
13.68298858728034
 20
9.724123671429264
 10
13.16603410066689
 20
9.724123671429264
 10
13.15932039310038
 20
9.851572745128184
 10
13.21974363669801
 20
10.07293164827083
 10
13.31373535587769
 20
10.18025714818126
 10
13.3942997221748
 20
10.22050422766978
 10
13.47486402622149
 20
10.22721206290313
 10
13.59571057566715
 20
10.160133608437
 10
13.67627494196426
 20
9.965606114316184
 10
13.68298858728034
 20
9.791202125895399
  0
LWPOLYLINE
  5
59
330
1F
100
AcDbEntity
  8
0
 62
    60
100
AcDbPolyline
 90
       28
 70
     1
 43
0.0
 39
0.25
 10
13.46815038090541
 20
10.75042399412126
 10
13.05190125878772
 20
10.63639062493326
 10
12.76321233143176
 20
10.40832388655726
 10
12.58865624595498
 20
10.07963948350418
 10
12.4879508192088
 20
9.710708000962572
 10
12.46109605119323
 20
9.321652978676706
 10
12.51480564947478
 20
8.939305791624182
 10
12.68936167270115
 20
8.624037059037792
 10
12.95119583204154
 20
8.3825546501951
 10
13.31373535587769
 20
8.26181341172953
 10
13.74341189312838
 20
8.241689871985268
 10
14.2133705512772
 20
8.349015405939919
 10
14.13280618498009
 20
8.858811632647135
 10
13.94482274662073
 20
8.80514888269192
 10
13.69641600241332
 20
8.771609672480966
 10
13.50171885648747
 20
8.791733178181008
 10
13.37415859947532
 20
8.831980257669531
 10
13.25331211228007
 20
8.92589008711327
 10
13.18617516111595
 20
9.080170535789793
 10
13.17274774598296
 20
9.214327444722055
 10
14.30736227045689
 20
9.214327444722055
 10
14.30736227045689
 20
9.549719717052706
 10
14.31407597802338
 20
9.757662915684445
 10
14.28722121000781
 20
9.999145324527138
 10
14.22008425884369
 20
10.2339199321807
 10
14.09923770939804
 20
10.46869450579005
 10
13.91796791635475
 20
10.62968278969992
 10
13.70312970997983
 20
10.72359261914366
  0
LWPOLYLINE
  5
5A
330
1F
100
AcDbEntity
  8
0
 62
    60
100
AcDbPolyline
 90
       14
 70
     1
 43
0.0
 39
0.25
 10
14.38437518816451
 20
10.69009215125757
 10
15.11616794340331
 20
10.69009215125757
 10
15.30415144401308
 20
9.013130823648527
 10
15.63312249226717
 20
10.68338431602422
 10
16.16350445626403
 20
10.68338431602422
 10
16.47233444406906
 20
9.05337790313705
 10
16.68717265044398
 20
10.69009215125757
 10
17.36525586965166
 20
10.69009215125757
 10
16.75430960160811
 20
8.27526785856531
 10
16.15679074869754
 20
8.27526785856531
 10
15.88824294404108
 20
9.750993822775964
 10
15.53913077308749
 20
8.28197569379866
 10
14.95503927305951
 20
8.28197569379866
 10
14.36423406546502
 20
10.64984507176904
  0
LWPOLYLINE
  5
5B
330
1F
100
AcDbEntity
  8
0
 62
    60
100
AcDbPolyline
 90
       13
 70
     1
 43
0.0
 39
0.25
 10
14.59380339747423
 20
7.812712892532918
 10
13.91823409914152
 20
7.812712892532918
 10
13.91823409914152
 20
6.521083306804275
 10
14.63550520140215
 20
6.521083306804275
 10
14.63550520140215
 20
6.675245553941305
 10
14.09755190583189
 20
6.675245553941305
 10
14.09755190583189
 20
7.116899546371211
 10
14.58546302423856
 20
7.116899546371211
 10
14.58546302423856
 20
7.291894508445221
 10
14.09755190583189
 20
7.291894508445221
 10
14.09755190583189
 20
7.650217538994557
 10
14.6021437707099
 20
7.650217538994557
 10
14.6021437707099
 20
7.812712892532918
  0
LWPOLYLINE
  5
5C
330
1F
100
AcDbEntity
  8
0
 62
    60
100
AcDbPolyline
 90
       16
 70
     1
 43
0.0
 39
0.25
 10
14.906566989184
 20
7.450223291760803
 10
14.72724918249365
 20
7.450223291760803
 10
14.72724918249365
 20
7.408557827842631
 10
15.04418292969603
 20
7.0002362269738
 10
14.71890880925798
 20
6.558582234543894
 10
14.72307902700102
 20
6.521083306804275
 10
14.92324767340491
 20
6.521083306804275
 10
15.1317567552949
 20
6.854407086238087
 10
15.3694570501341
 20
6.529416413205598
 10
15.54460463908141
 20
6.529416413205598
 10
15.54460463908141
 20
6.575248413302322
 10
15.24018142060731
 20
7.004402763152352
 10
15.54043442133837
 20
7.408557827842631
 10
15.54043442133837
 20
7.458556398162127
 10
15.36528683239106
 20
7.458556398162127
 10
15.14009706628016
 20
7.141898831530962
  0
LWPOLYLINE
  5
5D
330
1F
100
AcDbEntity
  8
0
 62
    60
100
AcDbPolyline
 90
       16
 70
     1
 43
0.0
 39
0.25
 10
16.0725761423978
 20
7.324975687690656
 10
16.21897611487361
 20
7.324975687690656
 10
16.31006939234718
 20
7.269717250996553
 10
16.37513608136444
 20
7.175452816934349
 10
16.39465606939448
 20
7.06493587545771
 10
16.39140273805614
 20
6.87965751562503
 10
16.35236276199604
 20
6.772391082440119
 10
16.29054940431713
 20
6.707381154915051
 10
16.20596278952024
 20
6.674876174130407
 10
16.09534946176619
 20
6.671625665838671
 10
16.01076284696929
 20
6.697629630039859
 10
15.94569615795204
 20
6.75613860906991
 10
15.91316284456863
 20
6.808146571516498
 10
15.91316284456863
 20
7.155949835272405
 10
15.97497620224754
 20
7.243713252751152
 10
16.03678949767604
 20
7.308723214320441
  0
LWPOLYLINE
  5
5E
330
1F
100
AcDbEntity
  8
0
 62
    60
100
AcDbPolyline
 90
       18
 70
     1
 43
0.0
 39
0.25
 10
15.70494957666433
 20
7.458246119120968
 10
15.70494957666433
 20
6.164548040495485
 10
15.9034028505536
 20
6.164548040495485
 10
15.9034028505536
 20
6.606615704269383
 10
16.04329616035272
 20
6.502599779376208
 10
16.18644280149018
 20
6.4895977802535
 10
16.36212275601107
 20
6.518852286790636
 10
16.49225607179516
 20
6.626118685931327
 10
16.57684268659205
 20
6.785393081562826
 10
16.60937599997548
 20
6.993424931349178
 10
16.57033602391537
 20
7.204707289427265
 10
16.47924268419137
 20
7.360731176767028
 10
16.3491094306577
 20
7.454995610829239
 10
16.27428274762542
 20
7.48099957503042
 10
16.05630948570609
 20
7.48099957503042
 10
15.93593616393703
 20
7.396486665843408
 10
15.8806295311852
 20
7.341228195105085
 10
15.8806295311852
 20
7.464747101660211
  0
LWPOLYLINE
  5
5F
330
1F
100
AcDbEntity
  8
0
 62
    60
100
AcDbPolyline
 90
       12
 70
     1
 43
0.0
 39
0.25
 10
17.26834205360708
 20
7.468016368318377
 10
17.11543541845459
 20
7.471266842565885
 10
17.02759547231936
 20
7.416008405871782
 10
16.95276878928707
 20
7.315242955226114
 10
16.95276878928707
 20
7.451763860903941
 10
16.80636881681127
 20
7.451763860903941
 10
16.80636881681127
 20
6.509119520281881
 10
16.9853021026705
 20
6.509119520281881
 10
16.9853021026705
 20
7.129964595393435
 10
17.03410213499604
 20
7.237231028578346
 10
17.12194208113128
 20
7.305491464395142
 10
17.26834205360708
 20
7.305491464395142
  0
LWPOLYLINE
  5
60
330
1F
100
AcDbEntity
  8
0
 62
    60
100
AcDbPolyline
 90
        9
 70
     1
 43
0.0
 39
0.25
 10
17.96130187767559
 20
7.097459614608791
 10
17.51234202848357
 20
7.097459614608791
 10
17.52860868517527
 20
7.152718085347107
 10
17.57740865525041
 20
7.243732011117582
 10
17.63271528800221
 20
7.29573997356417
 10
17.69127531434278
 20
7.337996445179793
 10
17.82466189921481
 20
7.334745936888058
 10
17.93527522696885
 20
7.272986483610498
 10
17.96455520901393
 20
7.181972557840023
  0
LWPOLYLINE
  5
61
330
1F
100
AcDbEntity
  8
0
 62
    60
100
AcDbPolyline
 90
       26
 70
     1
 43
0.0
 39
0.25
 10
17.50258203446854
 20
6.94143572726902
 10
18.15324848888818
 20
6.94143572726902
 10
18.15324848888818
 20
7.198225031210238
 10
18.07842186810631
 20
7.34449742771903
 10
17.98407519704397
 20
7.432260879241997
 10
17.88322192555539
 20
7.474517350857613
 10
17.75634194110962
 20
7.48751934998032
 10
17.62295529398719
 20
7.468016368318377
 10
17.47980865284972
 20
7.370501425964437
 10
17.38220871269946
 20
7.243732011117582
 10
17.33666207396268
 20
7.084457615486083
 10
17.33340874262434
 20
6.912181254776111
 10
17.38871537537615
 20
6.726902894943425
 10
17.52535535383692
 20
6.590381989265605
 10
17.66199527004729
 20
6.518871045157073
 10
17.77586192913967
 20
6.492867046911666
 10
18.00684851641237
 20
6.509119520281881
 10
18.09468852479803
 20
6.544875009358253
 10
18.11095518148974
 20
6.587131480973869
 10
18.08167519944466
 20
6.68139591503608
 10
18.05890188007626
 20
6.700898896698024
 10
17.94503522098388
 20
6.665143441665865
 10
17.77260859780133
 20
6.668393915913373
 10
17.67500865765107
 20
6.684646423327809
 10
17.58066198658875
 20
6.75615736743634
 10
17.51884869116025
 20
6.85367227574606
  0
LWPOLYLINE
  5
63
330
1F
100
AcDbEntity
  8
0
 62
    60
100
AcDbPolyline
 90
       51
 70
     1
 43
0.0
 39
0.25
 10
18.85957304191889
 20
7.422712257931134
 10
18.82866633195422
 20
7.302000569850438
 10
18.78933060415886
 20
7.304807822369081
 10
18.73875606142171
 20
7.332880313511328
 10
18.67413309338297
 20
7.344109289541695
 10
18.59546157554183
 20
7.344109289541695
 10
18.53926762533379
 20
7.318844084962318
 10
18.49712222492819
 20
7.265506355196475
 10
18.49431249006754
 20
7.206554154437558
 10
18.50555130500931
 20
7.164445434746308
 10
18.55612584774645
 20
7.119529462536402
 10
18.6291778958663
 20
7.083035247882438
 10
18.69942033362635
 20
7.060577261777492
 10
18.76966270913595
 20
7.021275794604878
 10
18.82304698673375
 20
6.984781545906695
 10
18.86238271452913
 20
6.953901836290025
 10
18.89890876971426
 20
6.889335130493822
 10
18.91295725726627
 20
6.765816223938696
 10
18.87643120208113
 20
6.639490064864933
 10
18.79214027676908
 20
6.55807987800107
 10
18.7106590863177
 20
6.518778376784236
 10
18.63760703819784
 20
6.504742148235227
 10
18.55893552035669
 20
6.504742148235227
 10
18.46902524982418
 20
6.504742148235227
 10
18.42126037969727
 20
6.515971158309813
 10
18.36506649173966
 20
6.535621891896116
 10
18.31168227639229
 20
6.552465372963776
 10
18.2863949738985
 20
6.594574092655026
 10
18.30887254153164
 20
6.695635013105199
 10
18.34258892410653
 20
6.704056770661136
 10
18.44935735480129
 20
6.681598784556189
 10
18.51959979256132
 20
6.653526293413943
 10
18.59546157554183
 20
6.650719040895292
 10
18.65727487097032
 20
6.667562521962953
 10
18.70223000623657
 20
6.701249518142493
 10
18.72751730873035
 20
6.746165490352392
 10
18.73313671620124
 20
6.799503186074016
 10
18.7247075738697
 20
6.852840915839859
 10
18.69099125354522
 20
6.886527877975172
 10
18.5870324954607
 20
6.939865607741015
 10
18.46902524982418
 20
6.981974327432272
 10
18.36787616434989
 20
7.071806237807852
 10
18.33696951663564
 20
7.111107704980465
 10
18.32292102908364
 20
7.220590382986575
 10
18.34258892410653
 20
7.324458555955391
 10
18.39878281206414
 20
7.394639766788888
 10
18.48869308259665
 20
7.459206472585098
 10
18.57017427304805
 20
7.484471711208694
 10
18.66008460583097
 20
7.487278963727337
 10
18.76404336391549
 20
7.473242701134108
 10
18.85957304191889
 20
7.436748486480144
  0
LWPOLYLINE
  5
64
330
1F
100
AcDbEntity
  8
0
 62
    60
100
AcDbPolyline
 90
       51
 70
     1
 43
0.0
 39
0.25
 10
19.60976191614365
 20
7.422712257931134
 10
19.57885520617898
 20
7.302000569850438
 10
19.53951947838362
 20
7.304807822369081
 10
19.48894493564647
 20
7.332880313511328
 10
19.42432196760774
 20
7.344109289541695
 10
19.34565044976659
 20
7.344109289541695
 10
19.28945649955855
 20
7.318844084962318
 10
19.24731109915295
 20
7.265506355196475
 10
19.2445013642923
 20
7.206554154437558
 10
19.25574017923408
 20
7.164445434746308
 10
19.30631472197122
 20
7.119529462536402
 10
19.37936677009106
 20
7.083035247882438
 10
19.44960920785111
 20
7.060577261777492
 10
19.51985158336071
 20
7.021275794604878
 10
19.57323586095851
 20
6.984781545906695
 10
19.61257158875389
 20
6.953901836290025
 10
19.64909764393903
 20
6.889335130493822
 10
19.66314613149103
 20
6.765816223938696
 10
19.62662007630589
 20
6.639490064864933
 10
19.54232915099385
 20
6.55807987800107
 10
19.46084796054246
 20
6.518778376784236
 10
19.3877959124226
 20
6.504742148235227
 10
19.30912439458145
 20
6.504742148235227
 10
19.21921412404894
 20
6.504742148235227
 10
19.17144925392203
 20
6.515971158309813
 10
19.11525536596442
 20
6.535621891896116
 10
19.06187115061705
 20
6.552465372963776
 10
19.03658384812327
 20
6.594574092655026
 10
19.0590614157564
 20
6.695635013105199
 10
19.09277779833129
 20
6.704056770661136
 10
19.19954622902605
 20
6.681598784556189
 10
19.26978866678608
 20
6.653526293413943
 10
19.34565044976659
 20
6.650719040895292
 10
19.40746374519508
 20
6.667562521962953
 10
19.45241888046133
 20
6.701249518142493
 10
19.47770618295511
 20
6.746165490352392
 10
19.483325590426
 20
6.799503186074016
 10
19.47489644809446
 20
6.852840915839859
 10
19.44118012776998
 20
6.886527877975172
 10
19.33722136968546
 20
6.939865607741015
 10
19.21921412404894
 20
6.981974327432272
 10
19.11806503857465
 20
7.071806237807852
 10
19.0871583908604
 20
7.111107704980465
 10
19.0731099033084
 20
7.220590382986575
 10
19.09277779833129
 20
7.324458555955391
 10
19.1489716862889
 20
7.394639766788888
 10
19.23888195682141
 20
7.459206472585098
 10
19.32036314727281
 20
7.484471711208694
 10
19.41027348005573
 20
7.487278963727337
 10
19.51423223814025
 20
7.473242701134108
 10
19.60976191614365
 20
7.436748486480144
  0
LWPOLYLINE
  5
65
330
1F
100
AcDbEntity
  8
0
 62
    60
100
AcDbPolyline
 90
        8
 70
     1
 43
0.0
 39
0.25
 10
12.62942485386871
 20
13.0544941592408
 10
12.62942485386871
 20
12.99335369801133
 10
12.70421729917116
 20
12.99335369801133
 10
12.70421729917116
 20
12.78955214923171
 10
12.76541107844109
 20
12.78955214923171
 10
12.76541107844109
 20
12.99505206212438
 10
12.83680384167281
 20
12.99505206212438
 10
12.83680384167281
 20
13.0544941592408
  0
LWPOLYLINE
  5
66
330
1F
100
AcDbEntity
  8
0
 62
    60
100
AcDbPolyline
 90
       13
 70
     1
 43
0.0
 39
0.25
 10
12.87080035112809
 20
13.05347392198981
 10
12.87080035112809
 20
12.79023024204955
 10
12.93369400255859
 20
12.79023024204955
 10
12.93369400255859
 20
12.93458965966853
 10
13.00508676579032
 20
12.80381701877704
 10
13.0441827672265
 20
12.80381701877704
 10
13.10197692667611
 20
12.93968471796345
 10
13.10197692667611
 20
12.79192857211838
 10
13.17506949981799
 20
12.79192857211838
 10
13.17506949981799
 20
13.05347392198981
 10
13.10707635640659
 20
13.05347392198981
 10
13.02718448137365
 20
12.89213103346147
 10
12.94049330444966
 20
13.05371185705879
  0
HATCH
  5
215
330
1F
100
AcDbEntity
  8
0
 62
    60
100
AcDbHatch
 10
0.0
 20
0.0
 30
0.25
210
0.0
220
0.0
230
1.0
  2
SOLID
 70
     1
 71
     0
 91
       23
 92
        7
 72
     0
 73
     1
 93
        9
 10
11.38260158568135
 20
11.52003840517493
 10
11.38260158568134
 20
11.59686835047199
 10
10.6290114731254
 20
11.59686835047199
 10
10.25990608646518
 20
9.215140080306049
 10
9.890800762055377
 20
11.59686835047199
 10
9.121831248013528
 20
11.59686835047199
 10
9.121831248013513
 20
11.53540440104317
 10
9.829283218362142
 20
8.27781474087255
 10
10.6290114731254
 20
8.27781474087255
 97
        0
 92
        7
 72
     0
 73
     1
 93
        4
 10
12.21308864341642
 20
10.69027500277502
 10
11.52101607455371
 20
10.69027500277502
 10
11.52101607455371
 20
8.293180736740815
 10
12.21308864341643
 20
8.293180736740815
 97
        0
 92
        7
 72
     0
 73
     1
 93
       18
 10
12.26230264102073
 20
11.42630587804041
 10
12.23769567334378
 20
11.59840493644111
 10
12.15464695512018
 20
11.715186457378
 10
12.04391535157222
 20
11.8043091925609
 10
11.93010783037679
 20
11.8411875622182
 10
11.81014859838737
 20
11.84426076820071
 10
11.6901893663979
 20
11.81967518842915
 10
11.57330598980548
 20
11.75513803301782
 10
11.46565024165451
 20
11.60455134840612
 10
11.44411906712414
 20
11.45703783573271
 10
11.4502708401686
 20
11.32796352490997
 10
11.49333312697891
 20
11.18966963018407
 10
11.58868532904097
 20
11.08825410511547
 10
11.69326522179493
 20
11.0267901556866
 10
11.84398325675618
 20
11.00220454187085
 10
11.96701834414264
 20
11.02679015568659
 10
12.10543289526546
 20
11.08825410511546
 10
12.2376956733438
 20
11.24191399570966
 97
        0
 92
        7
 72
     0
 73
     1
 93
       28
 10
14.22008425884372
 20
10.23391993218069
 10
14.09923770939802
 20
10.46869450579006
 10
13.91796791635475
 20
10.62968278969992
 10
13.70312970997977
 20
10.72359261914366
 10
13.46815038090538
 20
10.75042399412124
 10
13.05190125878773
 20
10.63639062493326
 10
12.76321233143176
 20
10.40832388655728
 10
12.58865624595497
 20
10.07963948350415
 10
12.4879508192088
 20
9.710708000962526
 10
12.46109605119324
 20
9.321652978676752
 10
12.51480564947478
 20
8.939305791624171
 10
12.68936167270114
 20
8.624037059037824
 10
12.95119583204156
 20
8.382554650195089
 10
13.3137353558777
 20
8.261813411729526
 10
13.74341189312838
 20
8.241689871985272
 10
14.21337055127722
 20
8.349015405939923
 10
14.13280618498008
 20
8.858811632647125
 10
13.9448227466208
 20
8.805148882691945
 10
13.6964160024133
 20
8.771609672480948
 10
13.5017188564875
 20
8.79173317818099
 10
13.37415859947535
 20
8.831980257669542
 10
13.25331211228006
 20
8.925890087113273
 10
13.18617516111594
 20
9.080170535789761
 10
13.17274774598296
 20
9.214327444722059
 10
14.30736227045689
 20
9.214327444722052
 10
14.30736227045689
 20
9.549719717052724
 10
14.31407597802338
 20
9.757662915684512
 10
14.28722121000783
 20
9.999145324527162
 97
        0
 92
       22
 72
     0
 73
     1
 93
       10
 10
13.21974363669802
 20
10.07293164827086
 10
13.3137353558777
 20
10.18025714818127
 10
13.39429972217482
 20
10.22050422766979
 10
13.47486402622148
 20
10.22721206290312
 10
13.59571057566717
 20
10.16013360843702
 10
13.67627494196425
 20
9.965606114316194
 10
13.68298858728034
 20
9.791202125895203
 10
13.68298858728034
 20
9.724123671429254
 10
13.16603410066688
 20
9.724123671429275
 10
13.15932039310037
 20
9.851572745128166
 97
        0
 92
        7
 72
     0
 73
     1
 93
       14
 10
15.88824294404108
 20
9.75099382277596
 10
16.15679074869754
 20
8.275267858565307
 10
16.75430960160811
 20
8.275267858565328
 10
17.36525586965166
 20
10.69009215125756
 10
16.68717265044399
 20
10.69009215125756
 10
16.47233444406906
 20
9.05337790313699
 10
16.16350445626403
 20
10.68338431602422
 10
15.63312249226719
 20
10.68338431602423
 10
15.30415144401308
 20
9.013130823648523
 10
15.11616794340331
 20
10.69009215125758
 10
14.38437518816451
 20
10.69009215125758
 10
14.36423406546502
 20
10.64984507176905
 10
14.95503927305949
 20
8.281975693798656
 10
15.53913077308749
 20
8.281975693798656
 97
        0
 92
        7
 72
     0
 73
     1
 93
       12
 10
14.58546302423854
 20
7.291894508445217
 10
14.09755190583189
 20
7.291894508445217
 10
14.09755190583189
 20
7.650217538994553
 10
14.6021437707099
 20
7.650217538994546
 10
14.6021437707099
 20
7.812712892532914
 10
13.91823409914153
 20
7.812712892532907
 10
13.91823409914152
 20
6.521083306804271
 10
14.63550520140215
 20
6.521083306804271
 10
14.63550520140215
 20
6.675245553941302
 10
14.09755190583189
 20
6.675245553941309
 10
14.09755190583189
 20
7.116899546371207
 10
14.58546302423856
 20
7.116899546371207
 97
        0
 92
        7
 72
     0
 73
     1
 93
       16
 10
14.90656698918398
 20
7.450223291760806
 10
14.72724918249365
 20
7.450223291760813
 10
14.72724918249363
 20
7.408557827842628
 10
15.04418292969603
 20
7.000236226973775
 10
14.71890880925798
 20
6.558582234543891
 10
14.723079027001
 20
6.521083306804271
 10
14.9232476734049
 20
6.521083306804264
 10
15.13175675529488
 20
6.854407086238076
 10
15.3694570501341
 20
6.529416413205595
 10
15.54460463908142
 20
6.529416413205602
 10
15.54460463908141
 20
6.57524841330234
 10
15.24018142060731
 20
7.004402763152356
 10
15.54043442133837
 20
7.408557827842621
 10
15.54043442133837
 20
7.45855639816213
 10
15.36528683239104
 20
7.45855639816213
 10
15.14009706628017
 20
7.141898831530966
 97
        0
 92
        7
 72
     0
 73
     1
 93
       18
 10
16.57033602391535
 20
7.204707289427268
 10
16.47924268419136
 20
7.360731176767039
 10
16.34910943065773
 20
7.454995610829222
 10
16.27428274762542
 20
7.480999575030416
 10
16.05630948570609
 20
7.480999575030416
 10
15.93593616393701
 20
7.396486665843404
 10
15.8806295311852
 20
7.341228195105095
 10
15.88062953118519
 20
7.464747101660201
 10
15.70494957666433
 20
7.458246119120971
 10
15.70494957666431
 20
6.164548040495482
 10
15.9034028505536
 20
6.164548040495475
 10
15.9034028505536
 20
6.606615704269387
 10
16.04329616035272
 20
6.502599779376211
 10
16.18644280149021
 20
6.48959778025349
 10
16.36212275601109
 20
6.518852286790632
 10
16.49225607179514
 20
6.626118685931317
 10
16.57684268659203
 20
6.785393081562808
 10
16.60937599997549
 20
6.993424931349188
 97
        0
 92
       22
 72
     0
 73
     1
 93
       16
 10
15.91316284456863
 20
7.155949835272402
 10
15.97497620224753
 20
7.243713252751142
 10
16.03678949767604
 20
7.308723214320437
 10
16.07257614239782
 20
7.32497568769066
 10
16.21897611487361
 20
7.324975687690638
 10
16.31006939234718
 20
7.269717250996571
 10
16.37513608136446
 20
7.175452816934303
 10
16.39465606939447
 20
7.064935875457742
 10
16.39140273805614
 20
6.879657515624991
 10
16.35236276199603
 20
6.772391082440101
 10
16.29054940431712
 20
6.707381154915054
 10
16.20596278952021
 20
6.674876174130403
 10
16.09534946176623
 20
6.671625665838675
 10
16.01076284696929
 20
6.697629630039855
 10
15.94569615795207
 20
6.756138609069857
 10
15.91316284456863
 20
6.808146571516516
 97
        0
 92
        7
 72
     0
 73
     1
 93
       12
 10
16.9853021026705
 20
7.12996459539346
 10
17.03410213499604
 20
7.237231028578349
 10
17.12194208113129
 20
7.305491464395146
 10
17.26834205360708
 20
7.305491464395153
 10
17.26834205360708
 20
7.468016368318373
 10
17.1154354184546
 20
7.471266842565889
 10
17.02759547231933
 20
7.416008405871757
 10
16.95276878928707
 20
7.315242955226125
 10
16.95276878928707
 20
7.45176386090393
 10
16.80636881681127
 20
7.451763860903945
 10
16.80636881681127
 20
6.509119520281885
 10
16.9853021026705
 20
6.509119520281885
 97
        0
 92
        7
 72
     0
 73
     1
 93
       26
 10
18.15324848888818
 20
7.198225031210242
 10
18.07842186810631
 20
7.344497427719026
 10
17.98407519704396
 20
7.432260879242008
 10
17.88322192555539
 20
7.474517350857603
 10
17.75634194110959
 20
7.487519349980317
 10
17.62295529398717
 20
7.468016368318373
 10
17.47980865284972
 20
7.370501425964434
 10
17.38220871269948
 20
7.243732011117593
 10
17.33666207396267
 20
7.084457615486073
 10
17.33340874262433
 20
6.912181254776065
 10
17.38871537537612
 20
6.726902894943435
 10
17.52535535383692
 20
6.590381989265594
 10
17.66199527004725
 20
6.518871045157069
 10
17.7758619291397
 20
6.492867046911676
 10
18.00684851641237
 20
6.509119520281885
 10
18.09468852479803
 20
6.54487500935825
 10
18.11095518148974
 20
6.587131480973866
 10
18.08167519944467
 20
6.681395915036091
 10
18.05890188007626
 20
6.700898896698028
 10
17.94503522098391
 20
6.665143441665868
 10
17.77260859780139
 20
6.66839391591337
 10
17.67500865765107
 20
6.684646423327805
 10
17.58066198658872
 20
6.756157367436344
 10
17.51884869116027
 20
6.853672275746049
 10
17.50258203446856
 20
6.941435727269023
 10
18.15324848888818
 20
6.941435727269031
 97
        0
 92
       22
 72
     0
 73
     1
 93
        9
 10
17.51234202848357
 20
7.09745961460878
 10
17.52860868517528
 20
7.152718085347125
 10
17.57740865525041
 20
7.243732011117586
 10
17.63271528800223
 20
7.295739973564174
 10
17.69127531434278
 20
7.33799644517979
 10
17.8246618992148
 20
7.334745936888062
 10
17.93527522696885
 20
7.272986483610488
 10
17.96455520901392
 20
7.181972557840055
 10
17.96130187767559
 20
7.097459614608794
 97
        0
 92
        7
 72
     0
 73
     1
 93
       51
 10
18.55612584774647
 20
7.119529462536398
 10
18.50555130500931
 20
7.164445434746312
 10
18.49431249006754
 20
7.206554154437569
 10
18.49712222492819
 20
7.265506355196464
 10
18.53926762533379
 20
7.318844084962314
 10
18.59546157554182
 20
7.344109289541691
 10
18.67413309338293
 20
7.344109289541698
 10
18.73875606142171
 20
7.332880313511331
 10
18.78933060415883
 20
7.304807822369085
 10
18.82866633195422
 20
7.302000569850434
 10
18.85957304191889
 20
7.422712257931152
 10
18.85957304191889
 20
7.436748486480141
 10
18.76404336391549
 20
7.473242701134111
 10
18.66008460583103
 20
7.487278963727327
 10
18.57017427304803
 20
7.484471711208691
 10
18.48869308259664
 20
7.459206472585094
 10
18.39878281206412
 20
7.39463976678887
 10
18.34258892410655
 20
7.324458555955381
 10
18.32292102908363
 20
7.220590382986557
 10
18.33696951663561
 20
7.111107704980504
 10
18.36787616434983
 20
7.071806237807834
 10
18.46902524982417
 20
6.981974327432268
 10
18.5870324954607
 20
6.939865607740998
 10
18.69099125354519
 20
6.886527877975169
 10
18.7247075738697
 20
6.852840915839877
 10
18.73313671620122
 20
6.799503186074034
 10
18.72751730873035
 20
6.746165490352417
 10
18.70223000623657
 20
6.701249518142489
 10
18.65727487097029
 20
6.667562521962935
 10
18.59546157554183
 20
6.650719040895317
 10
18.51959979256136
 20
6.653526293413953
 10
18.44935735480132
 20
6.681598784556179
 10
18.34258892410655
 20
6.704056770661154
 10
18.30887254153164
 20
6.695635013105196
 10
18.2863949738985
 20
6.594574092655037
 10
18.31168227639229
 20
6.552465372963794
 10
18.36506649173976
 20
6.535621891896283
 10
18.42126037969728
 20
6.515971158309838
 10
18.46902524982424
 20
6.504742148235223
 10
18.55893552035669
 20
6.504742148235223
 10
18.63760703819785
 20
6.504742148235223
 10
18.7106590863177
 20
6.51877837678424
 10
18.79214027676906
 20
6.558079878001052
 10
18.87643120208115
 20
6.639490064864943
 10
18.91295725726627
 20
6.76581622393872
 10
18.89890876971426
 20
6.889335130493833
 10
18.86238271452912
 20
6.953901836290064
 10
18.82304698673363
 20
6.984781545906734
 10
18.76966270913585
 20
7.021275794604932
 10
18.69942033362639
 20
7.060577261777488
 10
18.62917789586634
 20
7.083035247882406
 97
        0
 92
        7
 72
     0
 73
     1
 93
       51
 10
19.24731109915295
 20
7.265506355196485
 10
19.28945649955855
 20
7.318844084962314
 10
19.34565044976658
 20
7.344109289541691
 10
19.42432196760766
 20
7.344109289541698
 10
19.48894493564644
 20
7.332880313511317
 10
19.53951947838362
 20
7.304807822369085
 10
19.57885520617898
 20
7.302000569850449
 10
19.60976191614365
 20
7.422712257931152
 10
19.60976191614365
 20
7.436748486480141
 10
19.51423223814028
 20
7.473242701134111
 10
19.41027348005579
 20
7.487278963727327
 10
19.3203631472728
 20
7.484471711208691
 10
19.2388819568214
 20
7.459206472585094
 10
19.14897168628888
 20
7.39463976678887
 10
19.09277779833131
 20
7.324458555955381
 10
19.0731099033084
 20
7.220590382986593
 10
19.0871583908604
 20
7.111107704980469
 10
19.1180650385746
 20
7.071806237807869
 10
19.2192141240489
 20
6.981974327432268
 10
19.33722136968533
 20
6.939865607741047
 10
19.44118012776999
 20
6.886527877975183
 10
19.47489644809448
 20
6.852840915839863
 10
19.48332559042599
 20
6.799503186074012
 10
19.47770618295511
 20
6.74616549035241
 10
19.45241888046135
 20
6.701249518142503
 10
19.40746374519511
 20
6.667562521962956
 10
19.3456504497666
 20
6.650719040895303
 10
19.26978866678609
 20
6.653526293413939
 10
19.19954622902601
 20
6.681598784556165
 10
19.09277779833128
 20
6.704056770661132
 10
19.0590614157564
 20
6.695635013105203
 10
19.03658384812327
 20
6.594574092655015
 10
19.06187115061705
 20
6.552465372963766
 10
19.11525536596454
 20
6.535621891896219
 10
19.17144925392196
 20
6.515971158309831
 10
19.21921412404894
 20
6.504742148235223
 10
19.30912439458145
 20
6.504742148235223
 10
19.38779591242258
 20
6.504742148235223
 10
19.46084796054248
 20
6.51877837678424
 10
19.54232915099385
 20
6.558079878001066
 10
19.62662007630588
 20
6.639490064864936
 10
19.66314613149103
 20
6.765816223938735
 10
19.64909764393904
 20
6.88933513049379
 10
19.6125715887539
 20
6.953901836290008
 10
19.57323586095859
 20
6.984781545906649
 10
19.51985158336073
 20
7.021275794604811
 10
19.44960920785115
 20
7.060577261777474
 10
19.37936677009116
 20
7.083035247882413
 10
19.30631472197126
 20
7.119529462536405
 10
19.25574017923408
 20
7.164445434746319
 10
19.2445013642923
 20
7.206554154437569
 97
        0
 92
        7
 72
     0
 73
     1
 93
        4
 10
11.45842651641446
 20
13.48317682639221
 10
11.28393666538227
 20
13.48317682639221
 10
11.28393666538229
 20
12.12200071626459
 10
11.45842651641445
 20
12.12200071626459
 97
        0
 92
        7
 72
     0
 73
     1
 93
       19
 10
12.49865459180905
 20
12.87969971763556
 10
12.38456507622071
 20
13.00039516662227
 10
12.25705325003367
 20
13.0674481560102
 10
12.12283026854723
 20
13.08085875388777
 10
11.93491810691632
 20
13.05403755813262
 10
11.80069512542988
 20
12.9467527410677
 10
11.70673907573962
 20
12.80594141228672
 10
11.66647214394346
 20
12.67854071542758
 10
11.66647214394345
 20
12.49749755896959
 10
11.70673907573964
 20
12.34327566635531
 10
11.81411743602861
 20
12.19575902161341
 10
11.94834041751508
 20
12.12200071626458
 10
12.08927455430085
 20
12.09517952050944
 10
12.26376440533297
 20
12.108590118387
 10
12.41140969741817
 20
12.19575902161344
 10
12.49865459180902
 20
12.28963324080073
 10
12.55905492725288
 20
12.44385516745929
 10
12.56576608255226
 20
12.61148769199542
 10
12.55234383420395
 20
12.73218310693791
 97
        0
 92
       22
 72
     0
 73
     1
 93
       16
 10
11.90136239266993
 20
12.81935201016433
 10
12.00874075295886
 20
12.89981563147404
 10
12.12283026854723
 20
12.94004745915102
 10
12.19665291458983
 20
12.91993154531252
 10
12.29060902653047
 20
12.87299443571889
 10
12.37114276562201
 20
12.75900430269307
 10
12.39127623152006
 20
12.62489828987298
 10
12.37785392092133
 20
12.48408696109201
 10
12.3510093619743
 20
12.37680214402715
 10
12.25705325003364
 20
12.27622264292314
 10
12.11611911324784
 20
12.22928553332948
 10
12.00202959765952
 20
12.26951732696223
 10
11.92820695161695
 20
12.32986503443346
 10
11.86109546087373
 20
12.42373925362081
 10
11.84767315027501
 20
12.59137177815692
 10
11.86780661617309
 20
12.73218310693792
 97
        0
 92
        7
 72
     0
 73
     1
 93
       19
 10
10.99535723651136
 20
12.87969971763555
 10
10.88126772092303
 20
13.00039516662227
 10
10.75375589473597
 20
13.0674481560102
 10
10.6195329132495
 20
13.08085875388778
 10
10.43162075161861
 20
13.0540375581326
 10
10.29739777013219
 20
12.94675274106771
 10
10.20344172044195
 20
12.80594141228672
 10
10.16317478864577
 20
12.67854071542753
 10
10.16317478864577
 20
12.49749755896965
 10
10.20344172044195
 20
12.34327566635529
 10
10.31082008073092
 20
12.19575902161342
 10
10.44504306221736
 20
12.12200071626458
 10
10.5859771990031
 20
12.09517952050943
 10
10.7604670500353
 20
12.10859011838701
 10
10.90811234212045
 20
12.19575902161341
 10
10.99535723651135
 20
12.28963324080073
 10
11.05575757195518
 20
12.44385516745924
 10
11.06246872725456
 20
12.61148769199548
 10
11.04904647890623
 20
12.73218310693789
 97
        0
 92
       22
 72
     0
 73
     1
 93
       16
 10
10.86784541032429
 20
12.75900430269311
 10
10.88797887622239
 20
12.62489828987302
 10
10.87455656562363
 20
12.48408696109197
 10
10.84771200667661
 20
12.37680214402715
 10
10.75375589473596
 20
12.27622264292316
 10
10.61282175795017
 20
12.22928553332948
 10
10.49873224236186
 20
12.26951732696223
 10
10.42490959631929
 20
12.32986503443342
 10
10.35779810557605
 20
12.42373925362083
 10
10.34437579497733
 20
12.59137177815687
 10
10.3645092608754
 20
12.7321831069379
 10
10.39806503737221
 20
12.8193520101643
 10
10.50544339766121
 20
12.89981563147407
 10
10.61953291324953
 20
12.94004745915104
 10
10.69335555929205
 20
12.91993154531255
 10
10.78731167123275
 20
12.87299443571888
 97
        0
 92
        7
 72
     0
 73
     1
 93
        8
 10
10.23364182591346
 20
13.43007515926311
 10
10.00849364308169
 20
13.43007515926311
 10
9.642627768167031
 20
12.36155302197369
 10
9.333048970085542
 20
13.43007515926311
 10
9.13604426341994
 20
13.43007515926311
 10
9.10790078725379
 20
13.4300751592631
 10
9.530053676751151
 20
12.10848199393729
 10
9.755201859582932
 20
12.10848199393729
 97
        0
 92
        7
 72
     0
 73
     1
 93
        8
 10
12.83680384167281
 20
13.05449415924081
 10
12.62942485386872
 20
13.05449415924081
 10
12.62942485386871
 20
12.99335369801134
 10
12.70421729917116
 20
12.99335369801133
 10
12.70421729917116
 20
12.78955214923171
 10
12.76541107844109
 20
12.78955214923171
 10
12.76541107844109
 20
12.99505206212438
 10
12.83680384167281
 20
12.99505206212438
 97
        0
 92
        7
 72
     0
 73
     1
 93
       13
 10
12.94049330444966
 20
13.05371185705878
 10
12.87080035112809
 20
13.05347392198981
 10
12.87080035112809
 20
12.79023024204956
 10
12.9336940025586
 20
12.79023024204957
 10
12.93369400255859
 20
12.93458965966854
 10
13.00508676579033
 20
12.80381701877704
 10
13.04418276722651
 20
12.80381701877704
 10
13.1019769266761
 20
12.93968471796342
 10
13.10197692667613
 20
12.79192857211838
 10
13.175069499818
 20
12.79192857211838
 10
13.175069499818
 20
13.05347392198981
 10
13.10707635640658
 20
13.05347392198981
 10
13.02718448137364
 20
12.89213103346147
 97
        0
 75
     0
 76
     1
 47
0.0192980762832125
 98
       23
 10
10.47847438852778
 20
9.502885425647832
 10
11.65668370149768
 20
9.560779737831069
 10
11.88846265152938
 20
11.31690464247969
 10
13.0087272887016
 20
10.06252976844291
 10
13.0087272887016
 20
10.06252976844291
 10
15.28788618235052
 20
8.8660489365989
 10
14.43803036135546
 20
7.225712521321469
 10
14.95953269037568
 20
7.206414417260418
 10
15.80938875821163
 20
7.052029719767034
 10
15.80938875821163
 20
7.052029719767034
 10
16.89102352923839
 20
7.052029719767034
 10
17.50910040020175
 20
7.052029719767034
 10
17.50910040020175
 20
7.052029719767034
 10
18.47484581963311
 20
7.109924031950242
 10
19.18949747938052
 20
7.225712521321469
 10
11.40558994181372
 20
12.86075080744217
 10
11.84983278538396
 20
12.84145270338109
 10
11.84983278538396
 20
12.84145270338109
 10
10.90340242244576
 20
12.84145270338109
 10
10.90340242244576
 20
12.84145270338109
 10
10.0535463546098
 20
13.20811614056066
 10
12.73831847252444
 20
13.01513536994034
 10
12.93146755641072
 20
12.99583740087447
  0
DIMENSION
  5
39A
102
{ACAD_XDICTIONARY
360
39B
102
}
330
1F
100
AcDbEntity
  8
DIM
 62
   251
100
AcDbDimension
  2
*D39
 10
13.04129916695642
 20
11.46983048070519
 30
0.0
 11
14.38306831231881
 21
11.64983048070519
 31
0.0
 70
   160
 71
     5
 42
60.45200000000015
  3
HALF
100
AcDbAlignedDimension
 13
12.89870735385565
 23
9.336806745739085
 33
0.0
 14
13.73796631966205
 24
10.26316757625469
 34
0.0
 50
30.00000000000001
100
AcDbRotatedDimension
1001
ACAD
1000
DSTYLE
1002
{
1070
   272
1070
     2
1070
   271
1070
     2
1002
}
  0
DIMENSION
  5
39C
330
1F
100
AcDbEntity
  8
DIM
 62
   251
100
AcDbDimension
  2
*D25
 10
11.05162272997776
 20
8.517562331303315
 30
0.0
 11
8.520097452976372
 21
9.384468354175092
 31
0.0
 70
   160
 71
     5
 42
60.45199999999997
  3
HALF
100
AcDbAlignedDimension
 13
12.89870735385566
 23
9.336806745739082
 33
0.0
 14
11.67682585865508
 24
9.600445915223463
 34
0.0
 50
330.0
100
AcDbRotatedDimension
1001
ACAD
1000
DSTYLE
1002
{
1070
   272
1070
     2
1070
   271
1070
     2
1002
}
  0
DIMENSION
  5
39D
330
1F
100
AcDbEntity
  8
DIM
 62
   251
100
AcDbDimension
  2
*D26
 10
9.708654576484219
 20
14.90456636400109
 30
0.0
 11
11.89073602908814
 21
14.31831636400108
 31
0.0
 70
   160
 71
     5
 42
41.27499999999995
  3
HALF
100
AcDbAlignedDimension
 13
9.423902775611914
 23
12.78636177734352
 33
0.0
 14
8.09525713503706
 24
12.11008002261298
 34
0.0
 50
330.0
100
AcDbRotatedDimension
1001
ACAD
1000
DSTYLE
1002
{
1070
   272
1070
     3
1070
   271
1070
     3
1070
   274
1070
     3
1070
   171
1070
     3
1002
}
  0
DIMENSION
  5
39E
330
1F
100
AcDbEntity
  8
DIM
 62
   251
100
AcDbDimension
  2
*D27
 10
9.018182718027047
 20
14.70863402395676
 30
0.0
 11
11.62994353918985
 21
13.87238402395676
 31
0.0
 70
   160
 71
     5
 42
66.67500000000008
  3
HALF
100
AcDbAlignedDimension
 13
9.423902775611914
 23
12.78636177734352
 33
0.0
 14
7.662244433144838
 24
12.36008002261298
 34
0.0
 50
330.0
100
AcDbRotatedDimension
1001
ACAD
1000
DSTYLE
1002
{
1070
   272
1070
     3
1070
   271
1070
     3
1070
   274
1070
     3
1070
   171
1070
     3
1002
}
  0
LINE
  5
39F
330
1F
100
AcDbEntity
  8
DIM
  6
CENTER
 62
   251
100
AcDbLine
 10
12.89870735385566
 20
9.336806745739082
 30
0.0
 11
6.17866668599405
 21
13.21662403429422
 31
0.0
  0
CIRCLE
  5
3A0
330
1F
100
AcDbEntity
  8
DIM
  6
CENTER
 62
   251
100
AcDbCircle
 10
12.89870735385566
 20
9.336806745739082
 30
0.0
 40
1.0
  0
CIRCLE
  5
3A1
330
1F
100
AcDbEntity
  8
DIM
  6
CENTER
 62
   251
 48
0.25
100
AcDbCircle
 10
12.39870735385566
 20
8.470781341954637
 30
0.0
 40
0.15625
  0
CIRCLE
  5
3A2
330
1F
100
AcDbEntity
  8
DIM
  6
CENTER
 62
   251
 48
0.25
100
AcDbCircle
 10
12.39870735385565
 20
10.20283214952351
 30
0.0
 40
0.15625
  0
DIMENSION
  5
3A3
330
1F
100
AcDbEntity
  8
DIM
 62
   251
100
AcDbDimension
  2
*D28
 10
6.17866668599405
 20
13.21662403429422
 30
0.0
 11
11.27679706662106
 21
12.14603776854802
 31
0.0
 70
    34
 71
     5
 42
1.047197551196596
  3
HALF
100
AcDb2LineAngularDimension
 13
12.89870735385566
 23
8.026806745739087
 33
0.0
 14
12.89870735385566
 24
2.694524354037199
 34
0.0
 15
12.89870735385565
 25
9.336806745739085
 35
0.0
 16
11.78925537605295
 26
12.38500100272127
 36
0.0
1001
ACAD
1000
DSTYLE
1002
{
1070
   272
1070
     0
1070
   271
1070
     0
1070
   171
1070
     1
1002
}
  0
LEADER
  5
3A4
330
1F
100
AcDbEntity
  8
DIM
 62
   251
100
AcDbLeader
  3
HALF
 76
     2
 10
11.86814315532089
 20
2.892660706306507
 30
0.0
 10
12.50375231785093
 20
1.878415673521185
 30
0.0
1001
ACAD
1000
DSTYLE
1002
{
1070
   272
1070
     3
1070
   271
1070
     3
1070
   274
1070
     3
1070
   171
1070
     3
1002
}
  0
DIMENSION
  5
3A5
330
1F
100
AcDbEntity
  8
DIM
 62
   251
100
AcDbDimension
  2
*D29
 10
9.562534555942491
 20
10.82113256798987
 30
0.0
 11
8.08913810286398
 21
10.21480545873516
 31
0.0
 70
   161
  1
(<>)
 71
     5
 42
38.87444898644865
  3
HALF
100
AcDbAlignedDimension
 13
8.990214040309011
 23
12.0351908531286
 33
0.0
 14
8.607591510914827
 24
11.37246919209736
 34
0.0
1001
ACAD
1000
DSTYLE
1002
{
1070
   272
1070
     2
1070
   271
1070
     2
1002
}
  0
MTEXT
  5
3A6
330
1F
100
AcDbEntity
  8
DIM
 62
   251
100
AcDbMText
 10
6.33925794130182
 20
8.669858973418868
 30
0.0
 40
0.14
 41
0.0
 71
     4
 72
     1
  1
3X .625-11 UNC-2B\P      TO FIRST WALL\P    INSTALL ITEM 6\P      1.27 [.05in.] FROM FACE
  7
ROMANS
 73
     1
 44
1.0
  0
CIRCLE
  5
3A7
330
1F
100
AcDbEntity
  8
DIM
  6
CENTER
 62
   251
 48
0.25
100
AcDbCircle
 10
11.89870735385565
 20
9.336806745739078
 30
0.0
 40
0.15625
  0
CIRCLE
  5
3A8
330
1F
100
AcDbEntity
  8
DIM
  6
CENTER
 62
   251
 48
0.25
100
AcDbCircle
 10
12.03268195007122
 20
8.836806745739078
 30
0.0
 40
0.15625
  0
CIRCLE
  5
3A9
330
1F
100
AcDbEntity
  8
DIM
  6
CENTER
 62
   251
 48
0.25
100
AcDbCircle
 10
12.03268195007122
 20
9.836806745739078
 30
0.0
 40
0.15625
  0
DIMENSION
  5
3AA
330
1F
100
AcDbEntity
  8
DIM
 62
   251
100
AcDbDimension
  2
*D30
 10
8.3616811871725
 20
14.57154001726993
 30
0.0
 11
11.40978804356086
 21
13.48529001726993
 31
0.0
 70
   160
 71
     5
 42
92.07499999999987
  3
HALF
100
AcDbAlignedDimension
 13
9.423902775611914
 23
12.78636177734352
 33
0.0
 14
7.229231731252623
 24
12.61008002261298
 34
0.0
 50
330.0
100
AcDbRotatedDimension
1001
ACAD
1000
DSTYLE
1002
{
1070
   272
1070
     3
1070
   271
1070
     3
1070
   274
1070
     3
1070
   171
1070
     3
1002
}
  0
LINE
  5
3AB
330
1F
100
AcDbEntity
  8
DIM
  6
CENTER
 62
   251
100
AcDbLine
 10
12.89870735385566
 20
8.026806745739087
 30
0.0
 11
12.89870735385566
 21
2.694524354037199
 31
0.0
  0
DIMENSION
  5
3AC
102
{ACAD_XDICTIONARY
360
3AD
102
}
102
{ACAD_REACTORS
330
3AE
102
}
330
1F
100
AcDbEntity
  8
DIM
 62
   251
100
AcDbDimension
  2
*D40
 10
20.94223929541359
 20
13.98074207743293
 30
0.0
 11
14.52120029120337
 21
12.14704694814699
 31
0.0
 70
    34
 71
     5
 42
1.047197551196596
  3
HALF
100
AcDb2LineAngularDimension
 13
12.89870735385566
 23
8.026806745739087
 33
0.0
 14
12.89870735385566
 24
2.694524354037199
 34
0.0
 15
12.89870735385565
 25
9.336806745739085
 35
0.0
 16
14.98454406771771
 26
11.82261014304909
 36
0.0
1001
ACAD
1000
DSTYLE
1002
{
1070
   272
1070
     0
1070
   271
1070
     0
1070
   171
1070
     1
1002
}
  0
MTEXT
  5
3AF
102
{ACAD_REACTORS
330
3D2
102
}
330
1F
100
AcDbEntity
  8
DIM
 62
   251
100
AcDbMText
 10
14.62275032188062
 20
6.886220464800217
 30
0.0
 40
0.14
 41
0.0
 71
     4
 72
     1
  1
12X DRILL %%c13.487 [%%c.531in.]\P      25.4 [1.00in.] MIN.\P    .625-11 UNC-2B\P      19.05 [.75in.] MIN.\P    INSTALL ITEM 6\P      1.27 [.05in.] FROM FACE\P    EQUALLY SPACED\P    WITHIN .254 [.010in.]
  7
ROMANS
 73
     1
 44
1.0
  0
DIMENSION
  5
3B0
330
1F
100
AcDbEntity
  8
DIM
 62
   251
100
AcDbDimension
  2
*D31
 10
18.02049719019199
 20
4.580160706306505
 30
0.0
 11
19.18716385685866
 21
5.994239330922724
 31
0.0
 70
   160
 71
     5
 42
41.27500000000003
  3
HALF
100
AcDbAlignedDimension
 13
14.14870735385566
 23
5.392660706306507
 33
0.0
 14
12.89870735385567
 24
4.580160706306507
 34
0.0
 50
90.0
100
AcDbRotatedDimension
1001
ACAD
1000
DSTYLE
1002
{
1070
   272
1070
     3
1070
   271
1070
     3
1070
   274
1070
     3
1070
   171
1070
     3
1002
}
  0
DIMENSION
  5
3B1
330
1F
100
AcDbEntity
  8
DIM
 62
   251
100
AcDbDimension
  2
*D32
 10
17.26521936540211
 20
4.080160706306506
 30
0.0
 11
16.10188603206877
 21
2.670316705890911
 31
0.0
 70
   160
 71
     5
 42
66.67500000000003
  3
HALF
100
AcDbAlignedDimension
 13
14.14870735385566
 23
5.392660706306507
 33
0.0
 14
12.89870735385567
 24
4.080160706306507
 34
0.0
 50
90.0
100
AcDbRotatedDimension
1001
ACAD
1000
DSTYLE
1002
{
1070
   272
1070
     3
1070
   271
1070
     3
1070
   274
1070
     3
1070
   171
1070
     3
1002
}
  0
DIMENSION
  5
3B2
330
1F
100
AcDbEntity
  8
DIM
 62
   251
100
AcDbDimension
  2
*D33
 10
16.53877651911472
 20
3.580160706306506
 30
0.0
 11
15.37210985244806
 21
3.030736860198103
 31
0.0
 70
   160
 71
     5
 42
92.07500000000004
  3
HALF
100
AcDbAlignedDimension
 13
14.14870735385566
 23
5.392660706306507
 33
0.0
 14
12.89870735385567
 24
3.580160706306507
 34
0.0
 50
90.0
100
AcDbRotatedDimension
1001
ACAD
1000
DSTYLE
1002
{
1070
   272
1070
     3
1070
   271
1070
     3
1070
   274
1070
     3
1070
   171
1070
     3
1002
}
  0
CIRCLE
  5
3B3
330
1F
100
AcDbEntity
  8
DIM
  6
CENTER
 62
   251
 48
0.25
100
AcDbCircle
 10
12.89870735385567
 20
4.080160706306507
 30
0.0
 40
0.15625
  0
LEADER
  5
3B4
330
1F
100
AcDbEntity
  8
DIM
 62
   251
100
AcDbLeader
  3
HALF
 73
     0
 74
     0
 75
     1
 40
0.9133333333333332
 41
3.506666666666663
 76
     4
 10
13.03419773586848
 20
3.48627633323835
 30
0.0
 10
13.6512876236529
 20
2.678558293326034
 30
0.0
 10
13.94821495313469
 20
2.267193770572959
 30
0.0
 10
14.12821495313469
 20
2.267193770572959
 30
0.0
340
3B5
213
-0.0456294861738798
223
0.3520213611662371
233
0.0
1001
ACAD
1000
DSTYLE
1002
{
1070
   272
1070
     2
1070
   271
1070
     2
1002
}
  0
MTEXT
  5
3B5
102
{ACAD_REACTORS
330
3B4
102
}
330
1F
100
AcDbEntity
  8
DIM
 62
   251
100
AcDbMText
 10
14.23384443930857
 20
1.915172409406721
 30
0.0
 40
0.14
 41
0.0
 71
     4
 72
     1
  1
3X .625-11 UNC-2B\P      TO FIRST WALL\P    INSTALL ITEM 6\P      1.27 [.05in.] FROM FACE
  7
ROMANS
 73
     1
 44
1.0
  0
CIRCLE
  5
3B6
330
1F
100
AcDbEntity
  8
DIM
  6
CENTER
 62
   251
 48
0.25
100
AcDbCircle
 10
12.89870735385567
 20
3.580160706306507
 30
0.0
 40
0.15625
  0
LINE
  5
3B7
330
1F
100
AcDbEntity
  8
DIM
 62
   251
100
AcDbLine
 10
12.83870735385566
 20
3.580160706306507
 30
0.0
 11
12.95870735385567
 21
3.580160706306507
 31
0.0
  0
LINE
  5
3B8
330
1F
100
AcDbEntity
  8
DIM
 62
   251
100
AcDbLine
 10
12.89870735385567
 20
3.520160706306509
 30
0.0
 11
12.89870735385567
 21
3.640160706306506
 31
0.0
  0
LINE
  5
3B9
330
1F
100
AcDbEntity
  8
DIM
 62
   251
100
AcDbLine
 10
12.77870735385567
 20
3.580160706306507
 30
0.0
 11
12.68245735385566
 21
3.580160706306507
 31
0.0
  0
LINE
  5
3BA
330
1F
100
AcDbEntity
  8
DIM
 62
   251
100
AcDbLine
 10
13.01870735385566
 20
3.580160706306507
 30
0.0
 11
13.11495735385567
 21
3.580160706306507
 31
0.0
  0
LINE
  5
3BB
330
1F
100
AcDbEntity
  8
DIM
 62
   251
100
AcDbLine
 10
12.89870735385567
 20
3.460160706306506
 30
0.0
 11
12.89870735385567
 21
3.363910706306509
 31
0.0
  0
LINE
  5
3BC
330
1F
100
AcDbEntity
  8
DIM
 62
   251
100
AcDbLine
 10
12.89870735385567
 20
3.700160706306508
 30
0.0
 11
12.89870735385567
 21
3.796410706306506
 31
0.0
  0
LINE
  5
3BD
330
1F
100
AcDbEntity
  8
DIM
 62
   251
100
AcDbLine
 10
12.89870735385567
 20
3.960160706306506
 30
0.0
 11
12.89870735385567
 21
3.863910706306509
 31
0.0
  0
CIRCLE
  5
3BE
330
1F
100
AcDbEntity
  8
DIM
  6
CENTER
 62
   251
 48
0.25
100
AcDbCircle
 10
12.89870735385567
 20
4.580160706306507
 30
0.0
 40
0.15625
  0
LINE
  5
3BF
330
1F
100
AcDbEntity
  8
DIM
 62
   251
100
AcDbLine
 10
12.83870735385566
 20
4.080160706306507
 30
0.0
 11
12.95870735385567
 21
4.080160706306507
 31
0.0
  0
LINE
  5
3C0
330
1F
100
AcDbEntity
  8
DIM
 62
   251
100
AcDbLine
 10
12.89870735385567
 20
4.020160706306509
 30
0.0
 11
12.89870735385567
 21
4.140160706306506
 31
0.0
  0
LINE
  5
3C1
330
1F
100
AcDbEntity
  8
DIM
 62
   251
100
AcDbLine
 10
12.77870735385567
 20
4.080160706306507
 30
0.0
 11
12.68245735385566
 21
4.080160706306507
 31
0.0
  0
LINE
  5
3C2
330
1F
100
AcDbEntity
  8
DIM
 62
   251
100
AcDbLine
 10
13.01870735385566
 20
4.080160706306507
 30
0.0
 11
13.11495735385567
 21
4.080160706306507
 31
0.0
  0
LINE
  5
3C3
330
1F
100
AcDbEntity
  8
DIM
 62
   251
100
AcDbLine
 10
12.89870735385567
 20
4.200160706306508
 30
0.0
 11
12.89870735385567
 21
4.296410706306506
 31
0.0
  0
LINE
  5
3C4
330
1F
100
AcDbEntity
  8
DIM
 62
   251
100
AcDbLine
 10
12.83870735385566
 20
4.580160706306507
 30
0.0
 11
12.95870735385567
 21
4.580160706306507
 31
0.0
  0
LINE
  5
3C5
330
1F
100
AcDbEntity
  8
DIM
 62
   251
100
AcDbLine
 10
12.89870735385567
 20
4.520160706306509
 30
0.0
 11
12.89870735385567
 21
4.640160706306506
 31
0.0
  0
LINE
  5
3C6
330
1F
100
AcDbEntity
  8
DIM
 62
   251
100
AcDbLine
 10
12.77870735385567
 20
4.580160706306507
 30
0.0
 11
12.68245735385566
 21
4.580160706306507
 31
0.0
  0
LINE
  5
3C7
330
1F
100
AcDbEntity
  8
DIM
 62
   251
100
AcDbLine
 10
13.01870735385566
 20
4.580160706306507
 30
0.0
 11
13.11495735385567
 21
4.580160706306507
 31
0.0
  0
LINE
  5
3C8
330
1F
100
AcDbEntity
  8
DIM
 62
   251
100
AcDbLine
 10
12.89870735385567
 20
4.460160706306506
 30
0.0
 11
12.89870735385567
 21
4.363910706306509
 31
0.0
  0
LINE
  5
3C9
330
1F
100
AcDbEntity
  8
DIM
 62
   251
100
AcDbLine
 10
12.89870735385567
 20
4.700160706306508
 30
0.0
 11
12.89870735385567
 21
4.796410706306506
 31
0.0
  0
LINE
  5
3CA
330
1F
100
AcDbEntity
  8
DIM
  6
CENTER
 62
   251
100
AcDbLine
 10
12.89870735385566
 20
9.336806745739082
 30
0.0
 11
20.94223929541359
 21
13.98074207743293
 31
0.0
  0
CIRCLE
  5
3CB
330
1F
100
AcDbEntity
  8
DIM
  6
CENTER
 62
   251
 48
0.25
100
AcDbCircle
 10
19.26040259684639
 20
13.00973320678217
 30
0.0
 40
0.15625
  0
DIMENSION
  5
3CC
330
1F
100
AcDbEntity
  8
DIM
 62
   251
100
AcDbDimension
  2
*D34
 10
19.80326068142812
 20
10.92378788649607
 30
0.0
 11
18.58038881856899
 21
10.92378788649607
 31
0.0
 70
   160
 71
     5
 42
127.0
  3
HALF
100
AcDbAlignedDimension
 13
17.30326068142812
 23
10.62472777482602
 33
0.0
 14
19.80326068142812
 24
10.62472777482602
 34
0.0
100
AcDbRotatedDimension
1001
ACAD
1000
DSTYLE
1002
{
1070
   272
1070
     2
1070
   271
1070
     2
1002
}
  0
DIMENSION
  5
3CD
330
1F
100
AcDbEntity
  8
DIM
 62
   251
100
AcDbDimension
  2
*D35
 10
17.20157401281918
 20
13.95072891839237
 30
0.0
 11
15.69704364133688
 21
13.75566321746766
 31
0.0
 70
   160
 71
     5
 42
92.07500000000017
  3
HALF
100
AcDbAlignedDimension
 13
19.6934152987386
 23
13.25973320678217
 33
0.0
 14
17.49874425437931
 24
13.43601496151271
 34
0.0
 50
30.00000000000001
100
AcDbRotatedDimension
1001
ACAD
1000
DSTYLE
1002
{
1070
   272
1070
     3
1070
   271
1070
     3
1070
   274
1070
     3
1070
   171
1070
     3
1002
}
  0
LWPOLYLINE
  5
3CE
330
1F
100
AcDbEntity
  8
DIM
  6
PHANTOM
 62
   251
 48
0.25
100
AcDbPolyline
 90
        4
 70
     1
 43
0.0
 10
18.23594966624146
 20
8.808674346157502
 10
19.48542350670922
 20
8.808674346157502
 10
19.48836441760045
 20
9.098342501113705
 10
18.23889057713269
 20
9.098342501113705
  0
LEADER
  5
3CF
330
1F
100
AcDbEntity
  8
DIM
 62
   251
100
AcDbLeader
  3
HALF
 76
     2
 10
19.03401029379399
 20
9.105912500561316
 30
0.0
 10
20.30609663129751
 20
10.25638811045508
 30
0.0
1001
ACAD
1000
DSTYLE
1002
{
1070
   272
1070
     3
1070
   271
1070
     3
1070
   274
1070
     3
1070
   171
1070
     3
1002
}
  0
CIRCLE
  5
3D0
330
1F
100
AcDbEntity
  8
DIM
  6
CENTER
 62
   251
 48
0.25
100
AcDbCircle
 10
13.89870735385565
 20
9.336806745739092
 30
0.0
 40
0.15625
  0
DIMENSION
  5
3D1
330
1F
100
AcDbEntity
  8
DIM
 62
   251
100
AcDbDimension
  2
*D36
 10
14.98690174906816
 20
8.14680674573908
 30
0.0
 11
14.98690174906816
 21
8.741806745739083
 31
0.0
 70
    32
 71
     5
 42
60.45200000000006
  3
HALF
100
AcDbAlignedDimension
 13
12.89870735385566
 23
9.336806745739082
 33
0.0
 14
13.28132988324984
 24
8.14680674573908
 34
0.0
 50
90.0
100
AcDbRotatedDimension
1001
ACAD
1000
DSTYLE
1002
{
1070
   272
1070
     2
1070
   271
1070
     2
1002
}
  0
LEADER
  5
3D2
330
1F
100
AcDbEntity
  8
DIM
 62
   251
100
AcDbLeader
  3
HALF
 73
     0
 74
     0
 75
     1
 40
1.953333333333333
 41
3.506666666666663
 76
     4
 10
13.88577257249616
 20
8.734780549379081
 30
0.0
 10
14.1600638451817
 20
8.112876069567292
 30
0.0
 10
14.3258011513793
 20
7.749498935440954
 30
0.0
 10
14.5058011513793
 20
7.749498935440954
 30
0.0
340
3AF
213
-0.0569491705013281
223
0.8632784706407363
233
0.0
1001
ACAD
1000
DSTYLE
1002
{
1070
   272
1070
     2
1070
   271
1070
     2
1002
}
  0
CIRCLE
  5
3D3
330
1F
100
AcDbEntity
  8
DIM
  6
CENTER
 62
   251
 48
0.25
100
AcDbCircle
 10
12.89870735385566
 20
8.336806745739082
 30
0.0
 40
0.15625
  0
CIRCLE
  5
3D4
330
1F
100
AcDbEntity
  8
DIM
  6
CENTER
 62
   251
 48
0.25
100
AcDbCircle
 10
13.7647327576401
 20
8.836806745739092
 30
0.0
 40
0.15625
  0
CIRCLE
  5
3D5
330
1F
100
AcDbEntity
  8
DIM
  6
CENTER
 62
   251
 48
0.25
100
AcDbCircle
 10
13.39870735385567
 20
8.470781341954648
 30
0.0
 40
0.15625
  0
CIRCLE
  5
3D8
330
1F
100
AcDbEntity
  8
DIM
  6
CENTER
 62
   251
 48
0.25
100
AcDbCircle
 10
12.89870735385565
 20
10.33680674573908
 30
0.0
 40
0.15625
  0
CIRCLE
  5
3D9
330
1F
100
AcDbEntity
  8
DIM
  6
CENTER
 62
   251
 48
0.25
100
AcDbCircle
 10
13.76473275764009
 20
9.836806745739082
 30
0.0
 40
0.15625
  0
CIRCLE
  5
3DA
330
1F
100
AcDbEntity
  8
DIM
  6
CENTER
 62
   251
 48
0.25
100
AcDbCircle
 10
13.39870735385566
 20
10.20283214952351
 30
0.0
 40
0.15625
  0
DIMENSION
  5
3DB
330
1F
100
AcDbEntity
  8
DIM
 62
   251
100
AcDbDimension
  2
*D37
 10
16.78419184767257
 20
14.67365603459939
 30
0.0
 11
15.29952668986408
 21
14.49005952013676
 31
0.0
 70
   160
 71
     5
 42
41.27499999999981
  3
HALF
100
AcDbAlignedDimension
 13
18.82738989495416
 23
12.75973320678216
 33
0.0
 14
17.49874425437931
 24
13.43601496151271
 34
0.0
 50
30.00000000000001
100
AcDbRotatedDimension
1001
ACAD
1000
DSTYLE
1002
{
1070
   272
1070
     3
1070
   271
1070
     3
1070
   274
1070
     3
1070
   171
1070
     3
1002
}
  0
DIMENSION
  5
3DC
330
1F
100
AcDbEntity
  8
DIM
 62
   251
100
AcDbDimension
  2
*D38
 10
16.99608062198437
 20
14.30665391193787
 30
0.0
 11
15.50692689277445
 21
14.11854141867105
 31
0.0
 70
   160
 71
     5
 42
66.675
  3
HALF
100
AcDbAlignedDimension
 13
19.26040259684638
 23
13.00973320678217
 33
0.0
 14
17.49874425437931
 24
13.43601496151271
 34
0.0
 50
30.00000000000001
100
AcDbRotatedDimension
1001
ACAD
1000
DSTYLE
1002
{
1070
   272
1070
     3
1070
   271
1070
     3
1070
   274
1070
     3
1070
   171
1070
     3
1002
}
  0
CIRCLE
  5
3DD
330
1F
100
AcDbEntity
  8
DIM
  6
CENTER
 62
   251
 48
0.25
100
AcDbCircle
 10
18.82738989495417
 20
12.75973320678216
 30
0.0
 40
0.15625
  0
LINE
  5
3DE
330
1F
100
AcDbEntity
  8
DIM
 62
   251
100
AcDbLine
 10
18.85738989495417
 20
12.7077716825551
 30
0.0
 11
18.79738989495417
 21
12.81169473100923
 31
0.0
  0
LINE
  5
3DF
330
1F
100
AcDbEntity
  8
DIM
 62
   251
100
AcDbLine
 10
18.88738989495417
 20
12.65581015832803
 30
0.0
 11
18.93551489495417
 21
12.57245521321378
 31
0.0
  0
LINE
  5
3E0
330
1F
100
AcDbEntity
  8
DIM
 62
   251
100
AcDbLine
 10
18.76738989495417
 20
12.8636562552363
 30
0.0
 11
18.71926489495417
 21
12.94701120035055
 31
0.0
  0
LINE
  5
3E1
330
1F
100
AcDbEntity
  8
DIM
 62
   251
100
AcDbLine
 10
19.20040259684639
 20
13.1136562552363
 30
0.0
 11
19.15227759684639
 21
13.19701120035055
 31
0.0
  0
LINE
  5
3E2
330
1F
100
AcDbEntity
  8
DIM
 62
   251
100
AcDbLine
 10
19.29040259684639
 20
12.9577716825551
 30
0.0
 11
19.23040259684639
 21
13.06169473100923
 31
0.0
  0
LINE
  5
3E3
330
1F
100
AcDbEntity
  8
DIM
 62
   251
100
AcDbLine
 10
19.32040259684639
 20
12.90581015832803
 30
0.0
 11
19.36852759684639
 21
12.82245521321378
 31
0.0
  0
LEADER
  5
3E4
330
1F
100
AcDbEntity
  8
DIM
 62
   251
100
AcDbLeader
  3
HALF
 73
     0
 74
     0
 75
     1
 40
0.9133333333333332
 41
3.506666666666663
 76
     4
 10
19.80676841387498
 20
13.15219189477194
 30
0.0
 10
20.79217955706059
 20
11.98624505331497
 30
0.0
 10
21.36032218401279
 20
11.24818043143029
 30
0.0
 10
21.54032218401279
 20
11.24818043143029
 30
0.0
340
3E5
213
-0.0456294861738798
223
0.3520213611662371
233
0.0
1001
ACAD
1000
DSTYLE
1002
{
1070
   272
1070
     2
1070
   271
1070
     2
1002
}
  0
MTEXT
  5
3E5
102
{ACAD_REACTORS
330
3E4
102
}
330
1F
100
AcDbEntity
  8
DIM
 62
   251
100
AcDbMText
 10
21.64595167018667
 20
10.89615907026406
 30
0.0
 40
0.14
 41
0.0
 71
     4
 72
     1
  1
3X .625-11 UNC-2B\P      TO FIRST WALL\P    INSTALL ITEM 6\P      1.27 [.05in.] FROM FACE
  7
ROMANS
 73
     1
 44
1.0
  0
CIRCLE
  5
3E6
330
1F
100
AcDbEntity
  8
DIM
  6
CENTER
 62
   251
 48
0.25
100
AcDbCircle
 10
19.69341529873861
 20
13.25973320678216
 30
0.0
 40
0.15625
  0
LINE
  5
3E7
330
1F
100
AcDbEntity
  8
DIM
 62
   251
100
AcDbLine
 10
19.63341529873861
 20
13.3636562552363
 30
0.0
 11
19.58529029873861
 21
13.44701120035055
 31
0.0
  0
LINE
  5
3E8
330
1F
100
AcDbEntity
  8
DIM
 62
   251
100
AcDbLine
 10
19.72341529873861
 20
13.2077716825551
 30
0.0
 11
19.66341529873861
 21
13.31169473100923
 31
0.0
  0
LINE
  5
3E9
330
1F
100
AcDbEntity
  8
DIM
 62
   251
100
AcDbLine
 10
19.75341529873861
 20
13.15581015832803
 30
0.0
 11
19.80154029873861
 21
13.07245521321378
 31
0.0
  0
LINE
  5
5B1
330
1F
100
AcDbEntity
  8
DIM
 62
   251
100
AcDbLine
 10
15.31027413783857
 20
7.43846863972422
 30
0.0
 11
15.31027413783857
 21
7.568468639724219
 31
0.0
  0
LINE
  5
5B2
330
1F
100
AcDbEntity
  8
DIM
 62
   251
100
AcDbLine
 10
15.31027413783857
 20
7.43846863972422
 30
0.0
 11
15.26524081684178
 21
7.516468639724219
 31
0.0
  0
LINE
  5
5B3
330
1F
100
AcDbEntity
  8
DIM
 62
   251
100
AcDbLine
 10
15.31027413783857
 20
7.43846863972422
 30
0.0
 11
15.35530745883536
 21
7.516468639724219
 31
0.0
  0
LINE
  5
5B4
330
1F
100
AcDbEntity
  8
DIM
 62
   251
100
AcDbLine
 10
15.24527413783857
 20
7.568468639724219
 30
0.0
 11
15.37527413783857
 21
7.568468639724219
 31
0.0
  0
LINE
  5
5B5
330
1F
100
AcDbEntity
  8
DIM
 62
   251
100
AcDbLine
 10
15.35429032144877
 20
6.936067228819538
 30
0.0
 11
15.35429032144877
 21
7.066067228819537
 31
0.0
  0
LINE
  5
5B6
330
1F
100
AcDbEntity
  8
DIM
 62
   251
100
AcDbLine
 10
15.35429032144877
 20
6.936067228819538
 30
0.0
 11
15.30925700045197
 21
7.014067228819538
 31
0.0
  0
LINE
  5
5B7
330
1F
100
AcDbEntity
  8
DIM
 62
   251
100
AcDbLine
 10
15.35429032144877
 20
6.936067228819538
 30
0.0
 11
15.39932364244556
 21
7.014067228819538
 31
0.0
  0
LINE
  5
5B8
330
1F
100
AcDbEntity
  8
DIM
 62
   251
100
AcDbLine
 10
15.28929032144876
 20
7.066067228819537
 30
0.0
 11
15.41929032144877
 21
7.066067228819537
 31
0.0
  0
VIEWPORT
  5
21E
330
1B
100
AcDbEntity
 67
     1
  8
0
100
AcDbViewport
 10
5.218750360443836
 20
3.92708320317306
 30
0.0
 40
11.63799974576694
 41
12.50956800866579
 68
     1
 69
     1
 12
5.218750360443836
 22
3.92708320317306
 13
0.0
 23
0.0
 14
0.5
 24
0.5
 15
0.5
 25
0.5
 16
0.0
 26
0.0
 36
1.0
 17
0.0
 27
0.0
 37
0.0
 42
50.0
 43
0.0
 44
0.0
 45
12.50956800866579
 50
0.0
 51
0.0
 72
   100
 90
    32800
  1

281
     0
 71
     1
 74
     0
110
0.0
120
0.0
130
0.0
111
1.0
121
0.0
131
0.0
112
0.0
122
1.0
132
0.0
 79
     0
146
0.0
  0
VIEWPORT
  5
220
330
1B
100
AcDbEntity
 67
     1
  8
0
100
AcDbViewport
 10
5.218749994368064
 20
3.852083476509634
 30
0.0
 40
8.349999990988901
 41
6.163333562415415
 68
     2
 69
     2
 12
2.655120887084107
 22
2.103403453775629
 13
0.0
 23
0.0
 14
0.5
 24
0.5
 15
0.5
 25
0.5
 16
0.0
 26
0.0
 36
1.0
 17
11.7304025722883
 27
7.720458979668213
 37
3.237340503106245
 42
50.0
 43
0.0
 44
0.0
 45
7.934912878753697
 50
0.0
 51
0.0
 72
   100
 90
    32864
  1

281
     0
 71
     1
 74
     0
110
0.0
120
0.0
130
0.0
111
1.0
121
0.0
131
0.0
112
0.0
122
1.0
132
0.0
 79
     1
146
0.0
  0
ENDSEC
  0
SECTION
  2
OBJECTS
  0
DICTIONARY
  5
C
330
0
100
AcDbDictionary
281
     1
  3
ACAD_GROUP
350
D
  3
ACAD_IMAGE_DICT
350
49
  3
ACAD_IMAGE_VARS
350
4A
  3
ACAD_LAYOUT
350
1A
  3
ACAD_MLINESTYLE
350
17
  3
ACAD_PLOTSETTINGS
350
19
  3
ACAD_PLOTSTYLENAME
350
E
  3
AcDbVariableDictionary
350
84
  0
DICTIONARY
  5
715
330
1F
100
AcDbDictionary
280
     1
281
     1
  3
ACAD_SORTENTS
360
716
  0
DICTIONARY
  5
39B
330
39A
100
AcDbDictionary
280
     1
281
     1
  0
DICTIONARY
  5
3AD
330
3AC
100
AcDbDictionary
280
     1
281
     1
  3
ACMDIMBREAKPERSREACTOR
360
3AE
  0
DICTIONARY
  5
D
102
{ACAD_REACTORS
330
C
102
}
330
C
100
AcDbDictionary
281
     1
  0
DICTIONARY
  5
49
102
{ACAD_REACTORS
330
C
102
}
330
C
100
AcDbDictionary
281
     1
  3
vve
350
4B
  0
RASTERVARIABLES
  5
4A
102
{ACAD_REACTORS
330
C
102
}
330
C
100
AcDbRasterVariables
 90
        0
 70
     1
 71
     1
 72
     5
  0
DICTIONARY
  5
1A
102
{ACAD_REACTORS
330
C
102
}
330
C
100
AcDbDictionary
281
     1
  3
Layout1
350
1E
  3
Layout2
350
26
  3
Model
350
22
  0
DICTIONARY
  5
17
102
{ACAD_REACTORS
330
C
102
}
330
C
100
AcDbDictionary
281
     1
  3
Standard
350
18
  0
DICTIONARY
  5
19
102
{ACAD_REACTORS
330
C
102
}
330
C
100
AcDbDictionary
281
     1
  0
ACDBDICTIONARYWDFLT
  5
E
102
{ACAD_REACTORS
330
C
102
}
330
C
100
AcDbDictionary
281
     1
  3
Normal
350
F
100
AcDbDictionaryWithDefault
340
F
  0
DICTIONARY
  5
84
102
{ACAD_REACTORS
330
C
102
}
330
C
100
AcDbDictionary
281
     1
  3
SORTENTS
350
85
  0
SORTENTSTABLE
  5
716
102
{ACAD_REACTORS
330
715
102
}
330
715
100
AcDbSortentsTable
330
1F
331
64
  5
5B5
331
3E2
  5
3C8
331
3C0
  5
3A6
331
215
  5
5B8
331
53
  5
3DE
331
3D1
  5
3B9
331
3AF
  5
61
331
3E0
  5
3C6
331
51
  5
3DC
331
3CF
  5
3B7
331
3BE
  5
3A4
331
60
  5
5B2
331
3CD
  5
3B5
331
3AB
  5
5F
331
3DE
  5
3C4
331
3BC
  5
3A2
331
3CB
  5
3B3
331
3A9
  5
5D
331
5E
  5
3E9
331
3DC
  5
3C2
331
3BA
  5
3A0
331
3C9
  5
3B1
331
3A7
  5
5B
331
5B8
  5
3D9
331
3B8
  5
39E
331
39E
  5
52
331
5C
  5
3E7
331
3DA
  5
3C0
331
3E9
  5
3CF
331
3C7
  5
3AF
331
3A5
  5
59
331
5B6
  5
3D5
331
3B6
  5
39C
331
39C
  5
50
331
5A
  5
3E5
331
3D8
  5
3BE
331
3E7
  5
3CD
331
3C5
  5
3AB
331
3A3
  5
57
331
58
  5
3E3
331
5B4
  5
3D3
331
3B4
  5
215
331
39A
  5
4E
331
3E5
  5
3CB
331
3C3
  5
3A9
331
3A1
  5
55
331
5B2
  5
3D1
331
3B2
  5
65
331
56
  5
3E1
331
3D4
  5
3BC
331
65
  5
5B6
331
3E3
  5
3C9
331
3C1
  5
3A7
331
54
  5
3DF
331
3D2
  5
3BA
331
3B0
  5
63
331
63
  5
5B4
331
3E1
  5
3C7
331
52
  5
3DD
331
3D0
  5
3B8
331
3BF
  5
3A5
331
61
  5
5B3
331
50
  5
3DB
331
3CE
  5
3B6
331
3AC
  5
60
331
3DF
  5
3C5
331
3BD
  5
3A3
331
4E
  5
3DA
331
3CC
  5
3B4
331
3AA
  5
5E
331
5F
  5
5B1
331
3DD
  5
3C3
331
3BB
  5
3A1
331
3CA
  5
3B2
331
3A8
  5
5C
331
5D
  5
3E8
331
3DB
  5
3C1
331
3B9
  5
39F
331
39F
  5
53
331
3C8
  5
3B0
331
3A6
  5
5A
331
5B7
  5
3D8
331
3B7
  5
39D
331
39D
  5
51
331
5B
  5
3E6
331
3D9
  5
3BF
331
3E8
  5
3CE
331
3C6
  5
3AC
331
3A4
  5
58
331
59
  5
3E4
331
5B5
  5
3D4
331
3B5
  5
39A
331
3E6
  5
3CC
331
3C4
  5
3AA
331
3A2
  5
56
331
5B3
  5
3D2
331
3B3
  5
66
331
57
  5
3E2
331
3D5
  5
3BD
331
66
  5
5B7
331
3E4
  5
3CA
331
3C2
  5
3A8
331
3A0
  5
54
331
5B1
  5
3D0
331
55
  5
3E0
331
3D3
  5
3BB
331
3B1
  5
64
  0
ACAD_PROXY_OBJECT
  5
3AE
102
{ACAD_REACTORS
330
3AD
102
}
330
3AD
100
AcDbProxyObject
 90
      499
 91
      508
 95
   589845
 70
     0
 93
     1238
310
45E40418601C25EAB52640101E8A07EC9F86B02061807097AAD49900407A281FB27E1AC08B02EB6848B122640303E6062D45706702414739CCD10EAF72140272AA3429392C93021CE733443ABDC8500807578F56EF52EC08729CCD10EAF721401F8968AE256B0870236080C3C4641CC50045D6AAA8C7C510C084547FBDADC2
310
326400CD7497FED19C67021151FEF6B708C9900335D25FFB46719C08
 94
        0
  0
IMAGEDEF
  5
4B
102
{ACAD_REACTORS
330
49
102
}
330
49
100
AcDbRasterImageDef
 90
        0
  1
C:\My Documents\vve.jpg
 10
277.0
 20
192.0
 11
0.0036101083032491
 21
0.0036101083032491
280
     1
281
     0
  0
LAYOUT
  5
1E
102
{ACAD_REACTORS
330
1A
102
}
330
1A
100
AcDbPlotSettings
  1

  2
\\CACN2NT1\hq601pn3
  4
Letter
  6

 40
8.202083587646484
 41
7.143756389617919
 42
12.01206970214843
 43
7.14373779296875
 44
215.8999938964843
 45
279.3999938964843
 46
0.0
 47
0.0
 48
0.0
 49
0.0
140
0.0
141
0.0
142
1.0
143
1.0
 70
   688
 72
     0
 73
     1
 74
     5
  7

 75
    16
147
1.0
148
0.0
149
0.0
100
AcDbLayout
  1
Layout1
 70
     1
 71
     1
 10
-0.2812495194082185
 20
-0.3229166766789954
 11
10.71875024029589
 21
8.177083083025113
 12
0.0
 22
0.0
 32
0.0
 14
1.043749998873613
 24
0.7704166953019272
 34
0.0
 15
9.393749989862515
 25
6.933750257717342
 35
0.0
146
0.0
 13
0.0
 23
0.0
 33
0.0
 16
1.0
 26
0.0
 36
0.0
 17
0.0
 27
1.0
 37
0.0
 76
     0
330
1B
331
21E
  0
LAYOUT
  5
26
102
{ACAD_REACTORS
330
1A
102
}
330
1A
100
AcDbPlotSettings
  1

  2
\\CACN2NT1\hq601pn3
  4
Letter
  6

 40
8.202083587646484
 41
7.143756389617919
 42
12.01206970214843
 43
7.14373779296875
 44
215.8999938964843
 45
279.3999938964843
 46
0.0
 47
0.0
 48
0.0
 49
0.0
140
0.0
141
0.0
142
1.0
143
1.0
 70
   688
 72
     0
 73
     1
 74
     5
  7

 75
    16
147
1.0
148
0.0
149
0.0
100
AcDbLayout
  1
Layout2
 70
     1
 71
     2
 10
-0.2812495194082185
 20
-0.3229166766789954
 11
10.71875024029589
 21
8.177083083025113
 12
0.0
 22
0.0
 32
0.0
 14
1.043749998873613
 24
0.7704166953019272
 34
0.0
 15
9.393749989862515
 25
6.933750257717342
 35
0.0
146
0.0
 13
0.0
 23
0.0
 33
0.0
 16
1.0
 26
0.0
 36
0.0
 17
0.0
 27
1.0
 37
0.0
 76
     0
330
23
331
224
  0
LAYOUT
  5
22
102
{ACAD_REACTORS
330
1A
102
}
330
1A
100
AcDbPlotSettings
  1

  2
\\CACN2NT1\hq601pn3
  4
Letter
  6

 40
8.202083587646484
 41
7.143756389617919
 42
12.01206970214843
 43
7.14373779296875
 44
215.8999938964843
 45
279.3999938964843
 46
0.0
 47
0.0
 48
0.0
 49
0.0
140
0.0
141
0.0
142
1.0
143
1.0
 70
 11952
 72
     0
 73
     1
 74
     0
  7

 75
     0
147
1.0
148
125.4283915119379
149
89.22528540969105
100
AcDbLayout
  1
Model
 70
     1
 71
     0
 10
0.0
 20
0.0
 11
12.0
 21
9.0
 12
0.0
 22
0.0
 32
0.0
 14
0.0
 24
0.0
 34
0.0
 15
0.0
 25
0.0
 35
0.0
146
0.0
 13
0.0
 23
0.0
 33
0.0
 16
1.0
 26
0.0
 36
0.0
 17
0.0
 27
1.0
 37
0.0
 76
     0
330
1F
  0
MLINESTYLE
  5
18
102
{ACAD_REACTORS
330
17
102
}
330
17
100
AcDbMlineStyle
  2
STANDARD
 70
     0
  3

 62
   256
 51
90.0
 52
90.0
 71
     2
 49
0.5
 62
   256
  6
BYLAYER
 49
-0.5
 62
   256
  6
BYLAYER
  0
ACDBPLACEHOLDER
  5
F
102
{ACAD_REACTORS
330
E
102
}
330
E
  0
DICTIONARYVAR
  5
85
102
{ACAD_REACTORS
330
84
102
}
330
84
100
DictionaryVariables
280
     0
  1
127
  0
ENDSEC
  0
EOF
